<svg xmlns="http://www.w3.org/2000/svg" xmlns:xlink="http://www.w3.org/1999/xlink" width="584" height="438" viewBox="0 0 584 438"><defs><style>.a,.c{fill:#fff;}.a{stroke:#707070;}.b{clip-path:url(#a);}.d{fill:#3b3a3c;}.e{fill:#c31e23;}.f{fill:#2c3b44;}</style><clipPath id="a"><rect class="a" width="584" height="438" transform="translate(-2249 2107)"/></clipPath></defs><g class="b" transform="translate(2249 -2107)"><g transform="translate(-2167.085 2152.968)"><g transform="translate(96.902 0)"><rect class="c" width="322.933" height="234.458" rx="20.421" transform="translate(0.817 0.817)"/><path class="d" d="M2470.236-71.254H2160.653a7.5,7.5,0,0,1-7.492-7.492V-299.854a7.5,7.5,0,0,1,7.492-7.492h309.583a7.5,7.5,0,0,1,7.492,7.492V-78.746A7.5,7.5,0,0,1,2470.236-71.254ZM2160.653-305.712a5.864,5.864,0,0,0-5.858,5.857V-78.746a5.865,5.865,0,0,0,5.858,5.858h309.583a5.864,5.864,0,0,0,5.858-5.858V-299.854a5.864,5.864,0,0,0-5.858-5.857Z" transform="translate(-2153.161 307.346)"/><g transform="translate(7.96 7.961)"><rect class="c" width="307.014" height="218.538" transform="translate(0.817 0.817)"/><path class="d" d="M2485.346-62.816H2178.332a.817.817,0,0,1-.817-.817V-282.172a.817.817,0,0,1,.817-.817h307.014a.817.817,0,0,1,.817.817V-63.634A.817.817,0,0,1,2485.346-62.816Zm-306.2-1.634h305.38v-216.9h-305.38Z" transform="translate(-2177.515 282.989)"/></g><g transform="translate(7.959 7.961)"><rect class="c" width="307.014" height="24.914" transform="translate(0.817 0.817)"/><path class="d" d="M2485.344-256.441H2178.329a.817.817,0,0,1-.817-.817v-24.914a.817.817,0,0,1,.817-.817h307.015a.817.817,0,0,1,.817.817v24.914A.817.817,0,0,1,2485.344-256.441Zm-306.2-1.634h305.38v-23.28h-305.38Z" transform="translate(-2177.512 282.989)"/><g transform="translate(50.426 7.351)"><path class="e" d="M2337.716-260.5a5.93,5.93,0,0,0-5.923,5.923,5.93,5.93,0,0,0,5.923,5.923h195.728a5.93,5.93,0,0,0,5.923-5.923,5.93,5.93,0,0,0-5.923-5.923Z" transform="translate(-2331.793 260.498)"/></g><g transform="translate(15.266 7.841)"><path class="f" d="M2224.456-249.141l5.809-9.156a1.508,1.508,0,0,1,2.547,0l5.809,9.156a1.508,1.508,0,0,1-1.274,2.316h-11.617A1.508,1.508,0,0,1,2224.456-249.141Z" transform="translate(-2224.219 258.998)"/></g><g transform="translate(282.103 7.074)"><rect class="f" width="16.12" height="4.34" rx="2.17"/><g transform="translate(0 8.061)"><rect class="f" width="16.12" height="4.34" rx="2.17"/></g></g></g></g><g transform="translate(163.416 42.955)"><g transform="translate(0 0)"><rect class="e" width="191.538" height="294.717" rx="13.085"/></g><g transform="translate(80.8 32.15)"><rect class="c" width="91.663" height="9.834" rx="4.917"/><g transform="translate(0 25.989)"><rect class="c" width="91.663" height="9.834" rx="4.917" transform="translate(0 0)"/></g></g><g transform="translate(22.559 204.015)"><rect class="c" width="71.637" height="9.834" rx="4.917"/><g transform="translate(0 25.989)"><rect class="c" width="71.637" height="9.834" rx="4.917"/></g><g transform="translate(0 51.978)"><rect class="c" width="71.637" height="9.834" rx="4.917"/></g></g><g transform="translate(26.169 29.128)"><path class="c" d="M2468.734-42.339h-17.47l-4.3,10.31h-10.239L2460.5-86.8h.573l23.771,54.774h-12.029Zm-3.437-8.735-5.084-12.816-5.3,12.816Z" transform="translate(-2436.729 86.803)"/></g><g transform="translate(22.559 94.049)"><rect class="c" width="149.905" height="97.732" rx="10.661"/></g><g transform="translate(105.475 203.628)"><rect class="f" width="66.989" height="67.667" rx="4"/><g transform="translate(4.342 4.342)"><path class="c" d="M.615,0H58.369a.614.614,0,0,1,.614.614V57.69a.615.615,0,0,1-.615.615H.614A.614.614,0,0,1,0,57.691V.615A.615.615,0,0,1,.615,0Z" transform="translate(58.305 0) rotate(90)"/></g><g transform="translate(4.342 18.298)"><g transform="translate(0 10.222)"><path class="f" d="M2692.876,571.233h57.86a.222.222,0,0,0,.222-.222V560.593l-13.028-13.029a4.784,4.784,0,0,0-6.765,0L2724.73,554l-16.169-16.169a4.783,4.783,0,0,0-6.765,0l-9.144,9.144v24.037A.222.222,0,0,0,2692.876,571.233Z" transform="translate(-2692.653 -536.429)"/></g><g transform="translate(27.21)"><circle class="f" cx="6.682" cy="6.682" r="6.682"/></g></g></g></g><g transform="translate(11.073 155.1)"><g transform="translate(8.314 137.69)"><path class="c" d="M1924.422,593.043,1918.5,617.6l8.439,1.763,8.817-22.168Z" transform="translate(-1917.685 -592.225)"/><path class="d" d="M1925.259,618.5a.79.79,0,0,1-.168-.017l-8.439-1.763a.817.817,0,0,1-.627-.991l5.92-24.561a.817.817,0,0,1,1.076-.575l11.336,4.156a.818.818,0,0,1,.478,1.069l-8.817,22.168A.817.817,0,0,1,1925.259,618.5Zm-7.448-3.208,6.942,1.451,8.253-20.75-9.687-3.552Z" transform="translate(-1916.002 -590.543)"/></g><g transform="translate(0 159.794)"><g transform="translate(0.817)"><path class="e" d="M1936.394,684.495v3.528h-43.33s0-1.664.141-4.284c.34-6.267,1.491-18.018,5.4-25.569h16A39.194,39.194,0,0,0,1932.5,678a7.388,7.388,0,0,1,3.857,5.735A7.485,7.485,0,0,1,1936.394,684.495Z" transform="translate(-1893.064 -658.17)"/></g><g transform="translate(0 24.752)"><path class="c" d="M1936.394,737.155v3.528h-43.33s0-1.664.141-4.284h43.149A7.484,7.484,0,0,1,1936.394,737.155Z" transform="translate(-1892.247 -735.582)"/><path class="d" d="M1934.711,739.817h-43.33a.817.817,0,0,1-.817-.817c0-.069,0-1.716.142-4.328a.817.817,0,0,1,.816-.773h43.149a.817.817,0,0,1,.813.734,8.327,8.327,0,0,1,.044.839V739A.817.817,0,0,1,1934.711,739.817Zm-42.5-1.634h41.685v-2.649H1892.3C1892.246,736.67,1892.221,737.58,1892.209,738.183Z" transform="translate(-1890.564 -733.899)"/></g></g><g transform="translate(10.562 0)"><path class="e" d="M1963.321,268.284a78.036,78.036,0,0,1-3.546,9.751c-5.608,13.919-15.891,37.378-15.891,37.378l-20.5-7.453,13.047-46.6s-11.983-37.28-13.314-47.664,3.463-26.625,3.463-26.625c8.521-24.5,27.425-20.5,30.088-7.189,2.156,10.778,5.532,59.405,6.458,79.67C1963.339,264.326,1963.422,267.524,1963.321,268.284Z" transform="translate(-1922.88 -169.273)"/><g transform="translate(14.87 91.788)"><path class="d" d="M1978.941,454.085a.827.827,0,0,1-.192-.023L1969,451.713a.817.817,0,1,1,.383-1.589l9.747,2.349a.817.817,0,0,1-.191,1.612Z" transform="translate(-1968.376 -450.101)"/></g><g transform="translate(15.17 53.376)"><path class="d" d="M1970.11,418.715a.817.817,0,0,1-.761-1.115l16.2-41.416-3.15-42.727a.817.817,0,1,1,1.63-.12l3.164,42.912a.808.808,0,0,1-.054.358L1970.871,418.2A.817.817,0,0,1,1970.11,418.715Z" transform="translate(-1969.293 -332.58)"/></g><g transform="translate(4.393 31.12)"><path class="c" d="M1937.6,264.583a84.321,84.321,0,0,0-1.276,10.911,23.017,23.017,0,0,0,7.085,6.8,81.455,81.455,0,0,0,8.644-4.676l1.559-11.478S1942.981,264.016,1937.6,264.583Z" transform="translate(-1936.321 -264.487)"/></g><g transform="translate(32.988 90.28)"><path class="c" d="M2031.26,454.219a78.079,78.079,0,0,1-3.546,9.751,10.683,10.683,0,0,1-3.908-8.441c0-4.975,3.123-9.121,7.255-10.04C2031.278,450.261,2031.362,453.46,2031.26,454.219Z" transform="translate(-2023.807 -445.489)"/></g></g><g transform="translate(7.936 129.881)"><path class="c" d="M1920.243,569.15l24.561,9.7-5.668,12.092-21.79-8.691Z" transform="translate(-1916.529 -568.333)"/><path class="d" d="M1937.453,590.075a.813.813,0,0,1-.3-.058l-21.79-8.691a.817.817,0,0,1-.5-.935l2.9-13.1a.817.817,0,0,1,1.1-.584l24.562,9.7a.817.817,0,0,1,.44,1.107l-5.668,12.091A.818.818,0,0,1,1937.453,590.075Zm-20.843-10.01,20.43,8.148,4.972-10.607-22.861-9.028Z" transform="translate(-1914.846 -566.651)"/></g></g><g transform="translate(50.556 154.847)"><g transform="translate(27.411 138.414)"><path class="c" d="M2100.365,594.483l-2.636,25.127,8.6.638,5.823-23.135Z" transform="translate(-2096.911 -593.666)"/><path class="d" d="M2104.644,619.381l-.061,0-8.6-.638a.817.817,0,0,1-.752-.9l2.636-25.127a.818.818,0,0,1,.99-.713l11.784,2.629a.818.818,0,0,1,.615,1l-5.823,23.135A.817.817,0,0,1,2104.644,619.381Zm-7.7-2.207,7.072.525,5.45-21.655L2099.4,593.8Z" transform="translate(-2095.228 -591.983)"/></g><g transform="translate(19.2 160.047)"><g transform="translate(0.817)"><path class="e" d="M2115.937,684.495v3.528h-43.33s0-1.664.141-4.284c.34-6.267,1.491-18.018,5.4-25.569h16A39.193,39.193,0,0,0,2112.04,678a7.373,7.373,0,0,1,3.9,6.491Z" transform="translate(-2072.607 -658.17)"/></g><g transform="translate(0 24.752)"><path class="c" d="M2115.937,737.155v3.528h-43.33s0-1.664.141-4.284H2115.9A7.413,7.413,0,0,1,2115.937,737.155Z" transform="translate(-2071.79 -735.582)"/><path class="d" d="M2114.254,739.817h-43.33a.817.817,0,0,1-.817-.817c0-.069,0-1.716.142-4.328a.817.817,0,0,1,.816-.773h43.149a.817.817,0,0,1,.813.735,8.321,8.321,0,0,1,.044.838V739A.817.817,0,0,1,2114.254,739.817Zm-42.5-1.634h41.685v-2.649h-41.594C2071.789,736.67,2071.764,737.58,2071.752,738.183Z" transform="translate(-2070.107 -733.899)"/></g></g><g transform="translate(0 0)"><g transform="translate(0.826)"><path class="e" d="M2068.956,265.223a78.018,78.018,0,0,1-1.977,10.185c-3.363,14.624-9.851,39.4-9.851,39.4l-21.417-4.156,5.6-48.064s-23.076-38.156-26.014-48.2-.362-27.6-.362-27.6c4.585-25.529,28.911-20.573,33.623-7.838,3.815,10.308,14.753,57.809,18.836,77.68C2068.355,261.31,2068.938,264.456,2068.956,265.223Z" transform="translate(-2013.891 -168.501)"/></g><g transform="translate(0 17.471)"><path class="d" d="M2019.455,264.026a.817.817,0,0,1-.725-.439c-3.2-6.128-5.191-10.5-5.918-12.986-2.955-10.1-.492-27.223-.386-27.947a.817.817,0,0,1,1.617.238c-.026.174-2.517,17.492.338,27.25.7,2.386,2.649,6.655,5.8,12.689a.818.818,0,0,1-.724,1.2Z" transform="translate(-2011.363 -221.955)"/></g><g transform="translate(29.624 93.449)"><path class="d" d="M2112.813,456.841l-.066,0-9.994-.8a.817.817,0,1,1,.13-1.629l9.994.8a.817.817,0,0,1-.064,1.632Z" transform="translate(-2102 -454.411)"/></g><g transform="translate(29.624 25.338)"><path class="d" d="M2110.32,361.243a.833.833,0,0,1-.176-.019.817.817,0,0,1-.623-.973l9.525-43.436-17.024-69.781a.817.817,0,0,1,1.588-.387l17.069,69.964a.81.81,0,0,1,0,.369l-9.566,43.621A.817.817,0,0,1,2110.32,361.243Z" transform="translate(-2102 -246.022)"/><g transform="translate(3.446 1.694)"><path class="d" d="M2113.358,265.269a.817.817,0,0,1-.537-1.433l1.615-1.406a2.606,2.606,0,0,0,.788-2.685l-2.182-7.493a.817.817,0,0,1,1.569-.457l2.182,7.493a4.245,4.245,0,0,1-1.284,4.374l-1.614,1.406A.813.813,0,0,1,2113.358,265.269Z" transform="translate(-2112.541 -251.206)"/></g></g><g transform="translate(10.329 34.358)"><path class="c" d="M2042.965,273.932s.405,3.719,1.064,11.505a23.016,23.016,0,0,0,8.062,5.61,81.534,81.534,0,0,0,7.807-5.97l-.225-10.19S2050.031,272.862,2042.965,273.932Z" transform="translate(-2042.965 -273.62)"/></g><g transform="translate(48.591 88.13)"><path class="c" d="M2167.33,446.73a78.039,78.039,0,0,1-1.977,10.185,10.683,10.683,0,0,1-5.18-7.726c-.778-4.914,1.658-9.5,5.6-11.051C2166.729,442.817,2167.311,445.964,2167.33,446.73Z" transform="translate(-2160.028 -438.138)"/></g></g><g transform="translate(20.348 133.356)"><path class="c" d="M2076.932,579.009l25.776,5.739L2099,597.577l-22.881-5.177Z" transform="translate(-2075.301 -578.192)"/><path class="d" d="M2097.318,596.711a.81.81,0,0,1-.181-.02l-22.881-5.177a.817.817,0,0,1-.635-.847l.813-13.391a.817.817,0,0,1,.993-.748l25.775,5.739a.817.817,0,0,1,.607,1.025L2098.1,596.12A.817.817,0,0,1,2097.318,596.711Zm-22.025-6.638,21.453,4.854L2100,583.673l-23.991-5.342Z" transform="translate(-2073.619 -576.509)"/></g></g><g transform="translate(15.486 99.642)"><path class="c" d="M1941.965,10.843,1927.131,15l5.061-13.327L1921.285.686s-15.667,17.452-14.675,27.169,17.42,9.807,36.26,7.229S1941.965,10.843,1941.965,10.843Z" transform="translate(-1905.748 0.131)"/><path class="d" d="M1923.45,35.654c-7.783,0-13.045-1.211-16.155-3.658a8.116,8.116,0,0,1-3.18-5.741c-1.017-9.963,14.23-27.074,14.88-27.8a.817.817,0,0,1,.682-.268l10.907.992a.817.817,0,0,1,.619.381.817.817,0,0,1,.071.723L1926.789,12.1l13.274-3.723a.817.817,0,0,1,.825.236c.473.519,11.558,12.8,8.825,20.34-1.041,2.87-3.871,4.64-8.414,5.261A134.735,134.735,0,0,1,1923.45,35.654Zm-3.508-35.8c-2.051,2.352-15.076,17.671-14.2,26.235a6.454,6.454,0,0,0,2.565,4.623c4.637,3.648,15.357,4.263,32.772,1.88,3.893-.533,6.281-1.945,7.1-4.2,2.159-5.951-6.358-16.221-8.166-18.308l-14.34,4.022a.817.817,0,0,1-.984-1.077l4.679-12.32Z" transform="translate(-1904.066 1.814)"/></g><g transform="translate(0 59.511)"><g transform="translate(185.293 144.966)"><path class="d" d="M2427.553,318.9l6.065,8.712-10.021-3.592A9.133,9.133,0,0,0,2427.553,318.9Z" transform="translate(-2423.597 -318.904)"/></g><g transform="translate(153.932 117.603)"><g transform="translate(0.031 0.058)"><path class="c" d="M2330.243,258.013l8.423-9.487a.481.481,0,0,0,.043-.057l6.959-10.6,18.51,26.579a8.58,8.58,0,0,1-3.486,4.484Z" transform="translate(-2329.426 -237.048)"/><path class="d" d="M2359.009,268.063a.822.822,0,0,1-.276-.048L2328.284,257.1a.818.818,0,0,1-.335-1.312l8.407-9.469,6.946-10.584a.819.819,0,0,1,.672-.369.808.808,0,0,1,.682.35l18.509,26.579a.817.817,0,0,1,.114.7,9.359,9.359,0,0,1-3.814,4.933A.819.819,0,0,1,2359.009,268.063Zm-29.035-12.094,28.912,10.365a7.715,7.715,0,0,0,2.706-3.439l-17.587-25.253-6.3,9.594a1.343,1.343,0,0,1-.115.149Zm6.369-9.631h0Z" transform="translate(-2327.743 -235.365)"/></g><path class="d" d="M2343.933,236.938l17.958,25.786a8.239,8.239,0,0,1-3.019,3.855l-29.527-10.586,7.941-8.944a1.019,1.019,0,0,0,.087-.113l6.561-10m-.024-1.751-7.357,11.21-8.9,10.029,31.361,11.243a9.133,9.133,0,0,0,3.956-5.12l-19.055-27.363Z" transform="translate(-2327.648 -235.187)"/></g><g transform="translate(25.061 18.882)"><path class="e" d="M1949.838-66.853,2077.7,31.033c2.214,1.7,2.255,5.608.45,9.867a24.928,24.928,0,0,1-7.285,9.515c-3.64,2.853-7.428,3.834-9.642,2.139L1933.362-45.332c1.081.828,3.781-1.239,6.71-4.384a66.151,66.151,0,0,0,7.285-9.515C1949.629-62.88,1950.919-66.025,1949.838-66.853Z" transform="translate(-1933.362 66.853)"/></g><g transform="translate(33.887 37.447)"><path class="d" d="M2087.763,88.492a.814.814,0,0,1-.5-.168L1960.684-8.588a.817.817,0,0,1-.152-1.146.817.817,0,0,1,1.145-.152l126.583,96.911a.817.817,0,0,1-.5,1.466Z" transform="translate(-1960.363 10.054)"/></g><g transform="translate(41.06 27.846)"><path class="d" d="M2110.113,59.427a.812.812,0,0,1-.5-.168L1982.63-37.962a.816.816,0,0,1-.152-1.145.816.816,0,0,1,1.145-.152l126.987,97.22a.817.817,0,0,1-.5,1.466Z" transform="translate(-1982.31 39.428)"/></g><g transform="translate(13.808 10.267)"><path class="f" d="M1915.409-93.212l11.253,8.615c3.107,2.378,1.938,9.125-2.612,15.069s-10.757,8.83-13.864,6.451l-11.253-8.615c3.109,2.38,9.315-.51,13.864-6.451S1918.518-90.832,1915.409-93.212Z" transform="translate(-1898.933 93.212)"/></g><g transform="translate(1.74 0.836)"><path class="c" d="M1880.986-119.566l11.251,8.614c3.109,2.38,1.938,9.125-2.613,15.069s-10.754,8.832-13.864,6.451l-11.251-8.613c3.106,2.378,9.315-.51,13.864-6.452S1884.093-117.187,1880.986-119.566Z" transform="translate(-1863.693 120.383)"/><path class="d" d="M1876.762-89.461a5.116,5.116,0,0,1-3.18-1l-11.251-8.614a.817.817,0,0,1-.152-1.145.817.817,0,0,1,1.146-.152c1.249.956,3.22.886,5.55-.2a20.31,20.31,0,0,0,7.169-6.1c4.2-5.48,5.462-11.854,2.767-13.922l0,0h0a.817.817,0,0,1-.152-1.146.818.818,0,0,1,1.146-.152h0l0,0,11.248,8.611c1.757,1.345,2.423,3.826,1.875,6.987a21.959,21.959,0,0,1-4.335,9.228C1884.931-92.289,1880.325-89.461,1876.762-89.461Zm-10.487-8.656,8.3,6.354c2.7,2.065,8.523-.819,12.719-6.3a20.313,20.313,0,0,0,4.022-8.514c.439-2.531-.007-4.453-1.258-5.41l-8.3-6.353c.544,3.416-1.016,8.211-4.419,12.656a21.941,21.941,0,0,1-7.777,6.59A10.577,10.577,0,0,1,1866.275-98.117Z" transform="translate(-1862.01 122.066)"/></g><g transform="translate(0 0)"><path class="c" d="M1877.405-121.282c3.107,2.379,1.938,9.126-2.612,15.069s-10.757,8.83-13.864,6.452-1.938-9.126,2.611-15.067S1874.3-123.66,1877.405-121.282Z" transform="translate(-1858.372 122.935)"/><path class="d" d="M1861.918-99.8a5.1,5.1,0,0,1-3.171-1.005c-1.756-1.344-2.422-3.825-1.874-6.985a21.948,21.948,0,0,1,4.332-9.227c4.9-6.4,11.492-9.3,15.011-6.606h0c3.519,2.695,2.438,9.817-2.46,16.215a21.942,21.942,0,0,1-7.777,6.59A9.765,9.765,0,0,1,1861.918-99.8Zm11.119-23.195c-3,0-7.262,2.7-10.535,6.971a20.306,20.306,0,0,0-4.02,8.513c-.438,2.531.008,4.452,1.258,5.409s3.22.886,5.549-.2a20.31,20.31,0,0,0,7.169-6.1c4.2-5.482,5.462-11.858,2.764-13.924h0A3.519,3.519,0,0,0,1873.037-122.992Z" transform="translate(-1856.686 124.624)"/></g></g><g transform="translate(40.574 100.779)"><path class="f" d="M2020.433,1.824C2010.559,3.1,1982.18,12.85,1982.18,12.85s-6.148,16.064,7.734,24.789c0,0,23.8-5.751,32.524-9.916S2038.259-.476,2020.433,1.824Z" transform="translate(-1980.824 -1.669)"/></g><g transform="translate(91.871 91.636)"><path class="c" d="M2140.268-15.147l5.976-8.757,5.924,1.551-3.76,11.018Z" transform="translate(-2139.451 24.721)"/><path class="d" d="M2146.725-12.2a.817.817,0,0,1-.346-.077l-8.139-3.812a.817.817,0,0,1-.442-.524.817.817,0,0,1,.113-.676l5.976-8.758a.817.817,0,0,1,.882-.33l5.924,1.552a.82.82,0,0,1,.513.4.819.819,0,0,1,.053.651l-3.76,11.018a.817.817,0,0,1-.454.488A.818.818,0,0,1,2146.725-12.2Zm-6.923-4.962,6.444,3.018,3.182-9.324-4.517-1.183Z" transform="translate(-2137.768 26.405)"/></g><g transform="translate(97.271 76.019)"><g transform="translate(3.248 3.25)"><path class="c" d="M2166.726-49.713c-.107,1.249,2.679,11.23,9.375,9.994s9.994-15.248,6.9-18.751S2168.169-66.609,2166.726-49.713Z" transform="translate(-2165.907 62.64)"/><path class="d" d="M2173.277-40.478a6.818,6.818,0,0,1-4.665-1.924c-3.088-2.8-4.481-7.888-4.381-9.064l.814.069-.814-.069c.739-8.658,4.158-11.552,6.9-12.457,4.206-1.388,8.936,1.105,10.809,3.228,2.074,2.351,1.542,7.7.168,11.672-1.648,4.773-4.4,7.843-7.536,8.423A7.125,7.125,0,0,1,2173.277-40.478Zm-7.418-10.851a14.291,14.291,0,0,0,3.939,7.795,5.119,5.119,0,0,0,4.474,1.328c2.508-.463,4.858-3.211,6.288-7.35,1.424-4.122,1.49-8.539.151-10.057-1.648-1.868-5.718-3.865-9.071-2.758C2168.384-61.3,2166.385-57.477,2165.859-51.329Z" transform="translate(-2164.226 64.324)"/></g><g transform="translate(0 0)"><path class="d" d="M2154.545-57.471a11.691,11.691,0,0,0,6.079,2.679l2.679-2.267s-1.648-6.388,1.649-7.315,4.533,3.091,3.606,5.975,8.242,2.988,10.1-1.545-2.369-8.036-2.369-8.036-1.443-6.388-10.612-6.285S2153.309-66.228,2154.545-57.471Z" transform="translate(-2154.29 74.266)"/></g></g><g transform="translate(22.669 98.142)"><g transform="translate(63.02 0)"><path class="c" d="M2121.355-1.781s5.873-3.709,11.643-.927a8.978,8.978,0,0,1,5.357,8.345Z" transform="translate(-2120.538 4.568)"/><path class="d" d="M2136.672,4.754a.82.82,0,0,1-.327-.068l-17-7.418a.818.818,0,0,1-.488-.687.818.818,0,0,1,.379-.753c.255-.161,6.325-3.917,12.434-.972A9.724,9.724,0,0,1,2137.487,4a.817.817,0,0,1-.815.757ZM2121.6-3.532l14.189,6.192a8.2,8.2,0,0,0-4.828-6.332C2127.326-5.424,2123.6-4.376,2121.6-3.532Z" transform="translate(-2118.855 6.268)"/></g><g transform="translate(0 2.268)"><path class="f" d="M1926.042,75.175s33.816-1.331,71.094,15.976c0,0,1.331-25.562,1.864-34.615,0,0,13.313-6.923,14.645-9.053s-1.864-32.485-3.2-37.81-16.775-10.651-26.893-8.521S1946.811,20.59,1926.042,75.175Z" transform="translate(-1926.042 -0.671)"/></g><g transform="translate(22.638 1.932)"><path class="d" d="M1996.119,30.1a.817.817,0,0,1-.663-1.293C2009.105,9.79,2022.6,1.22,2030.011-.34a.817.817,0,0,1,.337,1.6c-7.123,1.5-20.187,9.864-33.564,28.5A.817.817,0,0,1,1996.119,30.1Z" transform="translate(-1995.302 0.358)"/></g><g transform="translate(3.192 72.155)"><path class="d" d="M2001.51,231.566a.814.814,0,0,1-.41-.11c-25.686-14.914-64.094-15.324-64.479-15.327a.817.817,0,0,1,0-1.634h.005c.389,0,39.232.418,65.289,15.548a.817.817,0,0,1-.411,1.524Z" transform="translate(-1935.809 -214.494)"/></g></g><g transform="translate(59.47 68.053)"><g transform="translate(0 0)"><path class="d" d="M2076.43-89.173s-2.782-10.715-12.26-9.376-11.642,12.776-11.127,20.4-6.7,8.86-11.23,9.067-6.491,16.587,10.2,15.248,16.279-16.175,16.794-23.7,3.5-9.376,7.212-8.242S2076.43-89.173,2076.43-89.173Z" transform="translate(-2038.637 98.664)"/></g><g transform="translate(34.876 8.719)"><path class="c" d="M2149.88-69.111l-1.854,2.6a.925.925,0,0,0,.2,1.277l2.023,1.524a.925.925,0,0,0,1.331-.232l1.815-2.769a.925.925,0,0,0-.253-1.272l-1.984-1.351A.926.926,0,0,0,2149.88-69.111Z" transform="translate(-2147.033 70.313)"/><path class="d" d="M2149.114-64.387a1.75,1.75,0,0,1-1.051-.351l-2.023-1.524a1.733,1.733,0,0,1-.369-2.4l1.854-2.6a1.753,1.753,0,0,1,2.4-.428l1.985,1.351a1.751,1.751,0,0,1,.477,2.4l-1.815,2.769a1.749,1.749,0,0,1-1.159.761A1.714,1.714,0,0,1,2149.114-64.387Zm-.172-5.971a.108.108,0,0,0-.088.045h0l-1.854,2.6a.108.108,0,0,0,.023.149l2.023,1.525a.1.1,0,0,0,.083.02.1.1,0,0,0,.072-.047l1.815-2.769a.108.108,0,0,0-.03-.149L2149-70.339A.1.1,0,0,0,2148.942-70.357Zm-.753-.429h0Z" transform="translate(-2145.343 71.988)"/></g></g><g transform="translate(90.734 104.005)"><g transform="translate(1.56 0)"><path class="c" d="M2210.736,95.421a1.352,1.352,0,0,1-1.56.2l-2.2-1.2c.525,1.776.883,3.187.966,3.687.257,1.549.68,11.73-.861,12.417s-4.378-8.307-4.378-8.307.688,5.829,0,6.342-10.116-3.256-11.318-4.8-2.912-8.745-2.912-9.943.286-8.647.286-8.647-21.773-11.144-23.832-13.029-15.775-23.318-20.916-34.462-2.428-27.674,9.157-22.41c10.492,4.765,26.842,44.133,26.842,44.133s20.131,21.162,22.454,24c.474.579,8.354,10.131,8.354,10.131A1.349,1.349,0,0,1,2210.736,95.421Z" transform="translate(-2140.716 -13.432)"/><path class="d" d="M2205.252,109.678a1.374,1.374,0,0,1-.566-.126c-.854-.385-1.758-1.949-2.544-3.721-.108,1.312-.424,1.548-.6,1.683-.3.221-.911.684-6.266-1.528-1.56-.645-5.285-2.268-6.186-3.427-1.321-1.7-3.085-9.1-3.085-10.444,0-1.03.2-6.431.267-8.157-3.706-1.9-21.572-11.107-23.548-12.916-2.237-2.048-16.064-23.793-21.106-34.723-3.705-8.027-3.326-18.339.828-22.517,1.642-1.651,4.607-3.162,9.41-.979,10.45,4.746,25.952,41.436,27.2,44.423,1.735,1.824,20.136,21.183,22.39,23.939.46.561,8.008,9.711,8.341,10.115a2.174,2.174,0,0,1-.141,3.023l-.006.005a2.208,2.208,0,0,1-2.5.313l-.5-.274c.23.854.4,1.545.456,1.9a52.566,52.566,0,0,1,.255,6.682c-.1,5.237-.824,6.275-1.589,6.616A1.248,1.248,0,0,1,2205.252,109.678Zm-.234-1.552ZM2201.05,99.7a.817.817,0,0,1,.779.572c1.119,3.55,2.563,6.833,3.33,7.632.754-1.638.665-9.3.324-11.363-.075-.449-.423-1.826-.943-3.589a.817.817,0,0,1,1.175-.949l2.2,1.2a.55.55,0,0,0,.613-.078.533.533,0,0,0,.03-.743l-.025-.029c-.079-.1-7.887-9.559-8.357-10.133-2.277-2.785-22.212-23.745-22.413-23.957a.829.829,0,0,1-.162-.25c-.162-.391-16.344-39.125-26.426-43.7-3.171-1.44-5.719-1.224-7.575.644-3.656,3.677-3.891,13.341-.5,20.68,5.207,11.286,18.944,32.571,20.726,34.2,1.451,1.328,14.94,8.445,23.653,12.9a.817.817,0,0,1,.445.759c0,.075-.285,7.444-.285,8.616,0,1.055,1.69,8.088,2.74,9.441.854,1.1,8.132,4.16,10.114,4.5a30.669,30.669,0,0,0-.252-5.447.817.817,0,0,1,.812-.913Zm-.629,6.662Zm.409-.272Zm8.256-12.364h0Z" transform="translate(-2139.064 -11.737)"/></g><g transform="translate(0 0.293)"><g transform="translate(0.817)"><path class="f" d="M2151.773,59.887a14.627,14.627,0,0,0,14.137-.738c7.13-4.548,6.269-12.662,6.269-12.662s-11.433-27.045-19.915-31.839-15.095-.778-15.464,9.3C2136.315,37.238,2151.773,59.887,2151.773,59.887Z" transform="translate(-2136.79 -12.633)"/></g><g transform="translate(15.418 30.943)"><path class="d" d="M2186.677,121.287a15.929,15.929,0,0,1-4.656-.673.817.817,0,0,1,.517-1.55c.091.029,6.113,1.952,10.877-1.42a10.937,10.937,0,0,0,4.483-9.439.817.817,0,1,1,1.625-.171,12.449,12.449,0,0,1-5.164,10.943A13.155,13.155,0,0,1,2186.677,121.287Z" transform="translate(-2181.462 -107.304)"/></g><g transform="translate(0 1.594)"><path class="d" d="M2148.11,60.925a.815.815,0,0,1-.693-.384c-4.072-6.5-13.5-22.767-13.115-33.338.148-4.048,1.283-7.311,3.283-9.437a.817.817,0,0,1,1.19,1.12c-1.725,1.833-2.707,4.73-2.84,8.377-.37,10.118,8.875,26.036,12.866,32.41a.818.818,0,0,1-.692,1.251Z" transform="translate(-2134.291 -17.509)"/></g></g></g><g transform="translate(37.183 11.925)"><g transform="translate(0 0)"><g transform="translate(5.563 0)"><path class="d" d="M1988.285-265.539a.817.817,0,0,1-.817-.817v-3.688a.817.817,0,0,1,.817-.817.817.817,0,0,1,.817.817v3.688A.818.818,0,0,1,1988.285-265.539Z" transform="translate(-1987.468 270.862)"/></g><g transform="translate(7.437 5.563)"><path class="d" d="M1997.708-252.209h-3.688a.817.817,0,0,1-.817-.817.817.817,0,0,1,.817-.817h3.688a.817.817,0,0,1,.817.817A.817.817,0,0,1,1997.708-252.209Z" transform="translate(-1993.202 253.843)"/></g><g transform="translate(5.563 7.437)"><path class="d" d="M1988.285-242.785a.817.817,0,0,1-.817-.817v-3.688a.817.817,0,0,1,.817-.817.817.817,0,0,1,.817.817v3.688A.817.817,0,0,1,1988.285-242.785Z" transform="translate(-1987.468 248.108)"/></g><g transform="translate(0 5.563)"><path class="d" d="M1974.954-252.209h-3.688a.817.817,0,0,1-.817-.817.817.817,0,0,1,.817-.817h3.688a.817.817,0,0,1,.817.817A.817.817,0,0,1,1974.954-252.209Z" transform="translate(-1970.448 253.843)"/></g></g><g transform="translate(345.081 271.722)"><g transform="translate(5.563)"><path class="d" d="M3044.074,567.889a.817.817,0,0,1-.817-.817v-3.688a.817.817,0,1,1,1.634,0v3.688A.817.817,0,0,1,3044.074,567.889Z" transform="translate(-3043.257 -562.567)"/></g><g transform="translate(7.437 5.563)"><path class="d" d="M3053.5,581.22h-3.688a.817.817,0,0,1,0-1.634h3.688a.817.817,0,1,1,0,1.634Z" transform="translate(-3048.992 -579.586)"/></g><g transform="translate(5.563 7.437)"><path class="d" d="M3044.074,590.644a.817.817,0,0,1-.817-.817v-3.688a.817.817,0,1,1,1.634,0v3.688A.817.817,0,0,1,3044.074,590.644Z" transform="translate(-3043.257 -585.321)"/></g><g transform="translate(0 5.563)"><path class="d" d="M3030.743,581.22h-3.688a.817.817,0,1,1,0-1.634h3.688a.817.817,0,0,1,0,1.634Z" transform="translate(-3026.237 -579.586)"/></g></g><g transform="translate(11.943 47.535)"><circle class="e" cx="1.639" cy="1.639" r="1.639"/></g><g transform="translate(330.715 251.603)"><circle class="f" cx="2.894" cy="2.894" r="2.894"/></g></g></g></g></svg>