<svg xmlns="http://www.w3.org/2000/svg" xmlns:xlink="http://www.w3.org/1999/xlink" width="584" height="438" viewBox="0 0 584 438"><defs><style>.a,.e{fill:#fff;}.a{stroke:#707070;}.b{clip-path:url(#a);}.c{fill:#c31e23;}.d{fill:#343d45;}.f{fill:#2a2929;}</style><clipPath id="a"><rect class="a" width="584" height="438" transform="translate(-7232 1425)"/></clipPath></defs><g class="b" transform="translate(7232 -1425)"><g transform="translate(-44.43 -88.296)"><g transform="translate(-7087.57 1524.296)"><path class="c" d="M2702.452-117.778a39.657,39.657,0,0,0,.768-7.83,39.732,39.732,0,0,0-.768-7.837h-11.088a29.07,29.07,0,0,0-2.769-6.678l7.844-7.845a40.234,40.234,0,0,0-11.08-11.073l-7.845,7.844a28.747,28.747,0,0,0-6.678-2.77V-165.06a39.642,39.642,0,0,0-7.83-.768,39.717,39.717,0,0,0-7.837.768v11.095a28.943,28.943,0,0,0-6.67,2.77l-7.852-7.844a40.1,40.1,0,0,0-11.073,11.073l7.844,7.852a29.141,29.141,0,0,0-2.77,6.67h-11.095a39.713,39.713,0,0,0-.768,7.837,39.639,39.639,0,0,0,.768,7.83h11.095a28.751,28.751,0,0,0,2.77,6.678l-7.844,7.845a40.228,40.228,0,0,0,11.073,11.08l7.852-7.845a28.945,28.945,0,0,0,6.67,2.77v11.087a39.727,39.727,0,0,0,7.837.768,39.651,39.651,0,0,0,7.83-.768V-97.25a28.75,28.75,0,0,0,6.678-2.77l7.845,7.845a40.337,40.337,0,0,0,11.08-11.073l-7.844-7.845a29.263,29.263,0,0,0,2.769-6.685Zm-39.445,6.323a14.154,14.154,0,0,1-14.152-14.153,14.154,14.154,0,0,1,14.152-14.153,14.154,14.154,0,0,1,14.153,14.153A14.154,14.154,0,0,1,2663.007-111.455Z" transform="translate(-2412.887 323.883)"/><path class="d" d="M2147.308-843.167a47.987,47.987,0,0,0-24.324,6.589l0-.011a78.723,78.723,0,0,0-76.689-60.937A78.7,78.7,0,0,0,1967.6-819.6h-.012a36.447,36.447,0,0,0-36.447,36.446,36.447,36.447,0,0,0,36.447,36.446c.042,0,.082,0,.124,0h179.471c.042,0,.082,0,.123,0a48.229,48.229,0,0,0,48.229-48.229A48.229,48.229,0,0,0,2147.308-843.167Z" transform="translate(-1825.788 944.981)"/><path class="e" d="M4.7,0h67.38a4.7,4.7,0,0,1,4.7,4.7h0a4.7,4.7,0,0,1-4.7,4.7H4.7A4.7,4.7,0,0,1,0,4.7H0A4.7,4.7,0,0,1,4.7,0Z" transform="translate(258.889 137.665)"/><path class="e" d="M4.7,0h0a4.7,4.7,0,0,1,4.7,4.7h0a4.7,4.7,0,0,1-4.7,4.7h0A4.7,4.7,0,0,1,0,4.7H0A4.7,4.7,0,0,1,4.7,0Z" transform="translate(242.336 137.665)"/><path class="e" d="M4.7,0h67.38a4.7,4.7,0,0,1,4.7,4.7h0a4.7,4.7,0,0,1-4.7,4.7H4.7A4.7,4.7,0,0,1,0,4.7H0A4.7,4.7,0,0,1,4.7,0Z" transform="translate(258.889 159.43)"/><path class="d" d="M2375.887,241.526a.441.441,0,0,1-.441-.441V216.626a.438.438,0,0,1,.129-.312L2392.59,199.3a.441.441,0,0,1,.623.623l-16.885,16.885v24.276A.441.441,0,0,1,2375.887,241.526Z" transform="translate(-2202.933 14.055)"/><path class="d" d="M4.477,0A4.477,4.477,0,1,1,0,4.477,4.477,4.477,0,0,1,4.477,0Z" transform="translate(168.478 255.14)"/><path class="d" d="M3302.382,241.526a.441.441,0,0,1-.44-.441V216.808l-16.885-16.885a.441.441,0,0,1,.623-.623l17.014,17.014a.44.44,0,0,1,.13.312v24.459A.441.441,0,0,1,3302.382,241.526Z" transform="translate(-2974.94 14.055)"/><path class="d" d="M4.477,0A4.477,4.477,0,1,1,0,4.477,4.477,4.477,0,0,1,4.477,0Z" transform="translate(322.966 255.14)"/><path class="d" d="M3408.88-791.675a.437.437,0,0,1-.311-.129.44.44,0,0,1,0-.624l16.884-16.885v-15.322a.441.441,0,0,1,.441-.441.441.441,0,0,1,.44.441v15.5a.442.442,0,0,1-.129.312L3409.191-791.8A.44.44,0,0,1,3408.88-791.675Z" transform="translate(-3079.784 883.482)"/><path class="d" d="M4.477,0A4.477,4.477,0,1,1,0,4.477,4.477,4.477,0,0,1,4.477,0Z" transform="translate(341.635 49.892)"/><path class="d" d="M2021.375-746.493a.44.44,0,0,1-.312-.129l-17.014-17.015a.441.441,0,0,1-.129-.312v-15.5a.44.44,0,0,1,.441-.441.441.441,0,0,1,.441.441v15.322l16.885,16.885a.441.441,0,0,1,0,.623A.439.439,0,0,1,2021.375-746.493Z" transform="translate(-1887.564 845.129)"/><path class="d" d="M4.477,0A4.477,4.477,0,1,1,0,4.477,4.477,4.477,0,0,1,4.477,0Z" transform="translate(112.32 56.722)"/><path class="c" d="M3.849,0H40.066a3.849,3.849,0,0,1,3.849,3.849V24.114a3.849,3.849,0,0,1-3.849,3.849H3.849A3.849,3.849,0,0,1,0,24.114V3.849A3.849,3.849,0,0,1,3.849,0Z" transform="translate(181.463 273.678)"/><path class="e" d="M.323,0H20.588a.323.323,0,0,1,.323.323V36.54a.323.323,0,0,1-.323.323H.323A.323.323,0,0,1,0,36.54V.323A.323.323,0,0,1,.323,0Z" transform="translate(221.851 277.204) rotate(90)"/><path class="c" d="M1.763,0h0A1.763,1.763,0,0,1,3.526,1.763V49.274a1.763,1.763,0,0,1-1.763,1.763h0A1.763,1.763,0,0,1,0,49.274V1.763A1.763,1.763,0,0,1,1.763,0Z" transform="translate(228.938 301.641) rotate(90)"/><path class="c" d="M3.849,0H40.066a3.849,3.849,0,0,1,3.849,3.849V24.114a3.849,3.849,0,0,1-3.849,3.849H3.849A3.849,3.849,0,0,1,0,24.114V3.849A3.849,3.849,0,0,1,3.849,0Z" transform="translate(315.116 319.509) rotate(-90)"/><path class="e" d="M2.234,0h0A2.234,2.234,0,0,1,4.468,2.234v15.56a2.234,2.234,0,0,1-2.234,2.234h0A2.234,2.234,0,0,1,0,17.794V2.234A2.234,2.234,0,0,1,2.234,0Z" transform="translate(319.082 286.293) rotate(-90)"/><path class="e" d="M2.234,0h0A2.234,2.234,0,0,1,4.468,2.234v15.56a2.234,2.234,0,0,1-2.234,2.234h0A2.234,2.234,0,0,1,0,17.794V2.234A2.234,2.234,0,0,1,2.234,0Z" transform="translate(319.082 294.148) rotate(-90)"/><path class="e" d="M2.724,0A2.724,2.724,0,1,1,0,2.724,2.724,2.724,0,0,1,2.724,0Z" transform="translate(326.372 306.833)"/><path class="c" d="M3.849,0H40.066a3.849,3.849,0,0,1,3.849,3.849V24.114a3.849,3.849,0,0,1-3.849,3.849H3.849A3.849,3.849,0,0,1,0,24.114V3.849A3.849,3.849,0,0,1,3.849,0Z" transform="translate(333.064 43.915) rotate(-90)"/><path class="e" d="M.323,0h30.4a.323.323,0,0,1,.323.323V20.588a.323.323,0,0,1-.323.323H.323A.323.323,0,0,1,0,20.588V.323A.323.323,0,0,1,.323,0Z" transform="translate(357.501 3.526) rotate(90)"/><path class="e" d="M2.724,0A2.724,2.724,0,1,1,0,2.724,2.724,2.724,0,0,1,2.724,0Z" transform="translate(344.322 36.688)"/><path class="c" d="M3.978,0H21.154a3.978,3.978,0,0,1,3.978,3.978V21.154a3.978,3.978,0,0,1-3.978,3.978H3.978A3.978,3.978,0,0,1,0,21.154V3.978A3.978,3.978,0,0,1,3.978,0Z" transform="translate(105.639 21.958)"/><path class="d" d="M3.978,0H21.154a3.978,3.978,0,0,1,3.978,3.978h0a3.978,3.978,0,0,1-3.978,3.978H3.978A3.978,3.978,0,0,1,0,3.978H0A3.978,3.978,0,0,1,3.978,0Z" transform="translate(135.905 24.263)"/><path class="d" d="M3.978,0h8.068a3.978,3.978,0,0,1,3.978,3.978h0a3.978,3.978,0,0,1-3.978,3.978H3.978A3.978,3.978,0,0,1,0,3.978H0A3.978,3.978,0,0,1,3.978,0Z" transform="translate(135.905 36.828)"/><path class="d" d="M3528.017,349.772a3.58,3.58,0,1,1,3.58-3.58A3.584,3.584,0,0,1,3528.017,349.772Zm0-6.279a2.7,2.7,0,1,0,2.7,2.7A2.7,2.7,0,0,0,3528.017,343.493Z" transform="translate(-3178.246 -107.704)"/><path class="d" d="M2552.617-1095.391a3.584,3.584,0,0,1-3.581-3.58,3.584,3.584,0,0,1,3.581-3.58,3.584,3.584,0,0,1,3.58,3.58A3.584,3.584,0,0,1,2552.617-1095.391Zm0-6.279a2.7,2.7,0,0,0-2.7,2.7,2.7,2.7,0,0,0,2.7,2.7,2.7,2.7,0,0,0,2.7-2.7A2.7,2.7,0,0,0,2552.617-1101.669Z" transform="translate(-2350.283 1119.015)"/><path class="d" d="M2.25,0A2.25,2.25,0,1,1,0,2.25,2.25,2.25,0,0,1,2.25,0Z" transform="translate(306.442 61.651)"/><path class="d" d="M1917.744-678.5h-3.826a.441.441,0,0,1-.441-.441.441.441,0,0,1,.441-.441h3.826a.441.441,0,0,1,.441.441A.441.441,0,0,1,1917.744-678.5Z" transform="translate(-1810.792 759.806)"/><path class="d" d="M1872.6-678.5h-3.827a.441.441,0,0,1-.44-.441.441.441,0,0,1,.44-.441h3.827a.441.441,0,0,1,.441.441A.441.441,0,0,1,1872.6-678.5Z" transform="translate(-1772.475 759.806)"/><path class="d" d="M1904.006-664.756a.441.441,0,0,1-.441-.441v-3.826a.441.441,0,0,1,.441-.441.441.441,0,0,1,.441.441v3.826A.441.441,0,0,1,1904.006-664.756Z" transform="translate(-1802.377 751.391)"/><path class="d" d="M1904.006-709.9a.441.441,0,0,1-.441-.441v-3.826a.441.441,0,0,1,.441-.441.441.441,0,0,1,.441.441v3.826A.441.441,0,0,1,1904.006-709.9Z" transform="translate(-1802.377 789.707)"/><path class="d" d="M3022.593-1036.639h-3.826a.441.441,0,0,1-.44-.441.44.44,0,0,1,.44-.441h3.826a.441.441,0,0,1,.441.441A.441.441,0,0,1,3022.593-1036.639Z" transform="translate(-2748.637 1063.815)"/><path class="d" d="M2977.454-1036.639h-3.826a.441.441,0,0,1-.441-.441.441.441,0,0,1,.441-.441h3.826a.441.441,0,0,1,.441.441A.441.441,0,0,1,2977.454-1036.639Z" transform="translate(-2710.321 1063.815)"/><path class="d" d="M3008.854-1022.9a.44.44,0,0,1-.44-.441v-3.826a.44.44,0,0,1,.44-.441.441.441,0,0,1,.441.441v3.826A.441.441,0,0,1,3008.854-1022.9Z" transform="translate(-2740.223 1055.401)"/><path class="d" d="M3008.854-1068.04a.44.44,0,0,1-.44-.441v-3.827a.44.44,0,0,1,.44-.441.441.441,0,0,1,.441.441v3.827A.441.441,0,0,1,3008.854-1068.04Z" transform="translate(-2740.223 1093.717)"/><path class="d" d="M3746.017,98.224h-4.451a.441.441,0,0,1,0-.882h4.451a.441.441,0,1,1,0,.882Z" transform="translate(-3362.182 100.492)"/><path class="d" d="M3693.51,98.224h-4.451a.441.441,0,1,1,0-.882h4.451a.441.441,0,0,1,0,.882Z" transform="translate(-3317.611 100.492)"/><path class="d" d="M3730.035,114.206a.441.441,0,0,1-.44-.441v-4.451a.441.441,0,0,1,.882,0v4.451A.441.441,0,0,1,3730.035,114.206Z" transform="translate(-3352.394 90.704)"/><path class="d" d="M3730.035,61.7a.441.441,0,0,1-.44-.441V56.807a.441.441,0,0,1,.882,0v4.451A.441.441,0,0,1,3730.035,61.7Z" transform="translate(-3352.394 135.274)"/><path class="e" d="M2188.856,1211.8l6.926,24.521,8.292-2.617-3.2-23.848Z" transform="translate(-2044.547 -843.858)"/><path class="f" d="M2192.156,1233.337a.647.647,0,0,1-.622-.47l-6.926-24.521a.646.646,0,0,1,.519-.813l12.021-1.944a.645.645,0,0,1,.743.552l3.2,23.848a.646.646,0,0,1-.446.7l-8.292,2.618A.644.644,0,0,1,2192.156,1233.337Zm-6.107-24.645,6.547,23.182,7.139-2.253-3.036-22.652Z" transform="translate(-2040.919 -840.23)"/><path class="d" d="M2214.752,1360.557v3.558h-43.7s0-1.679.143-4.32c.343-6.32,1.5-18.172,5.448-25.787h16.132a39.528,39.528,0,0,0,18.047,20,7.439,7.439,0,0,1,3.93,6.547Z" transform="translate(-2029.432 -949.244)"/><path class="e" d="M2214.752,1505.37v3.558h-43.7s0-1.678.143-4.32h43.517A7.478,7.478,0,0,1,2214.752,1505.37Z" transform="translate(-2029.432 -1094.058)"/><path class="f" d="M2211.125,1505.946h-43.7a.646.646,0,0,1-.646-.646c0-.017,0-1.726.143-4.355a.646.646,0,0,1,.645-.611h43.518a.646.646,0,0,1,.642.581,8.187,8.187,0,0,1,.044.827v3.558A.646.646,0,0,1,2211.125,1505.946Zm-43.046-1.292h42.4v-2.912c0-.039,0-.077,0-.116h-42.3C2168.115,1502.977,2168.089,1504.028,2168.078,1504.654Z" transform="translate(-2025.806 -1090.43)"/><path class="d" d="M1895.65,336.7l-28.422-141.091h-36.042v41.956L1879,338.905Z" transform="translate(-1740.941 17.081)"/><path class="f" d="M2013.1,243.863h-2.373a8.551,8.551,0,0,1-8.419-7.032l-.587-3.245a.511.511,0,0,1,1.007-.182l.587,3.245a7.529,7.529,0,0,0,7.413,6.191h2.373a.512.512,0,0,1,0,1.023Z" transform="translate(-1885.688 -14.646)"/><path class="e" d="M8.9,0c4.916,0,8.9,5.973,8.9,13.34S13.818,26.68,8.9,26.68,0,20.707,0,13.34,3.985,0,8.9,0Z" transform="translate(119.59 274.556) rotate(-12.735)"/><path class="f" d="M1908.977,516.206a.511.511,0,0,1-.472-.315l-42.059-101.2a.511.511,0,0,1,.944-.393l42.059,101.2a.511.511,0,0,1-.472.708Z" transform="translate(-1770.835 -168.29)"/><path class="c" d="M2140.47,1125.358l-17.241,3.009a2.763,2.763,0,0,1-3.067-1.765l-4.663-12.639a2.762,2.762,0,0,1,2.117-3.678l19.626-3.425a2.763,2.763,0,0,1,3.2,2.247l2.278,13.055A2.763,2.763,0,0,1,2140.47,1125.358Z" transform="translate(-1982.13 -756.396)"/><path class="e" d="M1420.834,1211.8l-6.926,24.521-8.292-2.617,3.2-23.848Z" transform="translate(-1379.697 -843.858)"/><path class="f" d="M1410.28,1233.337a.642.642,0,0,1-.194-.03l-8.292-2.618a.646.646,0,0,1-.446-.7l3.2-23.848a.645.645,0,0,1,.744-.552l12.021,1.944a.646.646,0,0,1,.519.813l-6.926,24.521a.646.646,0,0,1-.622.47Zm-7.579-3.716,7.139,2.253,6.548-23.182-10.65-1.723Z" transform="translate(-1376.07 -840.23)"/><path class="d" d="M1238.411,1360.557v3.558h43.7s0-1.679-.142-4.32c-.343-6.32-1.5-18.172-5.448-25.787h-16.132a39.532,39.532,0,0,1-18.048,20,7.449,7.449,0,0,0-3.89,5.784A7.544,7.544,0,0,0,1238.411,1360.557Z" transform="translate(-1237.766 -949.244)"/><path class="e" d="M1238.411,1505.37v3.558h43.7s0-1.678-.142-4.32h-43.517A7.548,7.548,0,0,0,1238.411,1505.37Z" transform="translate(-1237.766 -1094.058)"/><path class="f" d="M1278.484,1505.946h-43.7a.646.646,0,0,1-.646-.646v-3.558a8.184,8.184,0,0,1,.043-.828.647.647,0,0,1,.643-.581h43.517a.646.646,0,0,1,.645.611c.141,2.629.143,4.338.143,4.355A.646.646,0,0,1,1278.484,1505.946Zm-43.054-1.292h42.4c-.011-.626-.037-1.677-.1-3.028h-42.3c0,.039,0,.078,0,.116Z" transform="translate(-1234.138 -1090.43)"/><path class="d" d="M1441.767,336.7l26.612-141.091h37.851l-4.183,44.4-43.626,98.9Z" transform="translate(-1410.384 17.081)"/><path class="f" d="M1609.905,243.864h-2.373a.512.512,0,0,1,0-1.023h2.373a7.529,7.529,0,0,0,7.413-6.191l.587-3.245a.511.511,0,0,1,1.007.182l-.588,3.245A8.551,8.551,0,0,1,1609.905,243.864Z" transform="translate(-1550.657 -14.648)"/><path class="e" d="M13.34,0c7.367,0,13.34,3.985,13.34,8.9s-5.973,8.9-13.34,8.9S0,13.818,0,8.9,5.973,0,13.34,0Z" transform="translate(43.257 296.655) rotate(-77.265)"/><path class="f" d="M1548.508,332.026a.512.512,0,0,1-.472-.708l42.02-101.1v-32.7a.511.511,0,1,1,1.023,0v32.8a.508.508,0,0,1-.039.2l-42.059,101.2A.512.512,0,0,1,1548.508,332.026Z" transform="translate(-1500.556 15.891)"/><path class="f" d="M1792.138,233.535a.509.509,0,0,1-.338-.128l-2.818-2.485a10.405,10.405,0,0,1-3.521-7.8V206.514a.511.511,0,1,1,1.023,0v16.608a9.381,9.381,0,0,0,3.175,7.034l2.817,2.485a.511.511,0,0,1-.339.895Z" transform="translate(-1702.126 8.257)"/><path class="c" d="M1404.641,1124.9l17.218,3.141a2.763,2.763,0,0,0,3.08-1.742l4.76-12.6a2.763,2.763,0,0,0-2.089-3.694l-19.6-3.575a2.763,2.763,0,0,0-3.214,2.222l-2.378,13.038A2.762,2.762,0,0,0,1404.641,1124.9Z" transform="translate(-1376.945 -756.025)"/><path class="f" d="M1955.358-524.9c-4.616,1.057-2.473,10.648-1.374,13.757s-2.342,10.941,2.752,14.557-6.982,12.963,5.164,26.494c9.361,10.428,28.938,6.822,27.89-3.02s-15.4-16.608-16.247-25.622c-.538-5.736,3.069-13.328-5.6-17.675C1961.477-519.657,1959-525.739,1955.358-524.9Z" transform="translate(-1843.932 628.749)"/><path class="e" d="M1413.283-105.508l-12.158,9.873a8.051,8.051,0,0,0-1.978,10.135c4.548,8.259,14.065,22.839,27.7,29.949l2.073-7.583-10.335-22.737,9.657-5.47Z" transform="translate(-1373.356 272.68)"/><path class="f" d="M1424.128-57.776a.482.482,0,0,1-.223-.055c-13.787-7.191-23.395-21.973-27.895-30.144a8.528,8.528,0,0,1,2.1-10.742l12.158-9.873a.482.482,0,0,1,.635.024L1425.854-94.4a.483.483,0,0,1,.147.408.482.482,0,0,1-.241.361l-9.273,5.253,10.153,22.336a.482.482,0,0,1,.026.327l-2.073,7.583a.482.482,0,0,1-.272.315A.479.479,0,0,1,1424.128-57.776Zm-13.584-49.8-11.83,9.606a7.565,7.565,0,0,0-1.86,9.529c4.389,7.97,13.687,22.3,26.967,29.473l1.868-6.834-10.263-22.579a.482.482,0,0,1,.2-.619l9.091-5.149Z" transform="translate(-1370.642 275.387)"/><path class="c" d="M1516.454-281.571l-30.993,25.45s.9,15.5,16.278,17.828l14.082-8.01Z" transform="translate(-1447.473 422.13)"/><path class="f" d="M1527.036-98.786a.509.509,0,0,1-.251-.067,26.633,26.633,0,0,1-12.215-15.385.511.511,0,0,1,.371-.62.512.512,0,0,1,.621.371,26.083,26.083,0,0,0,11.728,14.745.511.511,0,0,1,.193.7A.512.512,0,0,1,1527.036-98.786Z" transform="translate(-1472.168 280.63)"/><path class="c" d="M1597.212-226.223s36.235,6.122,74.524-1.359l-10.026-34.3,2.067-41.905-52.462,3.359s-8.774,16.278-8.774,21.445,5.685,17.1,5.685,17.1Z" transform="translate(-1542.332 440.994)"/><path class="f" d="M1635.468,171.887a216.18,216.18,0,0,0,28.936,1.823,191.215,191.215,0,0,0,34.8-2.989.517.517,0,1,0-.191-1.016,190.194,190.194,0,0,1-34.606,2.972c-8.344,0-15.545-.454-20.656-.907-2.556-.227-4.59-.453-5.984-.623-.7-.085-1.233-.156-1.6-.2l-.41-.057-.137-.02a.517.517,0,1,0-.153,1.022Z" transform="translate(-1574.432 39.074)"/><path class="f" d="M1633.9-238.984a.512.512,0,0,1-.47-.309c-1.986-4.594-4.354-10.8-4.354-14.254,0-4.227,5.556-15.393,7.945-20a.511.511,0,0,1,.689-.218.512.512,0,0,1,.219.69c-1.837,3.54-7.83,15.412-7.83,19.527,0,3.455,2.675,10.159,4.27,13.848a.511.511,0,0,1-.267.672A.506.506,0,0,1,1633.9-238.984Z" transform="translate(-1569.385 415.551)"/><path class="d" d="M1789.6-317.913c-5.569-.413-9.138,3.811-9.505,8.358s4.642,6.6,4.642,6.6,1.925-4.815,3.676-5.213,3.665,5.826,3.665,5.826,6.033-1.393,7.108-7.307S1794.536-317.547,1789.6-317.913Z" transform="translate(-1697.553 453.003)"/><path class="e" d="M1813.112-380.311l-1.343,12.958s1.889,3.692,4.971,3.839,6.065-3.175,6.065-3.175v-14.4Z" transform="translate(-1724.458 506.603)"/><path class="f" d="M1814.235-365.733q-.112,0-.224-.005c-3.323-.159-5.295-3.94-5.377-4.1a.483.483,0,0,1-.051-.269l1.343-12.958a.482.482,0,0,1,.441-.431l9.694-.775a.484.484,0,0,1,.365.126.481.481,0,0,1,.155.354v14.4a.482.482,0,0,1-.123.322C1820.333-368.933,1817.422-365.733,1814.235-365.733Zm-4.678-4.426c.347.61,2.034,3.34,4.5,3.458,2.483.12,4.984-2.291,5.56-2.885V-383.27l-8.774.7Z" transform="translate(-1721.75 509.309)"/><path class="e" d="M1566.245,165.537l-2.567,11.2a2.006,2.006,0,0,0,1.376,2.395l7.521,2.084a1.908,1.908,0,0,0,2.282-1.187l3.3-8.528a2.037,2.037,0,0,0-.853-2.494l-8.252-4.754A1.908,1.908,0,0,0,1566.245,165.537Z" transform="translate(-1513.821 43.911)"/><path class="f" d="M1570.359,179.053a2.339,2.339,0,0,1-.625-.085l-7.521-2.084a2.477,2.477,0,0,1-1.718-2.967l2.567-11.2h0a2.44,2.44,0,0,1,1.4-1.715,2.327,2.327,0,0,1,2.112.119l8.252,4.754a2.525,2.525,0,0,1,1.061,3.085l-3.3,8.528A2.41,2.41,0,0,1,1570.359,179.053ZM1564,162.934l-2.567,11.2a1.534,1.534,0,0,0,1.036,1.823l7.521,2.084a1.43,1.43,0,0,0,1.7-.9l3.3-8.528a1.554,1.554,0,0,0-.644-1.9l-8.252-4.754a1.373,1.373,0,0,0-1.245-.071,1.486,1.486,0,0,0-.851,1.047Z" transform="translate(-1511.109 46.621)"/><path class="e" d="M1582.393,128.638l-.721,2.2a2.138,2.138,0,0,0,.851,2.45l9.177,6.073a2.138,2.138,0,0,0,3.173-1.007h0a2.136,2.136,0,0,0-.08-1.734c-1.017-2.032-3.988-7.017-9.58-9.3A2.132,2.132,0,0,0,1582.393,128.638Z" transform="translate(-1529.051 75.181)"/><path class="f" d="M1590.174,137.482a2.611,2.611,0,0,1-1.443-.436l-9.176-6.073a2.627,2.627,0,0,1-1.044-3l.721-2.2h0a2.642,2.642,0,0,1,1.4-1.568,2.561,2.561,0,0,1,2.062-.05c5.74,2.344,8.786,7.447,9.829,9.532a2.623,2.623,0,0,1-2.347,3.794Zm-10.026-11.408-.721,2.2a1.66,1.66,0,0,0,.66,1.9l9.177,6.073a1.656,1.656,0,0,0,2.4-2.123c-.994-1.988-3.894-6.85-9.331-9.071a1.606,1.606,0,0,0-1.294.032,1.675,1.675,0,0,0-.885.994Z" transform="translate(-1526.348 77.895)"/><path class="e" d="M2216.378-572.314c-1.554.318-4.528.89-7.663,1.3l7.465,1.025a1.4,1.4,0,0,1,1.2,1.52,61.579,61.579,0,0,1-1.569,9.47,1.4,1.4,0,0,1-1.3,1.032,127.961,127.961,0,0,1-16.477-.644s-19.593,26.354-24.114,30.618c-1.662,1.566-12.829,4.785-19.249,6.976v-20.8l12.531-3.457L2192.91-566.2l2.682-15.588a1.434,1.434,0,0,1,1.413-1.191h0a1.434,1.434,0,0,1,1.426,1.28l.81,7.487s8.744-.137,16.733-.867a1.4,1.4,0,0,1,1.526,1.394h0A1.4,1.4,0,0,1,2216.378-572.314Z" transform="translate(-2015.528 677.981)"/><path class="f" d="M2151.044-524a.644.644,0,0,1-.376-.121.646.646,0,0,1-.27-.525v-20.8a.646.646,0,0,1,.474-.623l12.4-3.421,25.416-20.693,2.64-15.349a2.075,2.075,0,0,1,2.05-1.728,2.078,2.078,0,0,1,2.069,1.856l.746,6.9c2.093-.046,9.4-.241,16.095-.853a2.054,2.054,0,0,1,1.565.526,2.052,2.052,0,0,1,.667,1.512,2.055,2.055,0,0,1-1.639,2.006h0c-.776.159-1.946.389-3.329.632l3.089.424a2.04,2.04,0,0,1,1.76,2.221,62.017,62.017,0,0,1-1.59,9.579,2.04,2.04,0,0,1-1.906,1.506,128.43,128.43,0,0,1-16.2-.611c-2.27,3.048-19.665,26.349-23.971,30.409-1.241,1.169-6.244,2.833-13.736,5.238-2.095.673-4.073,1.308-5.748,1.879A.645.645,0,0,1,2151.044-524Zm.646-20.953v19.407c1.487-.5,3.161-1.034,4.916-1.6,5.4-1.734,12.125-3.892,13.245-4.948,4.429-4.176,23.843-30.27,24.039-30.533a.645.645,0,0,1,.583-.257,127.458,127.458,0,0,0,16.39.642.754.754,0,0,0,.7-.558,60.779,60.779,0,0,0,1.549-9.359.751.751,0,0,0-.649-.818L2205-574a.645.645,0,0,1-.558-.642.646.646,0,0,1,.562-.639c3.136-.414,6.118-.99,7.618-1.3h0a.759.759,0,0,0,.605-.74.747.747,0,0,0-.246-.558.739.739,0,0,0-.577-.194c-7.921.724-16.693.868-16.781.87h-.01a.646.646,0,0,1-.642-.577l-.81-7.487a.787.787,0,0,0-.784-.7.786.786,0,0,0-.777.655l-2.681,15.588a.643.643,0,0,1-.229.391L2163.983-548.4a.655.655,0,0,1-.237.122Z" transform="translate(-2011.9 681.609)"/><path class="c" d="M2021.58-301.531l-24.673,5.94-.005,0,0-.005a.42.42,0,0,1-.031-.034c-.768-.8-13.2-14.159,1.33-26.187l17.965-2.669,3.633-.54,1.672,21.983Z" transform="translate(-1876.752 459.014)"/><path class="f" d="M1992.5-274.537a.512.512,0,0,1-.411-.206c-2.928-3.936-8.65-14.131,1.435-23.772a.511.511,0,0,1,.723.016.511.511,0,0,1-.017.723c-9.495,9.077-4.087,18.7-1.321,22.422a.511.511,0,0,1-.1.716A.51.51,0,0,1,1992.5-274.537Z" transform="translate(-1873.883 436.634)"/><path class="f" d="M2155.3-294.988a.511.511,0,0,1-.51-.48l-1.2-19.775a.511.511,0,0,1,.479-.541.509.509,0,0,1,.542.479l1.2,19.775a.512.512,0,0,1-.48.542Z" transform="translate(-2014.611 451.174)"/><path class="e" d="M1934.539-513.682l1.721-.279a1.532,1.532,0,0,1,1.452.561,5.159,5.159,0,0,1,1.038,2.072,3.573,3.573,0,0,1-.469,2.376,1.518,1.518,0,0,1-.921.721l-1.92.542a1.538,1.538,0,0,1-1.951-1.358l-.238-2.994A1.538,1.538,0,0,1,1934.539-513.682Z" transform="translate(-1827.573 619.411)"/><path class="f" d="M1932.2-509.949a2.033,2.033,0,0,1-1.164-.366,2.033,2.033,0,0,1-.868-1.513l-.238-2.994a2.052,2.052,0,0,1,1.708-2.176h0l1.721-.278a2.037,2.037,0,0,1,1.927.746,5.681,5.681,0,0,1,1.136,2.282,4.049,4.049,0,0,1-.521,2.72,2.01,2.01,0,0,1-1.225.961l-1.92.542A2.041,2.041,0,0,1,1932.2-509.949Zm1.487-6.35a1.052,1.052,0,0,0-.168.013l-1.721.279h0a1.042,1.042,0,0,0-.867,1.1l.238,2.994a1.031,1.031,0,0,0,.441.768,1.031,1.031,0,0,0,.873.147l1.919-.542a1.011,1.011,0,0,0,.618-.48,3.074,3.074,0,0,0,.416-2.033,4.7,4.7,0,0,0-.941-1.861A1.03,1.03,0,0,0,1933.688-516.3Zm-1.969-.2h0Z" transform="translate(-1824.752 622.231)"/><path class="e" d="M1770.8-500.608c-1.288,5.565-.689,12.591,5.987,14.335,4.908,1.282,12-3.018,14.552-10.3s3.106-13.983-5.923-16.123a22.409,22.409,0,0,0-2.938-.448c-5.493-.357-7.6-.467-10.927,9.577C1771.257-502.674,1771.04-501.658,1770.8-500.608Z" transform="translate(-1689.215 618.791)"/><path class="f" d="M1775.558-488.421a6.674,6.674,0,0,1-1.7-.21c-6.819-1.781-7.751-8.882-6.35-14.934l.091-.4c.21-.926.409-1.8.673-2.6,3.46-10.439,5.8-10.286,11.437-9.92a.5.5,0,0,1,.469.534.5.5,0,0,1-.534.469c-5.387-.35-7.2-.468-10.418,9.234-.249.751-.443,1.6-.647,2.505l-.092.4c-.628,2.715-2.08,11.725,5.624,13.737,1.529.4,3.469.11,6.1-.912a.5.5,0,0,1,.65.287.5.5,0,0,1-.287.65A14.194,14.194,0,0,1,1775.558-488.421Z" transform="translate(-1686.413 621.636)"/><path class="f" d="M1775.135-516.583a5.622,5.622,0,0,1-1.973-5.4c.113-.677.337-1.567.407-2.416-5.1,2.737-13.052,2.81-16.472,2.7a2.56,2.56,0,0,1-2.4-1.794c-1.889-6.575,5.826-15.472,12.748-12.992,9.724-2.9,17.689,4.113,16.822,11.245C1783.3-517.338,1777.067-514.923,1775.135-516.583Z" transform="translate(-1675.764 639.087)"/><path class="e" d="M1885.87-412.48s4.671-2.669,8.1-.363-.555,10.766-9.573,6.948Z" transform="translate(-1786.111 534.357)"/><path class="f" d="M1885.925-407.28a11.682,11.682,0,0,1-4.543-1.007.5.5,0,0,1-.267-.659.5.5,0,0,1,.659-.267c5.084,2.152,8.324.263,9.554-2.009.863-1.594.67-3.3-.458-4.06-3.127-2.1-7.528.358-7.573.382a.5.5,0,0,1-.685-.187.5.5,0,0,1,.187-.685c.2-.115,4.984-2.8,8.631-.344,1.567,1.053,1.9,3.313.781,5.372A6.911,6.911,0,0,1,1885.925-407.28Z" transform="translate(-1783.288 537.211)"/></g></g></g></svg>