<svg xmlns="http://www.w3.org/2000/svg" xmlns:xlink="http://www.w3.org/1999/xlink" width="584" height="438" viewBox="0 0 584 438"><defs><style>.a,.c{fill:#fff;}.a{stroke:#707070;}.b{clip-path:url(#a);}.d{fill:#3b3a3c;}.e{fill:#c31e23;}.f{fill:#2c3b44;}.g{fill:#87bfc1;}</style><clipPath id="a"><rect class="a" width="584" height="438" transform="translate(-1576 2711)"/></clipPath></defs><g class="b" transform="translate(1576 -2711)"><g transform="translate(-1673.488 2511.002)"><g transform="translate(353.431 246.658)"><g transform="translate(0)"><g transform="translate(5.485 13.664)"><rect class="c" width="248.043" height="181.343" rx="13" transform="translate(0.847 0.847)"/><path class="d" d="M942.1,467.366H702.865a5.255,5.255,0,0,1-5.249-5.249V289.579a5.255,5.255,0,0,1,5.249-5.249H942.1a5.255,5.255,0,0,1,5.249,5.249V462.117A5.255,5.255,0,0,1,942.1,467.366ZM702.865,286.023a3.56,3.56,0,0,0-3.556,3.556V462.117a3.56,3.56,0,0,0,3.556,3.556H942.1a3.56,3.56,0,0,0,3.555-3.556V289.579a3.56,3.56,0,0,0-3.555-3.556Z" transform="translate(-697.616 -284.33)"/></g><g transform="translate(28.151 48.25)"><rect class="e" width="108.971" height="76.346" rx="4"/><rect class="c" width="95.899" height="64.362" transform="translate(6.536 5.992)"/><g transform="translate(6.536 23.584)"><path class="f" d="M874.024,494.875v8.938h-95.9V483.5l17.451-17.446a6.772,6.772,0,0,1,9.581,0l25.6,25.6,15.232-15.232a6.772,6.772,0,0,1,9.581,0Z" transform="translate(-778.125 -457.043)"/><circle class="f" cx="7.366" cy="7.366" r="7.366" transform="translate(47.056)"/></g><g transform="translate(121.843)"><rect class="e" width="82.56" height="76.346" rx="4"/><g transform="translate(14.037 16.682)"><rect class="c" width="54.485" height="6.658" rx="3.329"/><rect class="c" width="54.485" height="6.658" rx="3.329" transform="translate(0 18.162)"/><rect class="c" width="54.485" height="6.658" rx="3.329" transform="translate(0 36.324)"/></g></g></g><g transform="translate(85.766 149.749)"><rect class="e" width="144.417" height="10.335" rx="5.168"/><rect class="e" width="144.417" height="10.335" rx="5.168" transform="translate(0 17.223)"/></g><g transform="translate(40.059 145.493)"><rect class="f" width="36.07" height="36.07" rx="4"/><g transform="translate(2.049 1.759)"><path class="c" d="M829.146,684.032a.843.843,0,0,1-.6-.248l-29.717-29.717a.847.847,0,0,1,1.2-1.2l29.717,29.717a.847.847,0,0,1-.6,1.445Z" transform="translate(-798.583 -652.622)"/><path class="c" d="M799.43,684.032a.847.847,0,0,1-.6-1.445l29.717-29.717a.847.847,0,1,1,1.2,1.2l-29.717,29.717A.844.844,0,0,1,799.43,684.032Z" transform="translate(-798.583 -652.622)"/></g></g><rect class="c" width="259.013" height="28.255" rx="13.667" transform="translate(0.847 0.847)"/><path class="d" d="M937.727,276.606H687.97a5.481,5.481,0,0,1-5.475-5.475v-19a5.481,5.481,0,0,1,5.475-5.475H937.727a5.481,5.481,0,0,1,5.474,5.475v19A5.481,5.481,0,0,1,937.727,276.606ZM687.97,248.351a3.786,3.786,0,0,0-3.782,3.781v19a3.786,3.786,0,0,0,3.782,3.781H937.727a3.786,3.786,0,0,0,3.781-3.781v-19a3.786,3.786,0,0,0-3.781-3.781Z" transform="translate(-682.495 -246.658)"/><g transform="translate(6.573 8.953)"><circle class="f" cx="6.022" cy="6.022" r="6.022"/><circle class="f" cx="6.022" cy="6.022" r="6.022" transform="translate(26.913)"/><circle class="e" cx="6.022" cy="6.022" r="6.022" transform="translate(53.827)"/></g></g></g><g transform="translate(398.731 479.278)"><g transform="translate(0)"><g transform="translate(3.963 3.963)"><path class="d" d="M906.8,987.623h-4.353a.907.907,0,1,1,0-1.814H906.8a.907.907,0,1,1,0,1.814Zm-8.705,0h-4.353a.907.907,0,1,1,0-1.814H898.1a.907.907,0,1,1,0,1.814Zm-8.705,0h-4.353a.907.907,0,0,1,0-1.814h4.353a.907.907,0,0,1,0,1.814Zm-8.705,0h-4.353a.907.907,0,0,1,0-1.814h4.353a.907.907,0,0,1,0,1.814Zm-8.705,0h-4.353a.907.907,0,1,1,0-1.814h4.353a.907.907,0,0,1,0,1.814Zm-8.705,0h-4.353a.907.907,0,1,1,0-1.814h4.353a.907.907,0,1,1,0,1.814Zm-8.705,0h-4.353a.907.907,0,0,1,0-1.814h4.353a.907.907,0,1,1,0,1.814Zm-8.705,0h-4.353a.907.907,0,1,1,0-1.814h4.353a.907.907,0,0,1,0,1.814Zm-8.705,0h-4.353a.907.907,0,0,1,0-1.814h4.353a.907.907,0,1,1,0,1.814Zm-8.705,0H824.1a.907.907,0,1,1,0-1.814h4.353a.907.907,0,1,1,0,1.814Zm-8.705,0h-.529a.907.907,0,0,1-.907-.907v-4.353a.907.907,0,1,1,1.814,0v3.528a.907.907,0,0,1-.378,1.732Zm91.287-.119a.907.907,0,0,1-.907-.907v-4.353a.907.907,0,1,1,1.814,0V986.6A.907.907,0,0,1,911.035,987.5Zm-91.816-8.586a.907.907,0,0,1-.907-.907v-4.353a.907.907,0,1,1,1.814,0v4.353A.907.907,0,0,1,819.219,978.918Zm91.816-.119a.907.907,0,0,1-.907-.907v-4.353a.907.907,0,0,1,1.814,0v4.353A.907.907,0,0,1,911.035,978.8Zm-91.816-8.586a.907.907,0,0,1-.907-.907v-4.353a.907.907,0,0,1,1.814,0v4.353A.907.907,0,0,1,819.219,970.213Zm91.816-.119a.907.907,0,0,1-.907-.907v-4.353a.907.907,0,1,1,1.814,0v4.353A.907.907,0,0,1,911.035,970.094Zm-91.816-8.586a.907.907,0,0,1-.907-.907v-4.353a.907.907,0,1,1,1.814,0V960.6A.907.907,0,0,1,819.219,961.507Zm91.816-.119a.907.907,0,0,1-.907-.907v-4.353a.907.907,0,1,1,1.814,0v4.353A.907.907,0,0,1,911.035,961.388ZM819.219,952.8a.907.907,0,0,1-.907-.907v-4.353a.907.907,0,0,1,1.814,0V951.9A.907.907,0,0,1,819.219,952.8Zm91.816-.119a.907.907,0,0,1-.907-.907v-4.353a.907.907,0,1,1,1.814,0v4.353A.907.907,0,0,1,911.035,952.683ZM819.219,944.1a.907.907,0,0,1-.907-.907v-4.353a.907.907,0,0,1,1.814,0v4.353A.907.907,0,0,1,819.219,944.1Zm91.816-.119a.907.907,0,0,1-.907-.907v-4.353a.907.907,0,1,1,1.814,0v4.353A.907.907,0,0,1,911.035,943.978Zm-91.816-8.586a.907.907,0,0,1-.907-.907v-4.353a.907.907,0,0,1,1.814,0v4.353A.907.907,0,0,1,819.219,935.391Zm91.816-.119a.907.907,0,0,1-.907-.907v-4.353a.907.907,0,0,1,1.814,0v4.353A.907.907,0,0,1,911.035,935.272Zm-91.816-8.586a.907.907,0,0,1-.907-.907v-4.353a.907.907,0,0,1,1.814,0v4.353A.907.907,0,0,1,819.219,926.686Zm91.816-.119a.907.907,0,0,1-.907-.907v-4.353a.907.907,0,0,1,1.814,0v4.353A.907.907,0,0,1,911.035,926.567Zm-91.816-8.586a.907.907,0,0,1-.907-.907v-4.353a.907.907,0,1,1,1.814,0v4.353A.907.907,0,0,1,819.219,917.981Zm91.816-.119a.907.907,0,0,1-.907-.907V912.6a.907.907,0,0,1,1.814,0v4.353A.907.907,0,0,1,911.035,917.862Zm-91.816-8.586a.907.907,0,0,1-.907-.907v-4.353a.907.907,0,0,1,1.814,0v4.353A.907.907,0,0,1,819.219,909.275Zm91.816-.119a.907.907,0,0,1-.907-.907V903.9a.907.907,0,1,1,1.814,0v4.353A.907.907,0,0,1,911.035,909.156Zm-.265-8.441h-4.353a.907.907,0,1,1,0-1.814h4.353a.907.907,0,0,1,0,1.814Zm-8.705,0h-4.353a.907.907,0,0,1,0-1.814h4.353a.907.907,0,0,1,0,1.814Zm-8.705,0h-4.353a.907.907,0,0,1,0-1.814h4.353a.907.907,0,0,1,0,1.814Zm-8.705,0H880.3a.907.907,0,0,1,0-1.814h4.353a.907.907,0,0,1,0,1.814Zm-8.705,0H871.6a.907.907,0,0,1,0-1.814h4.353a.907.907,0,0,1,0,1.814Zm-8.705,0h-4.353a.907.907,0,0,1,0-1.814h4.353a.907.907,0,0,1,0,1.814Zm-8.705,0h-4.353a.907.907,0,0,1,0-1.814h4.353a.907.907,0,0,1,0,1.814Zm-8.705,0H845.48a.907.907,0,0,1,0-1.814h4.353a.907.907,0,0,1,0,1.814Zm-8.705,0h-4.353a.907.907,0,0,1,0-1.814h4.353a.907.907,0,0,1,0,1.814Zm-8.705,0H828.07a.907.907,0,1,1,0-1.814h4.353a.907.907,0,0,1,0,1.814Zm-8.705,0h-4.353a.907.907,0,0,1,0-1.814h4.353a.907.907,0,1,1,0,1.814Z" transform="translate(-818.312 -898.902)"/></g><g transform="translate(13.428 13.429)"><rect class="e" width="74.699" height="69.791" rx="4"/><rect class="c" width="64.81" height="60.132" transform="translate(4.945 4.83)"/><g transform="translate(4.945 33.354)"><path class="f" d="M922.849,1050.86v6.04h-64.81v-13.727l11.794-11.791a4.577,4.577,0,0,1,6.475,0l17.3,17.3,10.294-10.294a4.576,4.576,0,0,1,6.475,0Z" transform="translate(-858.039 -1025.293)"/><circle class="f" cx="4.978" cy="4.978" r="4.978" transform="translate(31.801)"/></g></g><rect class="f" width="9.74" height="9.74" rx="3.922"/><rect class="f" width="9.74" height="9.74" rx="3.922" transform="translate(45.274)"/><rect class="f" width="9.74" height="9.74" rx="3.922" transform="translate(90.548)"/><rect class="f" width="9.74" height="9.74" rx="3.922" transform="translate(0 86.908)"/><rect class="f" width="9.74" height="9.74" rx="3.922" transform="translate(45.274 86.908)"/><rect class="f" width="9.74" height="9.74" rx="3.922" transform="translate(90.548 86.908)"/><rect class="f" width="9.74" height="9.74" rx="3.922" transform="translate(0 43.454)"/><rect class="f" width="9.74" height="9.74" rx="3.922" transform="translate(90.548 43.454)"/></g></g><g transform="translate(275.373 281.503)"><g transform="translate(0 0)"><circle class="f" cx="30.388" cy="30.388" r="30.388"/><path class="c" d="M536.252,418.381h0a2.566,2.566,0,0,1-2.332-3.634L541.4,398.42a2.565,2.565,0,0,1,2.332-1.5h0a2.565,2.565,0,0,1,2.332,3.634l-7.479,16.327A2.566,2.566,0,0,1,536.252,418.381Z" transform="translate(-509.603 -377.263)"/><g transform="translate(13.061 24.652)"><path class="c" d="M507.575,416.426l2.977,2.974a1.616,1.616,0,0,1-1.143,2.76h0a1.617,1.617,0,0,1-1.143-.473l-4.751-4.748a.725.725,0,0,1,0-1.025l4.751-4.752a1.616,1.616,0,0,1,1.143-.473h0a1.616,1.616,0,0,1,1.143,2.759Z" transform="translate(-503.302 -410.688)"/><path class="c" d="M581,416.426l-2.976,2.974a1.616,1.616,0,0,0,1.143,2.76h0a1.617,1.617,0,0,0,1.143-.473l4.751-4.748a.725.725,0,0,0,0-1.025l-4.752-4.752a1.615,1.615,0,0,0-1.143-.473h0a1.616,1.616,0,0,0-1.143,2.759Z" transform="translate(-550.612 -410.688)"/></g></g></g><g transform="translate(272.742 321.777)"><g transform="translate(0 0)"><g transform="translate(71.149)"><path class="c" d="M658.695,489.22c0-.141,2.115-9.953,3.33-15.575a4.878,4.878,0,0,1,4.769-3.847h9.936l4.666-12.263a1.985,1.985,0,0,1,1.855-1.279h0a1.985,1.985,0,0,1,1.95,2.355l-2.855,15.019,1.207,1.207a4.879,4.879,0,0,1,1.2,4.922l-.96,3.035a12.2,12.2,0,0,1-5.627,6.94l-8.439,4.772Z" transform="translate(-657.788 -455.35)"/><path class="d" d="M668.134,493.819a.911.911,0,0,1-.392-.089l-11.032-5.285a.907.907,0,0,1-.515-.818c0-.144,0-.259,3.35-15.766A5.816,5.816,0,0,1,665.2,467.3h9.31l4.444-11.679a2.891,2.891,0,0,1,5.542,1.568l-2.765,14.547.867.868a5.767,5.767,0,0,1,1.425,5.837l-.961,3.035a13.067,13.067,0,0,1-6.045,7.455L668.58,493.7A.907.907,0,0,1,668.134,493.819Zm-10.006-6.706,9.971,4.777,8.027-4.539a11.259,11.259,0,0,0,5.209-6.423l.96-3.035a3.959,3.959,0,0,0-.978-4.008l-1.207-1.207a.906.906,0,0,1-.25-.81l2.855-15.019a1.078,1.078,0,0,0-2.066-.585l-4.666,12.264a.906.906,0,0,1-.847.584H665.2a3.993,3.993,0,0,0-3.883,3.131C659.617,480.118,658.494,485.352,658.128,487.113Z" transform="translate(-656.195 -453.757)"/></g><g transform="translate(0 31.755)"><path class="e" d="M545.045,550.751l-15.724,29.4-3.309,6.187a17.289,17.289,0,0,1-6.3,6.635l-4.879,2.945-39.747,23.992s-31.069-20.4-3.918-36.646l33.249-11.5,26.159-30.321S538.9,539.455,545.045,550.751Z" transform="translate(-460.041 -541.303)"/><g transform="translate(67.648 5.965)"><path class="d" d="M657.755,566.233a.9.9,0,0,1-.727-.364,17.636,17.636,0,0,0-9.749-6.324.907.907,0,0,1,.341-1.781,19.27,19.27,0,0,1,10.861,7.02.907.907,0,0,1-.726,1.449Z" transform="translate(-646.542 -557.747)"/></g><g transform="translate(77.656 5.965)"><circle class="c" cx="1.511" cy="1.511" r="1.511" transform="translate(0.907 0.907)"/><path class="d" d="M676.552,562.584a2.418,2.418,0,1,1,2.418-2.418A2.42,2.42,0,0,1,676.552,562.584Zm0-3.022a.6.6,0,1,0,.6.6A.6.6,0,0,0,676.552,559.562Z" transform="translate(-674.134 -557.748)"/></g><path class="c" d="M620.519,645.236l-3.31,6.187a17.287,17.287,0,0,1-6.3,6.635L606.032,661a8.262,8.262,0,0,1-1.471-1.688c-2.9-4.388-1.2-10.61,3.777-13.9C612.338,642.779,617.245,642.834,620.519,645.236Z" transform="translate(-551.239 -606.39)"/></g></g></g><g transform="translate(169.527 517.873)"><g transform="translate(0)"><path class="f" d="M254.294,997.095l-11.659,41.427H346.079l-9.923-42.668Z" transform="translate(-218.278 -995.32)"/><path class="f" d="M175.9,1048.01h0a16.9,16.9,0,0,0,12.747,20.2l62.913,14.254h57.552l33.383-17.5a15.978,15.978,0,0,0,6.352-22.257h0a15.979,15.979,0,0,0-13.77-7.874h-142.7A16.9,16.9,0,0,0,175.9,1048.01Z" transform="translate(-175.484 -1020.162)"/><g transform="translate(89.747 1.985)"><path class="d" d="M423.816,1023.805a.907.907,0,0,1-.641-1.548l.841-.841a7.815,7.815,0,0,0,2.3-5.562v-15.1a.907.907,0,0,1,1.814,0v15.1a9.615,9.615,0,0,1-2.835,6.845l-.841.842A.9.9,0,0,1,423.816,1023.805Z" transform="translate(-422.909 -999.852)"/></g><g transform="translate(89.188)"><path class="d" d="M422.277,1033.652a.907.907,0,0,1-.907-.907V995.287a.907.907,0,1,1,1.814,0v37.458A.907.907,0,0,1,422.277,1033.652Z" transform="translate(-421.37 -994.38)"/></g></g></g><g transform="translate(183.587 531.703)"><g transform="translate(0)"><g transform="translate(0 27.104)"><path class="f" d="M216.746,1121.719a30.722,30.722,0,0,0,6.568,19.022h29.894l5.265-2.2,17.061-7.107-7.569-13.4-34.393-7.624a28.469,28.469,0,0,0-4.707-.644A28.786,28.786,0,0,0,218.6,1111.1,29.555,29.555,0,0,0,216.746,1121.719Z" transform="translate(-215.839 -1108.827)"/><g transform="translate(22.135 5.826)"><path class="c" d="M307.787,1136.216s-17.985-1.055-27.039-2.171a22.646,22.646,0,0,0-2.977-8.248c15.256,2.977,29.21,4.527,29.21,4.527Z" transform="translate(-276.864 -1124.89)"/><path class="d" d="M306.194,1135.529l-.053,0c-.18-.011-18.118-1.069-27.1-2.176a.907.907,0,0,1-.783-.751,21.627,21.627,0,0,0-2.855-7.923.907.907,0,0,1,.946-1.365c15.042,2.935,29,4.5,29.136,4.516a.907.907,0,0,1,.8.778l.806,5.891a.907.907,0,0,1-.9,1.03Zm-26.264-3.9c7.768.912,21.283,1.777,25.216,2.018l-.561-4.1c-2.882-.34-14.217-1.739-26.679-4.092A23.9,23.9,0,0,1,279.93,1131.631Z" transform="translate(-275.272 -1123.296)"/></g><ellipse class="c" cx="4.868" cy="2.884" rx="4.868" ry="2.884" transform="translate(38.05 22.234) rotate(-26.836)"/><path class="c" d="M216.746,1121.719a30.722,30.722,0,0,0,6.568,19.022h29.894l5.265-2.2-24.492-1.4s13.6-16.756-4.744-27.163c-.126-.071-.249-.141-.372-.2A28.786,28.786,0,0,0,218.6,1111.1,29.555,29.555,0,0,0,216.746,1121.719Z" transform="translate(-215.839 -1108.827)"/><path class="d" d="M251.615,1140.053H221.72a.906.906,0,0,1-.719-.354,31.473,31.473,0,0,1-6.756-19.575,30.247,30.247,0,0,1,1.93-10.979.906.906,0,0,1,.559-.508,29.56,29.56,0,0,1,10.586-1.362.9.9,0,0,1,.367.1c.1.053.2.11.309.168l.09.05c5.586,3.169,8.88,7.242,9.8,12.108,1.214,6.432-2.058,12.416-3.8,15.037l22.844,1.308a.907.907,0,0,1,.3,1.743l-5.265,2.2A.909.909,0,0,1,251.615,1140.053Zm-29.444-1.814h29.263l1.46-.609-20.557-1.177a.907.907,0,0,1-.652-1.477c.058-.072,5.855-7.35,4.415-14.951-.817-4.313-3.813-7.965-8.9-10.853l-.089-.05-.085-.047a27.81,27.81,0,0,0-9.325,1.161,29.954,29.954,0,0,0-1.638,9.887A29.643,29.643,0,0,0,222.171,1138.24Z" transform="translate(-214.246 -1107.233)"/></g><g transform="translate(47.829)"><path class="f" d="M353.688,1087.177s95.876-10.4,104.933-16.745a15.894,15.894,0,0,0,4.774-5.611c4.454-8.365,3.728-21.355-5.86-27.093a22.6,22.6,0,0,0-11.8-2.9l-95.024,32.994S344.2,1077.5,353.688,1087.177Z" transform="translate(-347.652 -1033.991)"/><path class="d" d="M352.142,1086.6a.907.907,0,0,1-.647-.272c-9.892-10.086-3.151-20.387-3.082-20.49a.905.905,0,0,1,.455-.35l94.839-32.93a.907.907,0,1,1,.595,1.713L349.765,1067.1c-.9,1.514-5,9.466,2.722,17.648,5.6-.616,62.4-6.923,89.935-12.49a.907.907,0,1,1,.359,1.778c-28.92,5.846-89.927,12.5-90.54,12.564A.874.874,0,0,1,352.142,1086.6Z" transform="translate(-346.106 -1032.51)"/><g transform="translate(7.662 33.302)"><path class="c" d="M370.693,1126.823s-3.225,6.449,2.357,14.264" transform="translate(-368.847 -1125.916)"/><path class="d" d="M371.435,1140.4a.9.9,0,0,1-.738-.38c-5.832-8.164-2.572-14.913-2.43-15.2a.907.907,0,0,1,1.624.809c-.121.248-2.888,6.1,2.282,13.334a.907.907,0,0,1-.737,1.434Z" transform="translate(-367.231 -1124.321)"/></g><path class="c" d="M602.131,1057.18a14.82,14.82,0,0,0,22.877,12.44c4.454-8.365,3.728-21.355-5.86-27.093a14.818,14.818,0,0,0-17.016,14.653Z" transform="translate(-509.265 -1038.789)"/></g></g></g><g transform="translate(166.137 532.546)"><g transform="translate(0)"><g transform="translate(105.067 26.261)"><path class="f" d="M517.615,1121.719a30.721,30.721,0,0,1-6.568,19.022H481.152l-5.265-2.2-17.061-7.107c-1.891-6.994,1.332-13.356,7.569-13.4l34.393-7.624a28.469,28.469,0,0,1,4.707-.644,28.788,28.788,0,0,1,10.263,1.321A29.555,29.555,0,0,1,517.615,1121.719Z" transform="translate(-457.386 -1108.827)"/><g transform="translate(0 0)"><path class="d" d="M509.462,1140.054H479.568a.907.907,0,0,1-.349-.07l-22.326-9.3a.908.908,0,0,1-.527-.6c-1.134-4.2-.538-8.376,1.594-11.18a8.459,8.459,0,0,1,6.746-3.358l34.3-7.6a29.622,29.622,0,0,1,15.441.7.906.906,0,0,1,.559.508,30.245,30.245,0,0,1,1.93,10.98,31.475,31.475,0,0,1-6.756,19.574A.905.905,0,0,1,509.462,1140.054Zm-29.713-1.814h29.263a29.642,29.642,0,0,0,6.111-18.115,29.946,29.946,0,0,0-1.638-9.888,27.807,27.807,0,0,0-14.084-.528l-34.394,7.624a.918.918,0,0,1-.19.022A6.6,6.6,0,0,0,459.4,1120c-1.725,2.267-2.236,5.674-1.4,9.182Z" transform="translate(-455.801 -1107.234)"/></g><g transform="translate(7.171 5.826)"><path class="c" d="M478.07,1136.216s17.985-1.055,27.039-2.171a22.64,22.64,0,0,1,2.977-8.248c-15.256,2.977-29.21,4.527-29.21,4.527Z" transform="translate(-477.163 -1124.89)"/><path class="d" d="M476.477,1135.529a.907.907,0,0,1-.9-1.03l.806-5.891a.907.907,0,0,1,.8-.778c.139-.016,14.094-1.581,29.136-4.516a.907.907,0,0,1,.946,1.365,21.627,21.627,0,0,0-2.855,7.923.907.907,0,0,1-.783.751c-8.979,1.107-26.917,2.165-27.1,2.176Zm1.609-5.979-.561,4.1c3.933-.242,17.449-1.106,25.216-2.018a23.884,23.884,0,0,1,2.024-6.173C492.3,1127.812,480.968,1129.21,478.086,1129.55Z" transform="translate(-475.57 -1123.296)"/></g><ellipse class="c" cx="2.884" cy="4.868" rx="2.884" ry="4.868" transform="translate(11.794 22.985) rotate(-63.164)"/><g transform="translate(17.594)"><path class="c" d="M548.536,1121.719a30.722,30.722,0,0,1-6.568,19.022H512.073l-5.265-2.2,24.492-1.4s-13.6-16.756,4.744-27.163c.127-.071.25-.141.372-.2a28.788,28.788,0,0,1,10.263,1.321A29.555,29.555,0,0,1,548.536,1121.719Z" transform="translate(-505.901 -1108.827)"/><path class="d" d="M540.374,1140.053H510.479a.905.905,0,0,1-.349-.07l-5.265-2.2a.907.907,0,0,1,.3-1.743l22.845-1.308c-1.738-2.621-5.009-8.6-3.8-15.037.918-4.866,4.212-8.939,9.792-12.1l.093-.052c.106-.059.209-.117.313-.171a.909.909,0,0,1,.366-.1,29.566,29.566,0,0,1,10.586,1.362.906.906,0,0,1,.559.508,30.242,30.242,0,0,1,1.93,10.979,31.475,31.475,0,0,1-6.756,19.575A.905.905,0,0,1,540.374,1140.053Zm-29.713-1.813h29.263a30.157,30.157,0,0,0,4.474-28,27.766,27.766,0,0,0-9.326-1.161l-.088.049-.092.051c-5.084,2.885-8.079,6.537-8.9,10.849-1.441,7.6,4.356,14.879,4.415,14.952a.907.907,0,0,1-.653,1.476l-20.557,1.177Z" transform="translate(-504.307 -1107.233)"/></g></g><g transform="translate(93.664 32.088)"><path class="c" d="M432.909,1125.8l14.512,3.628s2.6,7.163-3.442,9.768l-17.117-2.419Z" transform="translate(-425.955 -1124.891)"/><path class="d" d="M442.386,1138.508a.866.866,0,0,1-.127-.009l-17.116-2.419a.907.907,0,0,1-.668-1.335l6.047-10.977a.91.91,0,0,1,1.014-.442l14.512,3.628a.908.908,0,0,1,.633.57c1,2.755,1.469,8.582-3.936,10.91A.913.913,0,0,1,442.386,1138.508Zm-15.688-4.04,15.555,2.2c4.175-1.972,3.272-6.606,2.861-8.077l-13.341-3.335Z" transform="translate(-424.362 -1123.299)"/></g><path class="f" d="M266.2,1086.681s-83.6-9.908-92.654-16.248a15.9,15.9,0,0,1-4.774-5.611c-4.454-8.365-3.728-21.355,5.861-27.093a22.594,22.594,0,0,1,11.8-2.9l83.86,30.265S275.685,1077.006,266.2,1086.681Z" transform="translate(-166.137 -1034.834)"/><g transform="translate(19.254 3.42)"><path class="d" d="M300.025,1093.6a.9.9,0,0,1-.107-.007c-.54-.064-54.339-6.472-79.989-12.219a.907.907,0,1,1,.4-1.77c24.316,5.448,74.1,11.5,79.359,12.134,7.687-8.172,4.49-17.973,3.747-19.912l-71.491-25.8a.907.907,0,0,1,.616-1.706l71.871,25.938a.907.907,0,0,1,.518.478c.056.125,5.538,12.589-4.272,22.592A.908.908,0,0,1,300.025,1093.6Z" transform="translate(-219.22 -1044.263)"/></g><g transform="translate(93.323 29.731)"><path class="d" d="M424.328,1135.11a.907.907,0,0,1-.737-1.434,20.975,20.975,0,0,0,3.329-15.755.907.907,0,1,1,1.762-.428,22.526,22.526,0,0,1-3.616,17.238A.906.906,0,0,1,424.328,1135.11Z" transform="translate(-423.422 -1116.8)"/></g><path class="c" d="M191.645,1057.18a14.82,14.82,0,0,1-22.877,12.44c-4.454-8.365-3.728-21.355,5.861-27.093a14.818,14.818,0,0,1,17.016,14.653Z" transform="translate(-166.137 -1039.632)"/></g></g><g transform="translate(203.308 388.124)"><g transform="translate(0 0)"><path class="e" d="M282.013,667.6s21.768-15.628,67.164-11.721c0,0,12.837,10.977,9.861,43.536s-3.721,82.979-3.721,82.979h-86.7S268.059,731.413,282.013,667.6Z" transform="translate(-268.615 -648.511)"/><g transform="translate(2.569 127.268)"><path class="d" d="M353.754,989.355H276.6a.907.907,0,1,1,0-1.814h77.149a.907.907,0,0,1,0,1.814Z" transform="translate(-275.698 -987.541)"/></g><g transform="translate(81.528 8.567)"><path class="d" d="M502.622,689.77a.907.907,0,0,1-.9-.863c-.751-15.31-5.428-23.589-8.149-27.161a.907.907,0,1,1,1.443-1.1c2.848,3.739,7.743,12.371,8.517,28.171a.907.907,0,0,1-.861.95Z" transform="translate(-493.383 -660.29)"/></g><g transform="translate(36.182)"><path class="c" d="M370.866,654.263a19.117,19.117,0,0,0,12.059,10.817,71.071,71.071,0,0,1,3.376-11.139,28.9,28.9,0,0,1,4.566,11.084,13.686,13.686,0,0,0,9.926-11.016c-1.088-8.584-8.471-15.048-14.806-14.833C371.984,639.652,370.866,654.263,370.866,654.263Z" transform="translate(-369.959 -638.264)"/><path class="d" d="M381.332,664.394a.913.913,0,0,1-.271-.041,20.115,20.115,0,0,1-12.621-11.325.912.912,0,0,1-.071-.427c.012-.154,1.349-15.427,15.994-15.925,6.481-.219,14.535,6.143,15.737,15.625a.883.883,0,0,1,0,.221c-.01.092-1.2,9.2-10.586,11.784a.907.907,0,0,1-1.136-.734,28.883,28.883,0,0,0-3.449-9.241,63.312,63.312,0,0,0-2.7,9.319.908.908,0,0,1-.892.744ZM370.2,652.525a18.219,18.219,0,0,0,10.446,9.768,74.967,74.967,0,0,1,3.221-10.281.907.907,0,0,1,1.576-.2,29.815,29.815,0,0,1,4.532,10.45,12.667,12.667,0,0,0,8.312-9.853c-1.1-8.209-8.214-14.113-13.861-13.923a13.388,13.388,0,0,0-12.047,7.251A19.746,19.746,0,0,0,370.2,652.525Z" transform="translate(-368.366 -636.671)"/></g></g></g><g transform="translate(211.831 479.174)"><g transform="translate(0)"><g transform="translate(60.812)"><path class="c" d="M535.369,954.813h-70a3.1,3.1,0,0,1-3-3.879l15.137-58.42a3.1,3.1,0,0,1,3-2.323h70a3.1,3.1,0,0,1,3,3.879l-15.138,58.42A3.1,3.1,0,0,1,535.369,954.813Z" transform="translate(-461.361 -889.284)"/><path class="d" d="M533.776,954.126h-70a4.007,4.007,0,0,1-3.88-5.013l15.137-58.42a4.008,4.008,0,0,1,3.88-3h70a4.007,4.007,0,0,1,3.879,5.013l-15.137,58.42A4.007,4.007,0,0,1,533.776,954.126ZM478.915,889.5a2.194,2.194,0,0,0-2.124,1.643l-15.137,58.42a2.194,2.194,0,0,0,2.124,2.744h70a2.194,2.194,0,0,0,2.124-1.644l15.138-58.42a2.194,2.194,0,0,0-2.124-2.744Z" transform="translate(-459.767 -887.691)"/><g transform="translate(5.457)"><path class="c" d="M550.415,954.813h-70a3.1,3.1,0,0,1-3-3.879l15.137-58.42a3.1,3.1,0,0,1,3-2.323h70a3.1,3.1,0,0,1,3,3.879l-15.138,58.42A3.1,3.1,0,0,1,550.415,954.813Z" transform="translate(-476.407 -889.284)"/><path class="d" d="M548.821,954.126h-70a4.007,4.007,0,0,1-3.88-5.013l15.138-58.42a4.007,4.007,0,0,1,3.879-3h70a4.007,4.007,0,0,1,3.88,5.013L552.7,951.124A4.007,4.007,0,0,1,548.821,954.126ZM493.96,889.5a2.194,2.194,0,0,0-2.124,1.643L476.7,949.568a2.194,2.194,0,0,0,2.124,2.744h70a2.194,2.194,0,0,0,2.124-1.644l15.138-58.42a2.194,2.194,0,0,0-2.124-2.744Z" transform="translate(-474.813 -887.691)"/></g></g><g transform="translate(0 64.622)"><g transform="translate(52.714)"><rect class="c" width="83.803" height="6.202" rx="3.101" transform="translate(84.71 7.108) rotate(-180)"/><path class="d" d="M519.129,1073.864H441.371a3.934,3.934,0,0,1-3.929-3.93v-.156a3.934,3.934,0,0,1,3.929-3.929h77.758a3.933,3.933,0,0,1,3.929,3.929v.156A3.934,3.934,0,0,1,519.129,1073.864Zm-77.758-6.2a2.118,2.118,0,0,0-2.116,2.116v.156a2.119,2.119,0,0,0,2.116,2.116h77.758a2.118,2.118,0,0,0,2.116-2.116v-.156a2.118,2.118,0,0,0-2.116-2.116Z" transform="translate(-437.442 -1065.849)"/></g><rect class="c" width="59.908" height="6.202" rx="3.101" transform="translate(0.907 0.907)"/><path class="d" d="M349.9,1073.864H296.041a3.934,3.934,0,0,1-3.929-3.93v-.156a3.934,3.934,0,0,1,3.929-3.929H349.9a3.934,3.934,0,0,1,3.929,3.929v.156A3.934,3.934,0,0,1,349.9,1073.864Zm-53.863-6.2a2.118,2.118,0,0,0-2.116,2.116v.156a2.118,2.118,0,0,0,2.116,2.116H349.9a2.118,2.118,0,0,0,2.116-2.116v-.156a2.118,2.118,0,0,0-2.116-2.116Z" transform="translate(-292.112 -1065.849)"/></g></g></g><g transform="translate(193.135 406.144)"><g transform="translate(0 0)"><path class="e" d="M289.536,809.267l-11.256,7.814S258.235,799.618,247.4,786.87c-3.7-4.357-6.326-8.164-6.705-10.534-.316-1.969-.041-6.806.711-13.262,2.81-24.034,12.265-70.487,22.732-74.74,5.954-2.419,13.21,3.163,12.837,17.489s-7.814,63.071-7.814,63.071Z" transform="translate(-240.569 -687.266)"/><g transform="translate(10.681 103.993)"><path class="d" d="M280.3,984.344a.9.9,0,0,1-.631-.255c-3.544-3.434-6.709-6.633-9.406-9.508a.907.907,0,0,1,1.323-1.241c2.678,2.854,5.822,6.032,9.345,9.446a.907.907,0,0,1-.631,1.558Z" transform="translate(-270.016 -973.053)"/></g><g transform="translate(34.324 117.465)"><path class="d" d="M336.105,1018.179a.907.907,0,0,1-.5-1.664l9.365-6.171a.907.907,0,0,1,1,1.514l0,0-8.88,5.858a.852.852,0,0,1-.086.05l-.4.26A.9.9,0,0,1,336.105,1018.179Z" transform="translate(-335.198 -1010.194)"/></g><g transform="translate(27.688)"><path class="d" d="M333.916,800.8a.907.907,0,0,1-.81-.5L317,768.386a.905.905,0,0,1-.087-.545c.074-.487,7.438-48.853,7.8-62.958.272-10.456-3.536-15.518-7.19-16.768a.907.907,0,0,1,.587-1.716c4.263,1.458,8.713,7.092,8.415,18.531-.354,13.646-7.166,58.846-7.78,62.9l15.975,31.657a.907.907,0,0,1-.809,1.316Z" transform="translate(-316.903 -686.35)"/></g><g transform="translate(16.339 80.721)"><line class="c" x1="11.349" y2="3.225" transform="translate(0.907 0.907)"/><path class="d" d="M286.52,913.931a.907.907,0,0,1-.247-1.78l11.349-3.225a.907.907,0,1,1,.5,1.745L286.769,913.9A.917.917,0,0,1,286.52,913.931Z" transform="translate(-285.614 -908.893)"/></g><path class="c" d="M247.4,919.143c-3.7-4.357-6.326-8.164-6.705-10.534-.316-1.969-.041-6.806.711-13.262,4.19-.015,8.473,4.041,10.08,9.887C253.171,911.332,251.348,917.249,247.4,919.143Z" transform="translate(-240.569 -819.539)"/><g transform="translate(37.512 118.256)"><path class="c" d="M346.489,1025.035s1.85,5.189,6.408,4.91c0,0,5.907,6.558,8.744,6.884s8.7-2.325,8.884-4.93a2.864,2.864,0,0,0,2.884-3.4c-.419-3.349-5.768-12.419-8.931-13.489S354.117,1019.174,346.489,1025.035Z" transform="translate(-345.582 -1013.967)"/><path class="d" d="M360.537,1036.168a5.194,5.194,0,0,1-.593-.032c-2.811-.323-7.7-5.426-9.031-6.867-4.852-.017-6.79-5.292-6.873-5.523a.906.906,0,0,1,.3-1.024c9.689-7.444,15.559-11.267,18.833-10.161,3.564,1.205,9.077,10.532,9.54,14.235a3.8,3.8,0,0,1-.8,3.1,3.994,3.994,0,0,1-2.241,1.23,5.143,5.143,0,0,1-1.671,2.184A13.433,13.433,0,0,1,360.537,1036.168Zm-9.234-8.724a.907.907,0,0,1,.674.3c2.2,2.437,6.357,6.381,8.174,6.59,1.738.2,4.932-.954,6.7-2.42a2.831,2.831,0,0,0,1.177-1.674.907.907,0,0,1,.892-.842,2.523,2.523,0,0,0,1.638-.7,2.1,2.1,0,0,0,.358-1.676c-.413-3.3-5.706-11.857-8.321-12.742-2.876-.97-11.244,5.349-16.588,9.451.594,1.23,2.236,3.9,5.241,3.715Zm-6.408-4h0Z" transform="translate(-343.988 -1012.373)"/><g transform="translate(18.037 8.001)"><line class="c" x2="5.163" y2="7.628" transform="translate(0.907 0.907)"/><path class="d" d="M399.785,1043.873a.906.906,0,0,1-.752-.4l-5.163-7.628a.907.907,0,0,1,1.5-1.016l5.163,7.628a.907.907,0,0,1-.75,1.415Z" transform="translate(-393.715 -1034.431)"/></g></g></g></g><g transform="translate(246.411 370.825)"><g transform="translate(0 0)"><path class="c" d="M389.948,591.478l.229,8.609.389,14.727c4.954,3.462,9.772,3.828,14.419.338l-.681-6.841-1.031-10.362Z" transform="translate(-389.041 -590.571)"/><path class="d" d="M396.665,616.913a14.392,14.392,0,0,1-8.212-2.949.907.907,0,0,1-.387-.719l-.617-23.336a.907.907,0,0,1,1.3-.84l13.325,6.471a.907.907,0,0,1,.506.726l1.711,17.2a.908.908,0,0,1-.358.815A11.971,11.971,0,0,1,396.665,616.913Zm-6.8-4.179c4.515,3.012,8.636,3.143,12.571.4l-1.609-16.18-11.527-5.6Z" transform="translate(-387.448 -588.979)"/></g></g><g transform="translate(234.789 343.034)"><g transform="translate(0 0)"><g transform="translate(7.319 11.137)"><path class="c" d="M404.415,558.272c.781,7.075.542,15.788-8.043,16.275-10.206.577-18.085-5.042-20.185-14.423s1.1-15.608,12.589-16.937a17.631,17.631,0,0,1,2.944-.1c6.85.361,11.256,5.034,12.2,11.418C404.087,555.659,404.271,556.936,404.415,558.272Z" transform="translate(-375.584 -543.065)"/></g><g transform="translate(16.196 10.252)"><path class="d" d="M410.567,573.938a21.724,21.724,0,0,1-10.023-2.316.907.907,0,1,1,.836-1.609,20.364,20.364,0,0,0,10.535,2.074,7.011,7.011,0,0,0,5.267-2.34c2.659-3.143,2.373-8.884,1.926-12.93-.143-1.326-.322-2.571-.494-3.734-.922-6.246-5.27-10.325-11.349-10.645a.907.907,0,1,1,.1-1.811c6.993.369,11.992,5.04,13.047,12.191.167,1.128.357,2.446.5,3.8.483,4.375.766,10.621-2.344,14.3a8.84,8.84,0,0,1-6.55,2.979Q411.288,573.938,410.567,573.938Z" transform="translate(-400.055 -540.625)"/></g><path class="d" d="M362.519,542.951a29.529,29.529,0,0,0,4.021,3.18l5.048-.755.309-3.754s3.131-.816,3.329-3.09a1.245,1.245,0,0,0,.009-.158,28.07,28.07,0,0,0-1.508-8.734s8.317,1.731,12.548,1.283a9.614,9.614,0,0,0,4.583-2.249c2.9-2.292,4.6-8.173,3.271-11.62l-.026-.066c-2.007-5.038-3.957-.834-3.957-.834s-1.679-4.043-4.38-3.783-3.55,4.509-3.55,4.509a42.475,42.475,0,0,0-15.583,2.656c-9.861,3.735-5.824,10.215-5.824,10.215S353.829,533.763,362.519,542.951Z" transform="translate(-357.16 -512.36)"/><g transform="translate(0 25.082)"><path class="c" d="M370.225,590.731a7.407,7.407,0,0,0-7.973-6.689,6.728,6.728,0,0,0-2.447.708c-4.583,2.353-.887,13.406,10.832,10Z" transform="translate(-356.992 -583.102)"/><path class="d" d="M364.863,594.7c-4.643,0-7.751-2.465-8.944-5.463-1.134-2.849-.341-5.746,1.884-6.888a7.639,7.639,0,0,1,2.774-.8,8.307,8.307,0,0,1,8.962,7.5.907.907,0,1,1-1.8.185,6.493,6.493,0,0,0-6.984-5.879,5.843,5.843,0,0,0-2.12.612c-1.376.706-1.808,2.643-1.027,4.6,1.147,2.882,4.767,5.585,11.192,3.717a.907.907,0,0,1,.506,1.741A15.912,15.912,0,0,1,364.863,594.7Z" transform="translate(-355.405 -581.508)"/></g></g></g><g transform="translate(229.615 261.451)"><g transform="translate(0)"><g transform="translate(23.426)"><g transform="translate(6.333)"><path class="d" d="M424.095,293.452a.907.907,0,0,1-.907-.907v-4.2a.907.907,0,1,1,1.814,0v4.2A.907.907,0,0,1,424.095,293.452Z" transform="translate(-423.188 -287.44)"/></g><g transform="translate(8.467 6.333)"><path class="d" d="M434.177,306.714h-4.2a.907.907,0,1,1,0-1.814h4.2a.907.907,0,0,1,0,1.814Z" transform="translate(-429.071 -304.9)"/></g><g transform="translate(6.333 8.467)"><path class="d" d="M424.095,316.8a.907.907,0,0,1-.907-.907v-4.2a.907.907,0,0,1,1.814,0v4.2A.907.907,0,0,1,424.095,316.8Z" transform="translate(-423.188 -310.783)"/></g><g transform="translate(0 6.333)"><path class="d" d="M410.834,306.714h-4.2a.907.907,0,0,1,0-1.814h4.2a.907.907,0,0,1,0,1.814Z" transform="translate(-405.728 -304.9)"/></g></g><g transform="translate(294.555 213.675)"><g transform="translate(4.049)"><path class="d" d="M1165.283,881.026a.907.907,0,0,1-.907-.907v-2.685a.907.907,0,0,1,1.814,0v2.685A.907.907,0,0,1,1165.283,881.026Z" transform="translate(-1164.376 -876.528)"/></g><g transform="translate(5.414 4.049)"><path class="d" d="M1171.729,889.5h-2.684a.907.907,0,1,1,0-1.814h2.684a.907.907,0,1,1,0,1.814Z" transform="translate(-1168.138 -887.691)"/></g><g transform="translate(4.049 5.413)"><path class="d" d="M1165.283,895.951a.907.907,0,0,1-.907-.907v-2.685a.907.907,0,1,1,1.814,0v2.685A.907.907,0,0,1,1165.283,895.951Z" transform="translate(-1164.376 -891.452)"/></g><g transform="translate(0 4.049)"><path class="d" d="M1156.8,889.5h-2.685a.907.907,0,1,1,0-1.814h2.685a.907.907,0,1,1,0,1.814Z" transform="translate(-1153.213 -887.691)"/></g></g><g transform="translate(84.034 172.782)"><g transform="translate(6.333)"><path class="d" d="M591.185,769.8a.907.907,0,0,1-.907-.907v-4.2a.907.907,0,0,1,1.814,0v4.2A.907.907,0,0,1,591.185,769.8Z" transform="translate(-590.278 -763.79)"/></g><g transform="translate(8.467 6.333)"><path class="d" d="M601.268,783.064h-4.2a.907.907,0,0,1,0-1.814h4.2a.907.907,0,0,1,0,1.814Z" transform="translate(-596.162 -781.25)"/></g><g transform="translate(6.333 8.467)"><path class="d" d="M591.185,793.146a.907.907,0,0,1-.907-.907v-4.2a.907.907,0,0,1,1.814,0v4.2A.907.907,0,0,1,591.185,793.146Z" transform="translate(-590.278 -787.133)"/></g><g transform="translate(0 6.333)"><path class="d" d="M577.925,783.064h-4.2a.907.907,0,0,1,0-1.814h4.2a.907.907,0,0,1,0,1.814Z" transform="translate(-572.819 -781.25)"/></g></g><circle class="g" cx="3.123" cy="3.123" r="3.123" transform="translate(0 58.047)"/><circle class="e" cx="6.106" cy="6.106" r="6.106" transform="translate(345.659 276.24)"/><circle class="e" cx="5.08" cy="5.08" r="5.08" transform="translate(139.565 287.902)"/></g></g></g></g></svg>