<svg xmlns="http://www.w3.org/2000/svg" xmlns:xlink="http://www.w3.org/1999/xlink" width="584" height="438" viewBox="0 0 584 438"><defs><style>.a,.c,.g{fill:#fff;}.a{stroke:#707070;}.b{clip-path:url(#a);}.d{fill:#3b3a3c;}.e{fill:#2c3b44;}.f{fill:#c31e23;}.g,.h{stroke:#262424;stroke-linecap:round;stroke-linejoin:round;}.h{fill:none;}</style><clipPath id="a"><rect class="a" width="584" height="438" transform="translate(-1615 3380)"/></clipPath></defs><g class="b" transform="translate(1615 -3380)"><g transform="translate(-1784.184 3318.866)"><g transform="translate(300.814 185.162)"><g transform="translate(0 0)"><g transform="translate(66.02 103.515)"><path class="c" d="M552.126,742.132l4.1,15.365,9-1.445-2.259-15.765Z" transform="translate(-551.574 -739.734)"/><path class="d" d="M555.095,756.923a.552.552,0,0,1-.533-.41l-4.1-15.365a.552.552,0,0,1,.441-.687l10.835-1.845a.553.553,0,0,1,.64.466l2.259,15.765a.552.552,0,0,1-.46.624l-9,1.445A.572.572,0,0,1,555.095,756.923Zm-3.406-15.474,3.812,14.3,7.968-1.28-2.1-14.666Z" transform="translate(-550.446 -738.608)"/><g transform="translate(3.595 14.011)"><path class="e" d="M599.251,804.246l.3,2.862-35.373,3.69s-.27-1.482-.642-3.982a196.254,196.254,0,0,1-2.157-22.45l12.779-3.162a80.61,80.61,0,0,0,18.5,16.195c1.023.658,2.005,1.416,3.076,2.065A6.621,6.621,0,0,1,599.251,804.246Z" transform="translate(-561.376 -781.204)"/><g transform="translate(7.219 3.116)"><path class="d" d="M596.461,805.131a.55.55,0,0,1-.356-.13,71.1,71.1,0,0,1-12.692-13.47.552.552,0,1,1,.924-.606,70.048,70.048,0,0,0,12.48,13.23.553.553,0,0,1-.356.975Z" transform="translate(-583.322 -790.676)"/></g><g transform="translate(3.319 11.844)"><ellipse class="c" cx="3.158" cy="3.515" rx="3.158" ry="3.515" transform="matrix(0.995, -0.104, 0.104, 0.995, 0.209, 0.895)"/><path class="d" d="M575.248,825.34a3.949,3.949,0,0,1-3.758-3.679,4.255,4.255,0,0,1,.764-2.95,3.531,3.531,0,0,1,2.5-1.481,3.91,3.91,0,0,1,4.112,3.661,4.255,4.255,0,0,1-.765,2.95,3.48,3.48,0,0,1-2.858,1.5Zm-.135-7.023a2.375,2.375,0,0,0-.24.013,2.438,2.438,0,0,0-1.724,1.031,3.147,3.147,0,0,0-.56,2.186,2.8,2.8,0,0,0,2.9,2.676,2.438,2.438,0,0,0,1.724-1.031,3.151,3.151,0,0,0,.559-2.186A2.847,2.847,0,0,0,575.113,818.317Z" transform="translate(-571.465 -817.213)"/></g><g transform="translate(1.605 15.564)"><path class="c" d="M603.652,837.126l.3,2.862-35.373,3.69s-.27-1.482-.642-3.982l18.674-1.948s.326-8.443,10.452-7.47c.98.721,2.005,1.416,3.076,2.065A6.621,6.621,0,0,1,603.652,837.126Z" transform="translate(-567.382 -829.648)"/><path class="d" d="M567.45,843.1a.553.553,0,0,1-.543-.453c0-.015-.276-1.519-.645-4a.553.553,0,0,1,.489-.631l18.225-1.9a8.9,8.9,0,0,1,2.828-5.44c1.959-1.712,4.711-2.412,8.182-2.077a.546.546,0,0,1,.275.1c1.008.741,2.029,1.427,3.035,2.037a7.173,7.173,0,0,1,3.779,5.2h0l.3,2.862a.553.553,0,0,1-.492.607l-35.374,3.69A.558.558,0,0,1,567.45,843.1Zm-.01-4.045c.2,1.337.37,2.333.465,2.889l34.311-3.579-.241-2.313h0a6.11,6.11,0,0,0-3.253-4.368c-.993-.6-2-1.275-2.993-2-3.084-.269-5.505.343-7.2,1.824a7.9,7.9,0,0,0-2.5,5.131.553.553,0,0,1-.5.528Z" transform="translate(-566.255 -828.52)"/></g></g></g><path class="e" d="M431.376,533.795s-11.324,4.321-17.512,1.434l-11.589-40.414s-41.894-23.5-46.445-29.5-13.785-39.967,6.485-41.3,22.2,9.655,22.2,9.655l2.686,13.6s20.832,21.441,29.95,30.623c2.93,2.952,5.043,5.373,5.505,6.612a55.369,55.369,0,0,1,1.535,6.629C426.673,503.973,431.376,533.795,431.376,533.795Z" transform="translate(-349.738 -423.91)"/><path class="c" d="M555.068,601.292a7.443,7.443,0,0,1-1.971.481,7.549,7.549,0,0,1-5.07-13.722c2.93,2.952,5.043,5.373,5.505,6.612A55.352,55.352,0,0,1,555.068,601.292Z" transform="translate(-480.613 -534.059)"/><g transform="translate(64.176 104.856)"><path class="d" d="M550.8,745.764a21.821,21.821,0,0,1-5.557-.661.553.553,0,0,1,.3-1.063,22.751,22.751,0,0,0,14.293-1.305.552.552,0,1,1,.464,1A22.631,22.631,0,0,1,550.8,745.764Z" transform="translate(-544.841 -742.684)"/></g><g transform="translate(5.589 21.882)"><path class="d" d="M428.62,573.075a.553.553,0,0,1-.532-.4l-10.142-36.3-46.524-28.767a.551.551,0,0,1-.242-.324l-4.432-16.152a.553.553,0,0,1,1.066-.292l4.374,15.943,46.523,28.766a.553.553,0,0,1,.242.321l10.2,36.5a.554.554,0,0,1-.533.7Z" transform="translate(-366.728 -490.433)"/></g><g transform="translate(8.767 21.382)"><path class="d" d="M376.944,502.1a.552.552,0,0,1-.369-.964c1.817-1.631,3.382-3.409,3.415-3.883-.03-.7-1.222-5.057-1.967-7.635a.553.553,0,1,1,1.062-.307c.2.7,1.964,6.826,2.009,7.9.049,1.176-2.628,3.709-3.781,4.744A.55.55,0,0,1,376.944,502.1Z" transform="translate(-376.391 -488.914)"/></g></g></g><g transform="translate(277.6 183.922)"><g transform="translate(0)"><g transform="translate(31.463 117.112)"><g transform="translate(6.184)"><path class="c" d="M396.058,777.856,395.3,793.74l9.011,1.355,2.635-15.706Z" transform="translate(-394.743 -777.303)"/><path class="d" d="M403.18,794.519a.545.545,0,0,1-.083-.006l-9.011-1.355a.553.553,0,0,1-.47-.573l.762-15.883a.553.553,0,0,1,.629-.521l10.883,1.532a.552.552,0,0,1,.468.638l-2.634,15.706A.553.553,0,0,1,403.18,794.519Zm-8.436-2.379,7.98,1.2,2.451-14.611-9.722-1.369Z" transform="translate(-393.616 -776.175)"/></g><g transform="translate(0 15.556)"><path class="e" d="M411.905,853.908l-.585,2.818L376.5,849.5s.192-1.494.6-3.989a196.279,196.279,0,0,1,4.762-22.046l13.136.867A80.605,80.605,0,0,0,407.7,845.382c.776.938,1.481,1.958,2.3,2.9A6.621,6.621,0,0,1,411.905,853.908Z" transform="translate(-375.944 -823.466)"/><g transform="translate(12.609 2.289)"><path class="d" d="M421.64,848.071a.552.552,0,0,1-.468-.258,71.146,71.146,0,0,1-8-16.687.553.553,0,0,1,1.064-.3,70.053,70.053,0,0,0,7.874,16.4.552.552,0,0,1-.467.847Z" transform="translate(-413.149 -830.424)"/></g><g transform="translate(4.936 10.196)"><ellipse class="c" cx="3.515" cy="3.158" rx="3.515" ry="3.158" transform="matrix(0.203, -0.979, 0.979, 0.203, 0, 6.884)"/><path class="d" d="M393.663,862.66a3.413,3.413,0,0,1-.7-.072,3.529,3.529,0,0,1-2.342-1.725,4.354,4.354,0,0,1,1.16-5.591,3.488,3.488,0,0,1,5.177,1.074,4.254,4.254,0,0,1,.464,3.012h0a4.252,4.252,0,0,1-1.624,2.579A3.593,3.593,0,0,1,393.663,862.66Zm.258-7a2.5,2.5,0,0,0-1.485.507,3.25,3.25,0,0,0-.86,4.145,2.384,2.384,0,0,0,3.567.74,3.15,3.15,0,0,0,1.2-1.913h0A3.151,3.151,0,0,0,396,856.9a2.439,2.439,0,0,0-1.612-1.2A2.3,2.3,0,0,0,393.921,855.656Z" transform="translate(-389.984 -854.522)"/></g><g transform="translate(0 20.235)"><path class="c" d="M411.905,896.321l-.585,2.818L376.5,891.913s.192-1.494.6-3.989l18.384,3.814s2.875-7.945,12.226-3.944c.714.985,1.481,1.958,2.3,2.9A6.621,6.621,0,0,1,411.905,896.321Z" transform="translate(-375.944 -886.114)"/><path class="d" d="M410.194,898.56a.553.553,0,0,1-.113-.012l-34.824-7.225a.552.552,0,0,1-.436-.612c0-.015.2-1.531.6-4.006a.553.553,0,0,1,.658-.453l17.942,3.722a8.9,8.9,0,0,1,4.346-4.324c2.387-1.036,5.222-.866,8.427.505a.549.549,0,0,1,.23.183c.736,1.013,1.5,1.977,2.273,2.862a7.172,7.172,0,0,1,2.022,6.1h0l-.585,2.818A.553.553,0,0,1,410.194,898.56Zm-34.208-8.214,33.778,7.008.472-2.277a6.111,6.111,0,0,0-1.773-5.149c-.762-.874-1.517-1.821-2.244-2.815-2.856-1.193-5.349-1.345-7.413-.448a7.906,7.906,0,0,0-3.937,4.13.552.552,0,0,1-.632.353l-17.818-3.7C376.208,888.788,376.064,889.787,375.986,890.346Zm34.792,4.844h0Z" transform="translate(-374.817 -884.983)"/></g></g></g><path class="e" d="M331.275,546.166s-12.1.679-17.12-3.951l1.23-42.025s-32.782-35.107-35.3-42.206-1-42.266,18.718-37.378,18.221,15.94,18.221,15.94l-.1,19.291s11.872,21.239,17.771,32.757c1.895,3.7,3.173,6.65,3.238,7.971a55.281,55.281,0,0,1-.55,6.783C335.849,516.324,331.275,546.166,331.275,546.166Z" transform="translate(-279.165 -420.142)"/><g transform="translate(37.206 16.263)"><path class="d" d="M392.827,489.567a.546.546,0,0,1-.227-.049.552.552,0,0,1-.325-.507l.092-17.084a.552.552,0,0,1,.553-.549h0a.553.553,0,0,1,.55.556l-.086,15.841,2.2-1.959a3.558,3.558,0,0,0,1.189-2.681l-.094-13a.552.552,0,0,1,.548-.557h0a.552.552,0,0,1,.552.549l.094,13a4.662,4.662,0,0,1-1.559,3.513l-3.124,2.787A.553.553,0,0,1,392.827,489.567Z" transform="translate(-392.274 -469.583)"/></g><g transform="translate(37.206 35.142)"><path class="d" d="M403.79,548a.552.552,0,0,1-.484-.286L392.342,527.8a.553.553,0,0,1,.968-.533l10.963,19.923a.553.553,0,0,1-.484.819Z" transform="translate(-392.274 -526.977)"/></g><path class="c" d="M439.745,643a7.444,7.444,0,0,1-2.024-.141,7.549,7.549,0,0,1-.664-14.613c1.895,3.7,3.173,6.65,3.238,7.971A55.272,55.272,0,0,1,439.745,643Z" transform="translate(-381.528 -559.79)"/><g transform="translate(36.4 117.344)"><path class="d" d="M402.194,781.33a23.625,23.625,0,0,1-12.122-3.437.553.553,0,0,1,.612-.92,22.749,22.749,0,0,0,14.014,3.1.553.553,0,0,1,.138,1.1A21.236,21.236,0,0,1,402.194,781.33Z" transform="translate(-389.825 -776.881)"/></g><g transform="translate(5.497 19.226)"><path class="d" d="M330.8,576.008h-.02a.553.553,0,0,1-.533-.572l1.358-37.662-35.593-41.535a.553.553,0,0,1-.133-.382l.682-16.735a.553.553,0,0,1,1.1.045l-.673,16.518,35.592,41.534a.552.552,0,0,1,.133.38l-1.366,37.877A.553.553,0,0,1,330.8,576.008Z" transform="translate(-295.876 -478.59)"/></g><g transform="translate(5.69 20.204)"><path class="d" d="M297.015,493.693a.553.553,0,0,1-.227-1.056c2.227-1,4.257-2.222,4.433-2.662.186-.679.371-5.19.444-7.872a.553.553,0,0,1,1.1.03c-.02.724-.2,7.1-.485,8.14-.311,1.134-3.63,2.736-5.043,3.372A.551.551,0,0,1,297.015,493.693Z" transform="translate(-296.462 -481.564)"/></g></g></g><g transform="translate(316.411 100.121)"><g transform="translate(0)"><g transform="translate(68.042)"><path class="c" d="M605.689,179.871l5.223-11.074a1.263,1.263,0,0,1,1.526-.665h0a1.263,1.263,0,0,1,.825,1.573l-1.5,4.9,8.9-7.264a1.293,1.293,0,0,1,1.76.115h0a1.294,1.294,0,0,1,.03,1.741l-4.9,5.563,5.187-3.191a2.176,2.176,0,0,1,3.061.825,18.993,18.993,0,0,1,2.09,6.483,2.174,2.174,0,0,1-1.3,2.26l-11.331,4.908-6.784,1.234Z" transform="translate(-605.136 -166.498)"/><path class="d" d="M607.36,186.709a.553.553,0,0,1-.516-.357l-2.8-7.408a.555.555,0,0,1,.017-.431l5.222-11.074a1.816,1.816,0,0,1,3.379,1.306L611.7,171.9l7.495-6.114a1.846,1.846,0,0,1,2.553,2.65l-2.46,2.8,2.048-1.26a2.744,2.744,0,0,1,2.148-.311,2.7,2.7,0,0,1,1.691,1.347,19.621,19.621,0,0,1,2.151,6.674,2.738,2.738,0,0,1-1.628,2.836l-11.332,4.908a.544.544,0,0,1-.12.036L607.46,186.7A.565.565,0,0,1,607.36,186.709Zm-2.2-7.937,2.553,6.758,6.268-1.14,11.273-4.883a1.627,1.627,0,0,0,.97-1.683,18.515,18.515,0,0,0-2.03-6.293,1.624,1.624,0,0,0-2.284-.615l-5.187,3.191a.552.552,0,0,1-.7-.835l4.9-5.563a.741.741,0,0,0-1.025-1.064l-8.9,7.264a.553.553,0,0,1-.878-.59l1.5-4.9a.711.711,0,0,0-1.323-.511Z" transform="translate(-604.01 -165.376)"/></g><g transform="translate(0 12.148)"><path class="f" d="M470.1,212.806s-10.829,8.537-18.162,13.7a34.662,34.662,0,0,1-6.128,3.788,48.59,48.59,0,0,1-6.168.522c-8.771.445-23.993.739-27.7.357-5.075-.519-12.878-1.34-14.422-6.712s2.015-13.515,6.453-13.81c4.851-.321,37.25,1.083,37.25,1.083l23.75-9.424C469.678,204.613,470.1,212.806,470.1,212.806Z" transform="translate(-397.154 -202.306)"/><path class="c" d="M538.554,269.594a34.657,34.657,0,0,1-6.128,3.788,48.589,48.589,0,0,1-6.168.522,6.7,6.7,0,0,1,12.3-4.31Z" transform="translate(-483.768 -245.396)"/><g transform="translate(65.511 1.344)"><path class="d" d="M600.362,216.593h-.035a.553.553,0,0,1-.517-.586c.366-5.832-3.237-8.592-3.273-8.619a.553.553,0,1,1,.661-.885c.168.125,4.119,3.151,3.715,9.574A.553.553,0,0,1,600.362,216.593Z" transform="translate(-596.314 -206.391)"/></g><g transform="translate(44.05 10.146)"><path class="d" d="M534.678,243.312a.553.553,0,0,1-.552-.527,17.524,17.524,0,0,0-2.946-8.752.552.552,0,1,1,.887-.659,18.391,18.391,0,0,1,3.163,9.359.553.553,0,0,1-.526.578Z" transform="translate(-531.072 -233.151)"/></g></g></g></g><g transform="translate(276.833 103.109)"><path class="f" d="M337.681,255.038c-.347-15.62.482-33.388-24.45-29.79,0,0-15.651,1.138-21.211,7.759-2.646,3.151-12.826,37.8-15.187,70.318a21.281,21.281,0,0,0,5.28,3.345c.474-2.753,1.431-7.28,2.578-7.112,1.186.174.931,5.546.7,8.526a62.511,62.511,0,0,0,12.12,3.2c15.216,2.559,40.153-5.224,40.153-5.224S338.028,270.658,337.681,255.038Z" transform="translate(-276.833 -208.227)"/><g transform="translate(51.262 17.925)"><path class="d" d="M441.937,248.328a.552.552,0,0,1-.551-.514c-.48-6.929-1.855-14.464-8.41-17.814a.553.553,0,1,1,.5-.984c7.045,3.6,8.508,11.485,9.009,18.722a.552.552,0,0,1-.513.589Z" transform="translate(-432.675 -228.955)"/></g><g transform="translate(28.572 11.514)"><path class="c" d="M365.375,218.916c1.065,4.62,7.854,7.738,9.9,8.81a44.751,44.751,0,0,1,3.342-6.52,18.191,18.191,0,0,1,1.583,7.378,12.549,12.549,0,0,0,3.744-6.464c.29-5.439-3.557-10.272-7.505-10.851C367.708,209.991,365.375,218.916,365.375,218.916Z" transform="translate(-364.822 -210.591)"/><path class="d" d="M379.069,228.009a.552.552,0,0,1-.552-.566,18.192,18.192,0,0,0-1.113-6.154,40.044,40.044,0,0,0-2.743,5.5.553.553,0,0,1-.774.3c-.159-.083-.347-.179-.559-.287-2.567-1.31-8.58-4.38-9.619-8.888a.55.55,0,0,1,0-.264c.025-.094,2.564-9.387,11.675-8.054,4.03.59,8.3,5.428,7.977,11.427a.562.562,0,0,1-.01.079,13,13,0,0,1-3.934,6.782A.553.553,0,0,1,379.069,228.009Zm-1.583-8.483h.031a.553.553,0,0,1,.467.312,18.511,18.511,0,0,1,1.6,6.363,12.693,12.693,0,0,0,2.683-5.281c.257-5.231-3.495-9.713-7.036-10.231-7.664-1.122-10.082,6.009-10.409,7.11,1.018,3.937,6.609,6.791,9.012,8.018l.022.012a47.071,47.071,0,0,1,3.164-6.043A.552.552,0,0,1,377.486,219.526Z" transform="translate(-363.695 -209.464)"/></g><g transform="translate(34.259)"><path class="c" d="M384.9,176.14l-.825,5.358-1.413,9.166c2.68,2.7,5.623,3.469,8.893,1.829l.347-4.314.525-6.534Z" transform="translate(-382.11 -175.587)"/><path class="d" d="M387.085,192.777a8.372,8.372,0,0,1-5.942-2.851.551.551,0,0,1-.154-.473l2.238-14.524a.553.553,0,0,1,.872-.362l7.527,5.5a.552.552,0,0,1,.225.49l-.872,10.848a.552.552,0,0,1-.3.449A7.975,7.975,0,0,1,387.085,192.777Zm-4.96-3.435c2.469,2.387,5.019,2.932,7.779,1.663l.822-10.224L384.182,176Z" transform="translate(-380.983 -174.46)"/></g><g transform="translate(11.475 94.479)"><path class="d" d="M331.877,467.654a72.883,72.883,0,0,1-19.775-2.906.553.553,0,0,1,.338-1.053,71.677,71.677,0,0,0,20.091,2.85c10.721-.124,26.877-4.789,27.039-4.836a.552.552,0,1,1,.309,1.061c-.163.048-16.462,4.755-27.335,4.88C332.321,467.653,332.1,467.654,331.877,467.654Z" transform="translate(-311.718 -461.687)"/></g></g><g transform="translate(292.105 127.648)"><g transform="translate(0)"><path class="g" d="M547.228,340.243l11.884-6.538a1.4,1.4,0,0,1,1.8.4h0a1.4,1.4,0,0,1-.283,1.947l-4.527,3.42,12.709-.726a1.433,1.433,0,0,1,1.5,1.247h0a1.433,1.433,0,0,1-1.106,1.582l-8.008,1.807,6.728.51a2.41,2.41,0,0,1,2.209,2.731,21.051,21.051,0,0,1-2.34,7.174,2.41,2.41,0,0,1-2.635,1.183l-13.355-2.965-6.888-3.3Z" transform="translate(-472.011 -305.747)"/><path class="f" d="M396.356,294.71s-15.264.617-25.2.478c-3.864-.054-6.92-.223-7.959-.586a53.86,53.86,0,0,1-5.872-3.542c-8.157-5.3-22-14.937-25.08-17.69-4.215-3.765-10.68-9.575-8.573-15.4s10.594-10.813,14.768-8.192c4.56,2.866,32.709,25.189,32.709,25.189l27.431,6.988C401.3,287.084,396.356,294.71,396.356,294.71Z" transform="translate(-323.263 -249.063)"/><path class="h" d="M356.384,290.444c-8.239-5.4-21.175-14.424-24.136-17.075-4.215-3.765-10.68-9.575-8.573-15.4s10.594-10.813,14.768-8.192c4.56,2.866,32.709,25.189,32.709,25.189" transform="translate(-323.263 -249.063)"/><path class="c" d="M440.654,373.309c-3.864-.054-6.92-.223-7.959-.586a53.864,53.864,0,0,1-5.873-3.542,7.42,7.42,0,0,1,13.832,4.128Z" transform="translate(-392.758 -327.184)"/><path class="h" d="M538.033,350.76s1.6,5.125-2.78,10.432" transform="translate(-465.522 -317.308)"/><path class="h" d="M461.154,334.367a18.621,18.621,0,0,1-2.941,9.445" transform="translate(-413.823 -306.307)"/></g></g><g transform="translate(304.404 86.044)"><g transform="translate(0)"><g transform="translate(6.36 6.008)"><path class="c" d="M401.331,156.111c-1.1,5.408-3.349,11.783-9.8,10.1-7.671-2-12.152-8.015-11.475-15.439s4.519-11.26,13.314-9.513a13.735,13.735,0,0,1,2.2.625c4.971,1.893,7.113,6.388,6.293,11.325C401.709,154.1,401.542,155.091,401.331,156.111Z" transform="translate(-379.987 -140.844)"/></g><g transform="translate(9.743 6.499)"><path class="d" d="M400.43,168.04a8.491,8.491,0,0,1-2.137-.29,17.037,17.037,0,0,1-7.86-4.364.553.553,0,0,1,.785-.778,15.936,15.936,0,0,0,7.353,4.072,5.584,5.584,0,0,0,4.562-.495c2.758-1.719,3.923-6.065,4.559-9.184.21-1.014.373-1.978.523-2.879.815-4.9-1.462-9.01-5.944-10.718a.552.552,0,1,1,.393-1.033c5,1.906,7.548,6.477,6.641,11.931-.145.872-.317,1.888-.531,2.92-.677,3.317-1.938,7.955-5.057,9.9A6.1,6.1,0,0,1,400.43,168.04Z" transform="translate(-390.273 -142.335)"/></g><path class="d" d="M369.665,139.677a22.9,22.9,0,0,0,2.213,3.3l3.906.641,1.119-2.7s2.505.141,3.191-1.49a.985.985,0,0,0,.045-.114,21.778,21.778,0,0,0,.96-6.8s5.728,3.253,8.958,3.927a7.458,7.458,0,0,0,3.917-.571c2.682-1,5.335-4.941,5.174-7.8,0-.018,0-.037,0-.055-.285-4.2-2.723-1.555-2.723-1.555s-.279-3.383-2.335-3.832-3.691,2.486-3.691,2.486a32.928,32.928,0,0,0-12.133-1.739c-8.166.415-6.725,6.157-6.725,6.157S365.432,130.832,369.665,139.677Z" transform="translate(-365.698 -122.579)"/><g transform="translate(0 13.023)"><path class="c" d="M371.055,170.806a5.744,5.744,0,0,0-4.3-6.831,5.217,5.217,0,0,0-1.975-.059c-3.942.648-3.837,9.685,5.621,9.953Z" transform="translate(-361.78 -163.297)"/><path class="d" d="M369.278,173.3h-.016c-5.643-.16-8.383-3.415-8.6-6.571-.155-2.293,1.065-4.177,2.9-4.479a5.787,5.787,0,0,1,2.182.064,6.293,6.293,0,0,1,4.72,7.485.553.553,0,1,1-1.081-.229,5.185,5.185,0,0,0-3.874-6.176,4.689,4.689,0,0,0-1.767-.053c-1.261.207-2.093,1.6-1.978,3.314.166,2.463,2.237,5.392,7.525,5.541a.553.553,0,0,1-.015,1.1Z" transform="translate(-360.653 -162.17)"/></g></g></g><g transform="translate(525.669 179.632)"><g transform="translate(32.061 78.301)"><path class="c" d="M1132.474,655.251l20.671,9.011,2.526-5.977-18.737-11.461Z" transform="translate(-1131.921 -646.272)"/><path class="d" d="M1152.017,663.688a.548.548,0,0,1-.22-.046l-20.671-9.011a.552.552,0,0,1-.268-.765l4.46-8.427a.552.552,0,0,1,.777-.213l18.737,11.461a.553.553,0,0,1,.221.686l-2.526,5.977a.552.552,0,0,1-.3.3A.546.546,0,0,1,1152.017,663.688Zm-19.9-9.832,19.612,8.55,2.123-5.024-17.829-10.906Z" transform="translate(-1130.794 -645.144)"/></g><path class="e" d="M1080.153,438.451c-4.715,9.616-23.441,34.922-23.441,34.922l15.906,12.635-6.857,11.489s-15.834-6.629-24.986-11.266c-4.253-2.155-7.389-4.041-7.448-4.938-.051-.758.821-4.217,2.192-9.113,3.732-13.357,11.167-37.41,13.649-46.517,3.4-12.448,8.466-20.638,20.744-18.1C1083.86,410.435,1084.866,428.833,1080.153,438.451Z" transform="translate(-1033.325 -407.099)"/><path class="c" d="M1043.674,612.874a7.912,7.912,0,0,1-2.9,6.127c-4.253-2.155-7.389-4.041-7.448-4.938-.051-.758.821-4.217,2.192-9.114l.229,0A7.926,7.926,0,0,1,1043.674,612.874Z" transform="translate(-1033.325 -539.869)"/><g transform="translate(16.045 28.232)"><path class="d" d="M1099.874,544.717a.55.55,0,0,1-.313-.1l-17.218-11.874a.553.553,0,0,1-.138-.773l27.25-38.81a.553.553,0,1,1,.9.635l-26.93,38.354,16.759,11.558a.553.553,0,0,1-.314,1.008Z" transform="translate(-1082.104 -492.928)"/><g transform="translate(13.254 49.055)"><path class="d" d="M1122.949,652.746a.553.553,0,0,1-.478-.829l5.524-9.578a.553.553,0,0,1,.957.552l-5.524,9.578A.552.552,0,0,1,1122.949,652.746Z" transform="translate(-1122.397 -642.062)"/></g></g><g transform="translate(38.139 11.723)"><path class="d" d="M1154.981,460.353a.539.539,0,0,1-.128-.015l-1.492-.354a5.233,5.233,0,0,1-4.087-5.158c0-.136.012-.274.026-.412l1.131-11.177a.553.553,0,0,1,1.1.111l-1.131,11.177c-.011.111-.019.222-.021.333a4.124,4.124,0,0,0,3.237,4.05l.85.2.895-15.849a.553.553,0,1,1,1.1.063l-.932,16.508a.552.552,0,0,1-.552.521Z" transform="translate(-1149.273 -442.739)"/></g><g transform="translate(46.229 81.205)"><path class="e" d="M1196.374,655.656l-.061,25.069-.036,13.757-2.655-.008a4.16,4.16,0,0,1-.567-.037,5.634,5.634,0,0,1-4.31-3.465,54.738,54.738,0,0,0-4.2-7.646,60.429,60.429,0,0,0-10.675-12.362l.89-13.529a173.267,173.267,0,0,1,18.393-1.663C1195.121,655.653,1196.374,655.656,1196.374,655.656Z" transform="translate(-1173.865 -655.102)"/><g transform="translate(10.122 25.07)"><path class="c" d="M1218.091,731.868l-.036,13.757-2.655-.008a4.16,4.16,0,0,1-.567-.037,5.633,5.633,0,0,1-4.31-3.465,54.711,54.711,0,0,0-4.2-7.646C1207.956,733.575,1211.656,732.057,1218.091,731.868Z" transform="translate(-1205.765 -731.315)"/><path class="d" d="M1216.927,745.051h0l-2.655-.007a4.957,4.957,0,0,1-.636-.041,6.166,6.166,0,0,1-4.743-3.786,54.186,54.186,0,0,0-4.163-7.569.552.552,0,0,1,.2-.787c1.672-.914,5.457-2.477,12.022-2.67a.552.552,0,0,1,.569.554l-.036,13.757a.552.552,0,0,1-.553.551Zm-2.66-1.113,2.109.006.034-12.631a26.432,26.432,0,0,0-10.424,2.241,54.93,54.93,0,0,1,3.914,7.209,5.077,5.077,0,0,0,3.874,3.142A4.117,4.117,0,0,0,1214.267,743.938Z" transform="translate(-1204.637 -730.188)"/></g><g transform="translate(18.636)"><path class="c" d="M1232.769,694.473l2.655.007.1-38.828s-1.253,0-3.225.119l-.1,38.666A4.771,4.771,0,0,0,1232.769,694.473Z" transform="translate(-1231.647 -655.099)"/><path class="d" d="M1234.3,693.9h0l-2.655-.007a5.3,5.3,0,0,1-.635-.041.552.552,0,0,1-.485-.55l.1-38.666a.553.553,0,0,1,.519-.55c1.969-.121,3.214-.12,3.26-.119a.552.552,0,0,1,.551.554l-.1,38.828a.552.552,0,0,1-.552.551Zm-2.67-1.112h.017l2.1.005.094-37.715c-.462.009-1.194.03-2.119.081Z" transform="translate(-1230.52 -653.972)"/></g></g></g><g transform="translate(568.965 170.998)"><g transform="translate(0 0)"><g transform="translate(41.261 113.076)"><path class="c" d="M1292.066,732.26l14.047,12.817,4.225-4.925-11.418-13.859Z" transform="translate(-1291.514 -725.741)"/><path class="d" d="M1304.986,744.5a.551.551,0,0,1-.372-.144l-14.047-12.817a.553.553,0,0,1,.01-.825l6.854-5.966a.553.553,0,0,1,.789.066l11.418,13.858a.553.553,0,0,1-.007.711l-4.225,4.924a.552.552,0,0,1-.386.192Zm-13.217-13.36,13.168,12.015,3.552-4.14-10.762-13.062Z" transform="translate(-1290.387 -724.614)"/><g transform="translate(10.144 6.331)"><path class="e" d="M1346.111,745.977l-4.545,24.654-2.5,13.529-2.611-.483a4.131,4.131,0,0,1-.551-.138,5.633,5.633,0,0,1-3.62-4.18,54.687,54.687,0,0,0-2.769-8.275,60.416,60.416,0,0,0-8.291-14.072l3.3-13.152a173.3,173.3,0,0,1,18.394,1.654C1344.878,745.75,1346.111,745.977,1346.111,745.977Z" transform="translate(-1321.226 -743.861)"/><g transform="translate(7.739 25.776)"><path class="c" d="M1358.48,824.343l-2.5,13.529-2.611-.483a4.149,4.149,0,0,1-.552-.138,5.633,5.633,0,0,1-3.62-4.18,54.678,54.678,0,0,0-2.769-8.275C1348.2,824.21,1352.115,823.378,1358.48,824.343Z" transform="translate(-1345.879 -823.35)"/><path class="d" d="M1354.856,837.3a.543.543,0,0,1-.1-.009l-2.611-.482a4.8,4.8,0,0,1-.619-.155,6.167,6.167,0,0,1-3.989-4.573,54.2,54.2,0,0,0-2.741-8.192.553.553,0,0,1,.335-.74c1.809-.6,5.813-1.46,12.306-.476a.553.553,0,0,1,.461.647l-2.5,13.529a.553.553,0,0,1-.543.452Zm-8.807-13.277a55.038,55.038,0,0,1,2.561,7.793,5.076,5.076,0,0,0,3.249,3.784,3.63,3.63,0,0,0,.481.121l2.073.383,2.293-12.421A26.428,26.428,0,0,0,1346.049,824.022Z" transform="translate(-1344.752 -822.224)"/></g><g transform="translate(14.126 1.102)"><path class="c" d="M1366.405,787.054l2.611.482,7.042-38.184s-1.232-.227-3.194-.461l-7.012,38.025A4.709,4.709,0,0,0,1366.405,787.054Z" transform="translate(-1365.299 -748.339)"/><path class="d" d="M1367.888,786.962a.55.55,0,0,1-.1-.009l-2.611-.482h0a5.262,5.262,0,0,1-.618-.154.553.553,0,0,1-.379-.628l7.013-38.025a.553.553,0,0,1,.609-.448c1.957.233,3.178.456,3.229.465a.552.552,0,0,1,.443.644l-7.042,38.184a.551.551,0,0,1-.543.452Zm-2.51-1.577,2.067.381,6.84-37.09c-.456-.074-1.18-.184-2.1-.3l-6.824,37.005.017,0Z" transform="translate(-1364.171 -747.212)"/></g></g></g><path class="e" d="M1217.049,494.488l-9.933,9.73-30.569-25.246-1.034-.855-2.53-2.112a10.335,10.335,0,0,1-3.669-7.026c-.089-1.017-.19-2.193-.3-3.495,0-.012,0-.028,0-.04-.921-10.918-2.429-30.646-2.372-41.754.118-22.375-1.212-35.709,9.341-41.02,13.967-7.026,23.867,7.427,23.454,24.179s-8.271,55.96-8.271,55.96Z" transform="translate(-1166.082 -380.851)"/><path class="c" d="M1182.9,646.643a8.616,8.616,0,0,1-1.512,4.885l-1.034-.855-2.53-2.112a10.334,10.334,0,0,1-3.669-7.026c-.089-1.017-.191-2.193-.3-3.495,0-.012,0-.028,0-.04.13-.008.263-.012.4-.012A8.656,8.656,0,0,1,1182.9,646.643Z" transform="translate(-1170.924 -553.406)"/><g transform="translate(4.465 92.533)"><path class="d" d="M1197.839,679.3a.548.548,0,0,1-.351-.127l-14.35-11.853-2.532-2.114a10.951,10.951,0,0,1-1.985-2.179.553.553,0,1,1,.91-.627,9.825,9.825,0,0,0,1.784,1.958l3.561,2.966,13.315,11a.553.553,0,0,1-.352.979Z" transform="translate(-1178.523 -662.163)"/></g><g transform="translate(0 18.898)"><path class="d" d="M1165.506,465.581a.552.552,0,0,1-.552-.549q-.009-1.406,0-2.792c.013-2.454.009-4.785,0-7.039-.012-6.3-.023-11.748.361-16.391a.553.553,0,1,1,1.1.091c-.379,4.6-.369,10.019-.357,16.3,0,2.256.009,4.589,0,7.047q-.007,1.379,0,2.78a.552.552,0,0,1-.549.556Z" transform="translate(-1164.948 -438.303)"/></g><g transform="translate(20.322 10.861)"><path class="d" d="M1231.048,432.47a.549.549,0,0,1-.3-.09l-1.134-.738a6.306,6.306,0,0,1-2.843-6.006l1.242-11.273a.553.553,0,1,1,1.1.121l-1.242,11.273a5.208,5.208,0,0,0,2.348,4.959l1.134.738a.553.553,0,0,1-.3,1.016Z" transform="translate(-1226.731 -413.871)"/></g><g transform="translate(16.765 13.492)"><path class="d" d="M1242.056,525.009a.552.552,0,0,1-.414-.187l-25.587-28.9a.553.553,0,0,1-.134-.437l9.463-73.139a.553.553,0,1,1,1.1.142l-9.431,72.89,25.421,28.708a.553.553,0,0,1-.414.919Z" transform="translate(-1215.916 -421.869)"/></g><g transform="translate(38.708 111.413)"><path class="d" d="M1283.178,728.214a.552.552,0,0,1-.379-.955l8.007-7.551a.553.553,0,1,1,.758.8l-8.007,7.551A.55.55,0,0,1,1283.178,728.214Z" transform="translate(-1282.626 -719.559)"/></g></g></g><g transform="translate(474.203 118.855)"><g transform="translate(0 0)"><g transform="translate(0 5.288)"><path class="c" d="M896.839,247.623l-7.4-7.238a1.068,1.068,0,0,0-1.405-.077h0a1.068,1.068,0,0,0-.19,1.49l2.63,3.441-9.2-3.133a1.094,1.094,0,0,0-1.36.61h0a1.094,1.094,0,0,0,.49,1.389l5.52,2.967-5.052-1a1.84,1.84,0,0,0-2.183,1.557,16.066,16.066,0,0,0,.254,5.754,1.839,1.839,0,0,0,1.7,1.408l10.427.55,5.741-1.022Z" transform="translate(-877.988 -239.53)"/><path class="d" d="M889.939,254.769h-.029l-10.427-.55a2.4,2.4,0,0,1-2.2-1.834,16.681,16.681,0,0,1-.264-5.954,2.365,2.365,0,0,1,.978-1.623,2.406,2.406,0,0,1,1.86-.4l1.436.285-2.273-1.222a1.646,1.646,0,0,1,1.311-3.009l7.476,2.546-1.526-2a1.621,1.621,0,0,1,2.421-2.143l7.4,7.238a.554.554,0,0,1,.166.4l-.035,6.7a.553.553,0,0,1-.456.541l-5.74,1.022A.527.527,0,0,1,889.939,254.769Zm-10.557-9.305a1.288,1.288,0,0,0-1.272,1.113,15.559,15.559,0,0,0,.244,5.554,1.289,1.289,0,0,0,1.187.982l10.364.547,5.224-.93.031-6-7.236-7.073a.515.515,0,0,0-.77.682l2.63,3.441a.553.553,0,0,1-.617.859l-9.2-3.133a.541.541,0,0,0-.431.989l5.519,2.967a.552.552,0,0,1-.369,1.029l-5.052-1A1.328,1.328,0,0,0,879.382,245.464Z" transform="translate(-876.862 -238.406)"/></g><g transform="translate(17.443)"><path class="e" d="M930.581,244.345s16.329,3.889,23.662,5.818a29.288,29.288,0,0,0,5.973,1.2,41.112,41.112,0,0,0,5.043-1.4c7.083-2.232,21.479-7.477,24.3-8.873,3.869-1.907,9.811-4.858,9.453-9.57s-5.58-10.118-9.185-9.043c-3.939,1.175-31.449,12.828-31.449,12.828l-26.831-.784C928.5,237.726,930.581,244.345,930.581,244.345Z" transform="translate(-929.89 -222.329)"/><path class="c" d="M1003.928,297.861a29.3,29.3,0,0,0,5.973,1.2,41.12,41.12,0,0,0,5.043-1.4,5.663,5.663,0,0,0-11.015.208Z" transform="translate(-979.574 -270.028)"/><g transform="translate(2.04 12.614)"><path class="d" d="M937.575,270.022a.553.553,0,0,1-.505-.328,9.476,9.476,0,0,1,.129-8.764.552.552,0,0,1,.929.6,8.39,8.39,0,0,0-.048,7.716.553.553,0,0,1-.5.777Z" transform="translate(-936.09 -260.677)"/></g><g transform="translate(27.462 13.581)"><path class="d" d="M1014.61,272.8a.553.553,0,0,1-.527-.385,15.652,15.652,0,0,1-.252-8.4.553.553,0,0,1,1.061.309,14.8,14.8,0,0,0,.244,7.755.552.552,0,0,1-.527.721Z" transform="translate(-1013.378 -263.617)"/></g></g></g></g><g transform="translate(541.876 93.523)"><path class="f" d="M1092.9,221.9l10.676,1.311,15.141.348a11.8,11.8,0,0,1,11.126,8.729l7.448,27.635,8.991,27.534s-23.038,12.737-36.15,12.174-27.533-8.429-27.533-8.429,6.743-23.787,7.492-34.651c0,0-4.87-8.99-5.994-13.3S1092.9,221.9,1092.9,221.9Z" transform="translate(-1082.594 -196.71)"/><g transform="translate(0.862 26.072)"><path class="d" d="M1088.655,252.592a.553.553,0,0,1-.5-.316,45.43,45.43,0,0,1-2.84-7.084c-.925-3.547,4.641-14.258,8.041-20.328a.553.553,0,1,1,.964.54c-4.3,7.669-8.636,16.821-7.936,19.509a44.428,44.428,0,0,0,2.77,6.891.553.553,0,0,1-.5.789Z" transform="translate(-1085.213 -224.58)"/></g><g transform="translate(14.226 22.155)"><path class="c" d="M1133.006,214.751c-5.173,1.536-8.235,8.927-2.011,11.944a16.145,16.145,0,0,1,1.446-4.589,12.265,12.265,0,0,0,2.2,4.589s5.532-2.766,6.287-7.167S1137.03,213.557,1133.006,214.751Z" transform="translate(-1126.971 -213.808)"/><path class="d" d="M1133.514,226.112a.553.553,0,0,1-.419-.192,11.2,11.2,0,0,1-1.888-3.407,20.948,20.948,0,0,0-.794,3.135.553.553,0,0,1-.787.408,6.024,6.024,0,0,1-3.761-6,8.329,8.329,0,0,1,5.857-6.967c2.757-.819,5.6-.4,7.257,1.066a4.458,4.458,0,0,1,1.366,4.335c-.792,4.623-6.348,7.449-6.584,7.567A.552.552,0,0,1,1133.514,226.112Zm-2.2-5.694a.581.581,0,0,1,.092.008.552.552,0,0,1,.447.422,12.327,12.327,0,0,0,1.8,4c1.234-.71,5.016-3.139,5.6-6.553a3.392,3.392,0,0,0-1.01-3.322c-1.351-1.2-3.847-1.534-6.208-.833h0a7.287,7.287,0,0,0-5.07,6,4.739,4.739,0,0,0,2.5,4.571,14.079,14.079,0,0,1,1.379-4.035A.552.552,0,0,1,1131.313,220.418Zm.566-6.8h0Z" transform="translate(-1125.844 -212.672)"/></g><path class="d" d="M1115.294,150.974s.88,13.924-.44,21c0,0,10.924,2.385,17.3-2.527s2.566-23.826-2.493-24.12S1115.294,150.974,1115.294,150.974Z" transform="translate(-1104.243 -145.318)"/><g transform="translate(16.371 15.156)"><path class="c" d="M1134.208,194.274l-.166,9.721s1.642,2.623,3.943,2.535,4.306-2.75,4.306-2.75l-.925-10.705Z" transform="translate(-1133.49 -192.521)"/><path class="d" d="M1136.744,205.957c-2.517,0-4.224-2.681-4.3-2.8a.551.551,0,0,1-.084-.3l.165-9.721a.553.553,0,0,1,.462-.536l7.158-1.2a.553.553,0,0,1,.642.5l.925,10.7a.553.553,0,0,1-.109.38c-.088.117-2.191,2.873-4.726,2.97Zm-3.273-3.255c.346.489,1.678,2.2,3.367,2.148,1.711-.065,3.3-1.826,3.757-2.371l-.855-9.888-6.115,1.024Z" transform="translate(-1132.363 -191.394)"/></g><g transform="translate(4.234 87.555)"><path class="d" d="M1118.395,423.742l-.207,0c-9.4-.159-21.874-5.856-22.4-6.1a.553.553,0,1,1,.462-1c.127.058,12.794,5.842,21.957,6l.192,0c9.273,0,31.793-10.974,32.021-11.085a.553.553,0,0,1,.486.993C1149.964,413,1127.926,423.742,1118.395,423.742Z" transform="translate(-1095.465 -411.495)"/></g></g><g transform="translate(505.524 121.466)"><g transform="translate(0 0)"><g transform="translate(0 40.945)"><path class="c" d="M992.57,359.532l-10.888-3.066a1.166,1.166,0,0,0-1.388.661h0a1.168,1.168,0,0,0,.6,1.528l4.324,1.923-10.461,1.81a1.2,1.2,0,0,0-.985,1.3h0a1.2,1.2,0,0,0,1.2,1.076l6.846-.044-5.369,1.685a2.01,2.01,0,0,0-1.279,2.635,17.553,17.553,0,0,0,3.256,5.386,2.009,2.009,0,0,0,2.363.463l10.289-4.93,4.971-3.984Z" transform="translate(-973.209 -355.869)"/><path class="d" d="M978.785,374.509a2.558,2.558,0,0,1-1.906-.844,18.174,18.174,0,0,1-3.36-5.557,2.534,2.534,0,0,1,.087-2.029,2.576,2.576,0,0,1,1.543-1.331l1.852-.581-3.16.02h-.012a1.748,1.748,0,0,1-.3-3.47l8.669-1.5-2.661-1.184a1.72,1.72,0,0,1,1.165-3.227l10.888,3.066a.553.553,0,0,1,.337.27l3.472,6.44a.553.553,0,0,1-.141.693l-4.971,3.984a.546.546,0,0,1-.107.067l-10.289,4.93A2.56,2.56,0,0,1,978.785,374.509Zm1.9-11.471a.553.553,0,0,1,.166,1.08L975.48,365.8a1.457,1.457,0,0,0-.928,1.91,17.044,17.044,0,0,0,3.151,5.215,1.461,1.461,0,0,0,1.713.334l10.231-4.9,4.563-3.657-3.142-5.829-10.662-3a.615.615,0,0,0-.417,1.153l4.323,1.923a.553.553,0,0,1-.13,1.049l-10.461,1.81a.643.643,0,0,0,.11,1.276h0l6.846-.044Z" transform="translate(-972.082 -354.743)"/></g><g transform="translate(18.792)"><path class="e" d="M1033.611,283.531s17.7-4.816,25.739-6.805a32.03,32.03,0,0,0,6.355-1.98,44.911,44.911,0,0,0,4.1-3.986c5.624-5.848,16.687-18.413,18.666-21.231,2.713-3.854,6.868-9.794,4.057-14.126s-10.647-6.783-13.542-3.866c-3.163,3.189-23.448,28.763-23.448,28.763l-26.144,13.291C1028.154,278.27,1033.611,283.531,1033.611,283.531Z" transform="translate(-1029.211 -230.267)"/><path class="c" d="M1120.327,355.345a32.027,32.027,0,0,0,6.355-1.98,44.89,44.89,0,0,0,4.1-3.986,6.188,6.188,0,0,0-10.456,5.965Z" transform="translate(-1090.188 -308.886)"/><g transform="translate(2.012 42.695)"><path class="d" d="M1040.113,369.12a.553.553,0,0,1-.336-.113c-4.742-3.624-4.457-8.235-4.443-8.429a.559.559,0,0,1,.592-.51.553.553,0,0,1,.51.591c-.012.18-.231,4.227,4.012,7.47a.553.553,0,0,1-.336.992Z" transform="translate(-1035.326 -360.066)"/></g><g transform="translate(26.341 30.625)"><path class="d" d="M1114.311,332.092a.55.55,0,0,1-.382-.153,17.036,17.036,0,0,1-4.624-7.9.553.553,0,0,1,1.079-.237,16.213,16.213,0,0,0,4.307,7.337.552.552,0,0,1-.382.952Z" transform="translate(-1109.292 -323.37)"/></g></g></g></g><g transform="translate(546.952 87.435)"><g transform="translate(0 0)"><g transform="translate(3.056 3.483)"><g transform="translate(0.553 0.371)"><path class="c" d="M1109,151.648c-.032,5,1.828,10.882,7.863,11.09,4.436.153,9.663-4.88,10.448-11.584s-.032-12.535-8.152-12.629a19.546,19.546,0,0,0-2.594.182c-4.759.75-6.577,1.06-7.492,10.275C1108.99,149.8,1109,150.7,1109,151.648Z" transform="translate(-1108.996 -138.524)"/></g><path class="d" d="M1115.9,162.537c-.064,0-.128,0-.191,0-6.245-.215-8.432-6.156-8.4-11.646v-.359c0-.834,0-1.622.077-2.359.912-9.2,2.757-9.947,7.955-10.766a.553.553,0,0,1,.172,1.092c-4.6.725-6.153.97-7.027,9.783-.068.684-.069,1.445-.071,2.252v.363c-.016,2.413.467,10.3,7.329,10.536,1.355.044,2.937-.567,4.969-1.931a.553.553,0,0,1,.616.918C1119.159,161.877,1117.473,162.537,1115.9,162.537Z" transform="translate(-1107.316 -137.397)"/></g><path class="d" d="M1117.649,144.06a4.92,4.92,0,0,1-2.721-4.233c-.034-.6-.013-1.4-.117-2.141-3.825,3.315-10.6,4.905-13.546,5.465a2.241,2.241,0,0,1-2.4-1.07c-2.875-5.251,2-14.328,8.39-13.539,7.745-4.346,15.892.116,16.521,6.372C1124.478,141.848,1119.618,145.107,1117.649,144.06Z" transform="translate(-1098.025 -126.808)"/><path class="d" d="M1155.4,128.247s11.442,1.154,10.782,28.595c0,0-3.28,3.152-10.782,4.963,0,0,3.231-12.9,1.765-19.572A93.1,93.1,0,0,1,1155.4,128.247Z" transform="translate(-1136.529 -127.774)"/><g transform="translate(19.284 13.904)"><path class="c" d="M1158.33,172.949s3.476-3.176,6.848-1.865,1.593,9.3-6.839,7.77Z" transform="translate(-1157.777 -170.212)"/><path class="d" d="M1159.232,178.464a11.869,11.869,0,0,1-2.119-.2.552.552,0,1,1,.2-1.087c4.681.849,7.041-1.338,7.643-3.469.415-1.47-.049-2.833-1.1-3.243-3.017-1.173-6.243,1.729-6.275,1.758a.553.553,0,0,1-.745-.816c.152-.139,3.771-3.39,7.421-1.972,1.6.62,2.338,2.543,1.765,4.573C1165.349,176.377,1163.031,178.464,1159.232,178.464Z" transform="translate(-1156.65 -169.079)"/></g></g></g><g transform="translate(365.68 308.327)"><g transform="translate(16.209 140.044)"><path class="c" d="M598.848,1225.778l-.952,14.8h7.92l3.223-14.183Z" transform="translate(-597.344 -1225.226)"/><path class="d" d="M604.689,1240h-7.92a.552.552,0,0,1-.551-.588l.952-14.8a.549.549,0,0,1,.585-.516l10.192.614a.553.553,0,0,1,.506.674l-3.224,14.183A.553.553,0,0,1,604.689,1240Zm-7.331-1.1h6.89l2.982-13.118-8.993-.542Z" transform="translate(-596.216 -1224.098)"/></g><path class="e" d="M625.025,819.464s-27.752,70.73-28.243,73.432-1.965,37.33-1.965,37.33l16.454-.245,8.35-30.7,40.522-52.557V810.868C660.144,801.536,639.514,784.345,625.025,819.464Z" transform="translate(-579.068 -798.347)"/><g transform="translate(29.44 39.966)"><path class="d" d="M636.993,1006.419a.544.544,0,0,1-.146-.02.553.553,0,0,1-.388-.679l7.122-26.033a.556.556,0,0,1,.083-.175L686.03,920.08a.552.552,0,1,1,.9.641l-42.307,59.353-7.1,25.938A.554.554,0,0,1,636.993,1006.419Z" transform="translate(-636.44 -919.847)"/></g><g transform="translate(43.93 22.529)"><path class="d" d="M682.654,876.784h-1.609a.552.552,0,1,1,0-1.1h1.609a5.273,5.273,0,0,0,4.606-2.71l3.248-5.847a.553.553,0,0,1,.966.536l-3.248,5.847A6.378,6.378,0,0,1,682.654,876.784Z" transform="translate(-680.492 -866.838)"/></g><g transform="translate(74.138 23.634)"><path class="d" d="M777.669,887.635a.551.551,0,0,1-.175-.028l-1.767-.589a4.966,4.966,0,0,1-3.4-4.717V872.1a.553.553,0,0,1,1.105,0v10.2a3.862,3.862,0,0,0,2.644,3.669l1.039.346V870.751a.553.553,0,0,1,1.105,0v16.332a.553.553,0,0,1-.553.553Z" transform="translate(-772.327 -870.198)"/></g><ellipse class="c" cx="9.444" cy="5.528" rx="9.444" ry="5.528" transform="translate(18.06 106.188) rotate(-81.888)"/><g transform="translate(0 151.434)"><path class="e" d="M579.932,1290.128H548.619a33.907,33.907,0,0,1,.645-6.171,11.085,11.085,0,0,1,1.658-4.236c2.3-3.04,9.946-15.38,12.157-21h12.341s3.684,19.432,4.052,21.919c.114.777.2,2,.269,3.315C579.888,1286.831,579.932,1290.128,579.932,1290.128Z" transform="translate(-548.066 -1258.723)"/><g transform="translate(0 24.682)"><path class="c" d="M579.932,1341.609H548.619a33.906,33.906,0,0,1,.645-6.171H579.74C579.888,1338.313,579.932,1341.609,579.932,1341.609Z" transform="translate(-548.066 -1334.887)"/><path class="d" d="M578.8,1341.035H547.492a.552.552,0,0,1-.553-.553,34.109,34.109,0,0,1,.657-6.286.552.552,0,0,1,.54-.437h30.477a.552.552,0,0,1,.552.524c.146,2.851.192,6.158.193,6.191a.553.553,0,0,1-.553.56Zm-30.749-1.1h30.187c-.018-.977-.064-3.076-.156-5.066h-29.5A33.916,33.916,0,0,0,548.055,1339.931Z" transform="translate(-546.939 -1333.76)"/></g></g><path class="f" d="M604.074,1204.187l-15.91.069a2.878,2.878,0,0,1-2.867-2.9v-11.5a2.878,2.878,0,0,1,2.854-2.9h16.872a2.883,2.883,0,0,1,2.844,3.148l-.962,11.432A2.873,2.873,0,0,1,604.074,1204.187Z" transform="translate(-572.68 -1059.128)"/></g><g transform="translate(446.756 308.327)"><g transform="translate(0)"><g transform="translate(52.618 140.044)"><path class="c" d="M965.255,1225.778l.952,14.8h-7.92l-3.224-14.183Z" transform="translate(-954.511 -1225.226)"/><path class="d" d="M965.08,1240h-7.92a.552.552,0,0,1-.538-.43l-3.224-14.183a.553.553,0,0,1,.506-.674l10.192-.614a.552.552,0,0,1,.585.516l.951,14.8a.552.552,0,0,1-.552.588Zm-7.479-1.1h6.89l-.879-13.66-8.992.541Z" transform="translate(-953.384 -1224.098)"/></g><path class="e" d="M828.538,819.464s27.752,70.73,28.243,73.432,1.965,37.33,1.965,37.33l-16.454-.245-8.35-30.7-40.522-52.557V810.868C793.419,801.536,814.049,784.345,828.538,819.464Z" transform="translate(-793.419 -798.347)"/><g transform="translate(1.044 39.966)"><path class="d" d="M846.631,1006.419a.553.553,0,0,1-.533-.407L839,980.074l-42.308-59.353a.552.552,0,1,1,.9-.641l42.365,59.433a.552.552,0,0,1,.083.175l7.122,26.033a.553.553,0,0,1-.387.679A.545.545,0,0,1,846.631,1006.419Z" transform="translate(-796.592 -919.847)"/></g><g transform="translate(26.094 22.529)"><path class="d" d="M883.247,876.783h-1.609a6.377,6.377,0,0,1-5.572-3.279l-3.248-5.846a.553.553,0,1,1,.966-.536l3.248,5.847a5.273,5.273,0,0,0,4.606,2.711h1.609a.552.552,0,1,1,0,1.1Z" transform="translate(-872.748 -866.836)"/></g><ellipse class="c" cx="5.528" cy="9.444" rx="5.528" ry="9.444" transform="translate(49.404 89.049) rotate(-8.112)"/><g transform="translate(48.658 151.434)"><path class="e" d="M943.024,1290.128h31.313a33.91,33.91,0,0,0-.645-6.171,11.086,11.086,0,0,0-1.658-4.236c-2.3-3.04-9.946-15.38-12.157-21H947.537s-3.684,19.432-4.052,21.919c-.114.777-.2,2-.269,3.315C943.068,1286.831,943.024,1290.128,943.024,1290.128Z" transform="translate(-942.472 -1258.723)"/><g transform="translate(0 24.682)"><path class="c" d="M943.024,1341.609h31.313a33.909,33.909,0,0,0-.645-6.171H943.216C943.068,1338.313,943.024,1341.609,943.024,1341.609Z" transform="translate(-942.472 -1334.887)"/><path class="d" d="M973.21,1341.035H941.9a.552.552,0,0,1-.552-.56c0-.033.046-3.34.192-6.191a.552.552,0,0,1,.552-.524h30.477a.552.552,0,0,1,.54.437,34.076,34.076,0,0,1,.657,6.286A.552.552,0,0,1,973.21,1341.035Zm-30.751-1.1h30.187a33.976,33.976,0,0,0-.533-5.066h-29.5C942.523,1336.855,942.477,1338.954,942.459,1339.931Z" transform="translate(-941.345 -1333.76)"/></g></g><path class="f" d="M936.7,1204.187l15.91.069a2.878,2.878,0,0,0,2.867-2.9v-11.5a2.878,2.878,0,0,0-2.854-2.9H935.746a2.883,2.883,0,0,0-2.844,3.148l.962,11.432A2.873,2.873,0,0,0,936.7,1204.187Z" transform="translate(-887.014 -1059.128)"/></g></g><g transform="translate(368.29 251.249)"><g transform="translate(0 13.973)"><path class="c" d="M585.415,688.322s-14,7.46-22.2,7.184-7.951-8.328-3.96-12.709c4.7-5.157,20.169-13.815,20.169-13.815Z" transform="translate(-556.006 -668.43)"/><path class="d" d="M562.541,694.94c-.16,0-.317,0-.473-.008-3.292-.111-5.659-1.486-6.666-3.872-1.225-2.9-.273-6.919,2.315-9.761,4.7-5.165,19.673-13.57,20.308-13.925a.552.552,0,0,1,.8.319l5.986,19.34a.553.553,0,0,1-.268.651C583.976,687.985,570.828,694.94,562.541,694.94Zm15.43-26.264c-2.878,1.643-15.371,8.9-19.436,13.367-2.272,2.495-3.161,6.106-2.114,8.588.842,1.995,2.807,3.1,5.685,3.2,7.181.243,19.167-5.7,21.512-6.909Z" transform="translate(-554.872 -667.303)"/></g><g transform="translate(16.24)"><path class="f" d="M635.771,624.822c-4.544,0-10.714,3.75-19.187,9.276s-12.341,8.473-12.341,8.473l11.788,21.919,18.051-10.223Z" transform="translate(-604.243 -624.822)"/><g transform="translate(4.513 16.552)"><path class="d" d="M628,693.561a.553.553,0,0,1-.485-.287L618.03,675.96a.552.552,0,1,1,.969-.531l9.486,17.314a.553.553,0,0,1-.484.819Z" transform="translate(-617.962 -675.142)"/></g></g></g><g transform="translate(468.494 251.249)"><g transform="translate(0)"><g transform="translate(17.805 13.973)"><path class="c" d="M915.315,688.322s14,7.46,22.2,7.184,7.951-8.328,3.96-12.709c-4.7-5.157-20.169-13.815-20.169-13.815Z" transform="translate(-914.762 -668.43)"/><path class="d" d="M935.928,694.939c-8.287,0-21.435-6.954-22-7.256a.553.553,0,0,1-.268-.651l5.986-19.34a.552.552,0,0,1,.8-.319c.635.355,15.6,8.76,20.308,13.925,2.589,2.842,3.541,6.856,2.315,9.761-1.006,2.387-3.374,3.762-6.665,3.873C936.246,694.937,936.088,694.939,935.928,694.939Zm-21.076-8.021c2.346,1.2,14.32,7.146,21.512,6.909,2.877-.1,4.843-1.2,5.685-3.2,1.046-2.481.157-6.093-2.115-8.588-4.066-4.464-16.558-11.724-19.436-13.367Z" transform="translate(-913.635 -667.303)"/></g><path class="f" d="M859.5,624.822c4.543,0,10.714,3.75,19.187,9.276s12.341,8.473,12.341,8.473L879.243,664.49l-18.051-10.223Z" transform="translate(-859.504 -624.822)"/><g transform="translate(16.424 16.552)"><path class="d" d="M909.987,693.561a.553.553,0,0,1-.484-.819l9.485-17.314a.553.553,0,0,1,.97.531l-9.486,17.315A.554.554,0,0,1,909.987,693.561Z" transform="translate(-909.435 -675.141)"/></g></g></g><g transform="translate(404.146 251.249)"><path class="f" d="M675.79,624.822s-6.508,21.832-6.508,27.481,5.894,13.385,5.894,13.385l-11.3,38.865s14.649,11.42,40.019,11.42A87.621,87.621,0,0,0,747.687,704l-15.84-39.6s4.405-9.025,4.321-13.078-8-26.5-8-26.5L701,632.993Z" transform="translate(-663.879 -624.822)"/><g transform="translate(28.214 0.588)"><path class="c" d="M756.334,643.211a7.789,7.789,0,0,1-4.973-6.815c-.43-5.342,3.93-8.1,7.859-8.1s9.762,2.886,9.516,8.043-5.833,6.877-5.833,6.877a10.479,10.479,0,0,0-3.215-4.912A8.5,8.5,0,0,0,756.334,643.211Z" transform="translate(-750.779 -627.738)"/><path class="d" d="M761.777,642.636a.552.552,0,0,1-.521-.37,10.377,10.377,0,0,0-2.72-4.393,8.19,8.19,0,0,0-2.793,4.347.552.552,0,0,1-.706.389,8.422,8.422,0,0,1-5.353-7.3,7.666,7.666,0,0,1,1.938-5.982,8.9,8.9,0,0,1,6.472-2.719A11.79,11.79,0,0,1,766.125,630a6.987,6.987,0,0,1,2.036,5.237c-.261,5.482-5.979,7.3-6.222,7.378A.552.552,0,0,1,761.777,642.636Zm-3.215-6.017a.551.551,0,0,1,.344.12,10.737,10.737,0,0,1,3.2,4.636c1.31-.534,4.768-2.307,4.953-6.194a5.831,5.831,0,0,0-1.732-4.422,10.775,10.775,0,0,0-7.232-3.042,7.782,7.782,0,0,0-5.66,2.364,6.589,6.589,0,0,0-1.648,5.144,7.272,7.272,0,0,0,4.066,6.108,8.945,8.945,0,0,1,3.421-4.63A.552.552,0,0,1,758.562,636.619Z" transform="translate(-749.653 -626.611)"/></g><g transform="translate(3.316 76.047)"><path class="d" d="M710.662,867.248c-21.771,0-36.29-8.542-36.434-8.628a.552.552,0,1,1,.567-.948c.142.084,14.418,8.471,35.867,8.471s38.733-9.955,38.905-10.055a.553.553,0,0,1,.558.954C749.951,857.144,732.43,867.248,710.662,867.248Z" transform="translate(-673.959 -856.013)"/></g><g transform="translate(4.85 2.612)"><path class="d" d="M679.555,660.91a.553.553,0,0,1-.536-.417,11.746,11.746,0,0,1-.394-2.861c0-4.263,3.514-17.16,5.609-24.469a.553.553,0,0,1,1.062.3c-1.674,5.839-5.566,19.881-5.566,24.164a10.668,10.668,0,0,0,.36,2.589.552.552,0,0,1-.4.671A.558.558,0,0,1,679.555,660.91Z" transform="translate(-678.625 -632.762)"/></g><g transform="translate(64.417 1.415)"><path class="d" d="M866.716,659.286a.554.554,0,0,1-.522-.733,15.039,15.039,0,0,0,.84-4.348c-.068-3.265-5.6-19.463-7.288-24.349a.552.552,0,1,1,1.044-.362c2.187,6.312,7.279,21.355,7.349,24.7a15.835,15.835,0,0,1-.9,4.719A.553.553,0,0,1,866.716,659.286Z" transform="translate(-859.715 -629.122)"/></g></g><g transform="translate(422.372 206.771)"><path class="d" d="M765.756,497.282c-3.4,6.687,6.466,9.483,10.191,10.6s10.721,10.158,17.715,7.833,7.466,15.687,28.816,13.567c16.453-1.634,26.677-22.779,16.58-28.648s-26.548,3.072-35.716-2.411c-5.834-3.489-10.543-12.216-20.726-7C775.018,495.12,767.755,493.351,765.756,497.282Z" transform="translate(-750.001 -489.605)"/><g transform="translate(0 8.429)"><g transform="translate(0 26.245)"><path class="c" d="M728.583,598.735s-3.6-3.3-6.493-1.464-.17,10.808,7.3,8.228Z" transform="translate(-720.409 -596.158)"/><path class="d" d="M725.692,605.38a6.248,6.248,0,0,1-5.7-3.705c-1.153-2.395-.853-5.035.685-6.009,3.21-2.035,7,1.376,7.162,1.523a.553.553,0,0,1-.746.816c-.033-.03-3.328-2.987-5.824-1.4-1.054.668-1.18,2.73-.281,4.6.493,1.025,2.464,4.245,7.1,2.643a.552.552,0,1,1,.36,1.044A8.431,8.431,0,0,1,725.692,605.38Z" transform="translate(-719.289 -595.019)"/></g><g transform="translate(17.662)"><path class="c" d="M774.663,521.3l.04-2.057a1.809,1.809,0,0,1,.958-1.567,6.09,6.09,0,0,1,2.624-.767,4.213,4.213,0,0,1,2.659,1.047,1.789,1.789,0,0,1,.642,1.222l.223,2.342a1.815,1.815,0,0,1-1.989,1.978l-3.526-.357A1.815,1.815,0,0,1,774.663,521.3Z" transform="translate(-774.11 -516.358)"/><path class="d" d="M778.879,522.935a2.379,2.379,0,0,1-.241-.012l-3.526-.357a2.381,2.381,0,0,1-2.129-2.4l.04-2.057a2.365,2.365,0,0,1,1.253-2.044,6.675,6.675,0,0,1,2.872-.831,4.748,4.748,0,0,1,3.02,1.171,2.33,2.33,0,0,1,.842,1.6l.223,2.343a2.368,2.368,0,0,1-2.354,2.592Zm-1.657-6.6h-.052a5.572,5.572,0,0,0-2.377.7,1.258,1.258,0,0,0-.665,1.089l-.04,2.057h0a1.269,1.269,0,0,0,1.135,1.281l3.526.357a1.263,1.263,0,0,0,1.384-1.375l-.223-2.343a1.231,1.231,0,0,0-.442-.847A3.69,3.69,0,0,0,777.222,516.336Zm-3.687,3.839h0Z" transform="translate(-772.983 -515.23)"/></g><g transform="translate(6.534 10.294)"><g transform="translate(0.552)"><path class="c" d="M741.152,565.775c.726,6.7,4.122,14.3,12.238,13.646,5.966-.478,12.193-8.022,12.215-17.123s-1.97-16.786-12.861-15.664a26.38,26.38,0,0,0-3.447.642c-6.259,1.736-8.647,2.43-8.456,14.914C740.859,563.295,741.011,564.511,741.152,565.775Z" transform="translate(-740.831 -546.525)"/></g><g transform="translate(0 0.199)"><path class="d" d="M751.308,580.418c-7.569,0-11.077-7.209-11.832-14.178l-.054-.479c-.126-1.114-.245-2.166-.26-3.156-.2-12.943,2.453-13.678,8.86-15.455a.553.553,0,0,1,.3,1.065c-6.161,1.709-8.236,2.284-8.051,14.373.014.937.13,1.963.253,3.049l.054.483c.343,3.166,2.117,13.193,10.711,13.194.3,0,.613-.012.933-.038,1.862-.149,3.91-1.222,6.444-3.374a22.392,22.392,0,0,0,3.231-4.568.553.553,0,1,1,.993.486,23.223,23.223,0,0,1-3.437,4.859.485.485,0,0,1-.045.043c-2.768,2.357-4.957,3.484-7.1,3.656Q751.8,580.418,751.308,580.418Z" transform="translate(-739.153 -547.129)"/></g></g><path class="d" d="M751.628,552.585a6.635,6.635,0,0,1-4.3-5.252c-.137-.8-.233-1.877-.485-2.85-4.614,5.028-13.452,8.2-17.3,9.4a3.021,3.021,0,0,1-3.374-1.065c-4.659-6.591.482-19.5,9.158-19.426,9.707-7.012,21.306-2.287,23.11,6C760.436,548.571,754.426,553.684,751.628,552.585Z" transform="translate(-722.727 -525.135)"/><g transform="translate(28.643 24.118)"><path class="c" d="M808.048,593.34s2.762-4.026,5.992-2.9,2.614,10.488-5.244,9.667Z" transform="translate(-807.495 -589.688)"/><path class="d" d="M808.632,599.581a9.875,9.875,0,0,1-1.021-.055.553.553,0,0,1,.115-1.1c4.876.51,6.07-3.073,6.319-4.183.453-2.021-.137-4-1.315-4.413-2.79-.977-5.329,2.651-5.355,2.687a.552.552,0,0,1-.911-.625c.122-.179,3.042-4.36,6.63-3.105,1.718.6,2.609,3.1,2.029,5.7A6.3,6.3,0,0,1,808.632,599.581Z" transform="translate(-806.368 -588.554)"/></g></g></g><g transform="translate(457.111 241.792)"><g transform="translate(18.795 11.365)"><path class="c" d="M883.718,637.185s17.406,27.537,20.354,30.76,12.249,4.881,15.84.645,1.013-12.893-3.684-16.117S887.77,632.3,887.77,632.3Z" transform="translate(-883.165 -631.751)"/><path class="d" d="M912.02,670.555c-3.73,0-7.683-1.394-9.484-3.364-2.946-3.223-19.7-29.712-20.412-30.838a.553.553,0,0,1,.042-.648l4.052-4.881a.552.552,0,0,1,.746-.1c.237.169,23.81,16.98,28.45,20.163a14.339,14.339,0,0,1,5.493,9.647,9.217,9.217,0,0,1-1.7,7.282c-1.446,1.706-3.9,2.677-6.908,2.733C912.206,670.555,912.113,670.555,912.02,670.555ZM883.272,636.1c2.006,3.167,17.375,27.385,20.08,30.343,1.624,1.777,5.46,3.07,8.925,3,2.687-.05,4.848-.882,6.086-2.342a8.146,8.146,0,0,0,1.447-6.421,13.386,13.386,0,0,0-5.022-8.883c-4.3-2.953-24.846-17.594-28.048-19.877Z" transform="translate(-882.038 -630.624)"/></g><path class="c" d="M839.207,601.841l-10.822-4.007a1.337,1.337,0,0,0-1.714.779h0a1.337,1.337,0,0,0,.581,1.633l9.7,5.6Z" transform="translate(-826.03 -597.199)"/><path class="d" d="M835.82,605.274a.553.553,0,0,1-.276-.074l-9.7-5.6a1.89,1.89,0,0,1,1.6-3.408l10.821,4.006a.553.553,0,0,1,.29.789l-2.256,4.006a.552.552,0,0,1-.481.281Zm-9.028-8.1a.784.784,0,0,0-.394,1.463l9.214,5.322,1.664-2.955-10.214-3.781A.771.771,0,0,0,826.792,597.178Z" transform="translate(-824.9 -596.073)"/><g transform="translate(7.038 11.666)"><path class="c" d="M853.147,634.672c2.422,1.816,3.27,4.1,1.382,4.835s-6.861-3.039-6.539-4.6S849.831,632.185,853.147,634.672Z" transform="translate(-847.422 -632.671)"/><path class="d" d="M852.836,639.023c-1.526,0-3.5-1.294-4.551-2.183-.833-.7-2.2-2.052-1.964-3.181a2.514,2.514,0,0,1,1.528-1.961c1.161-.44,2.676.031,4.5,1.4h0c1.783,1.337,2.785,2.943,2.614,4.191a2,2,0,0,1-1.363,1.6A2.1,2.1,0,0,1,852.836,639.023Zm-4.086-6.378a1.432,1.432,0,0,0-.509.086,1.5,1.5,0,0,0-.837,1.15c-.052.253.334,1.051,1.594,2.113,1.566,1.322,3.45,2.157,4.2,1.865.6-.236.654-.6.67-.721.094-.686-.545-1.929-2.182-3.157h0A5.513,5.513,0,0,0,848.75,632.646Z" transform="translate(-846.295 -631.539)"/></g><g transform="translate(8.032 3.629)"><path class="c" d="M858.533,610.226a5.019,5.019,0,0,0-5.434-.967c-2.993,1.427-3.178,9.255,1.934,9.348S858.533,610.226,858.533,610.226Z" transform="translate(-850.441 -608.246)"/><path class="d" d="M853.994,618.019H853.9a4.513,4.513,0,0,1-4.422-3.888c-.514-2.368.2-5.531,2.26-6.512a5.528,5.528,0,0,1,6.059,1.071.554.554,0,0,1,.156.291c.041.216.984,5.328-1.069,7.764A3.6,3.6,0,0,1,853.994,618.019Zm-.055-9.8a3.964,3.964,0,0,0-1.724.4c-1.352.645-2.126,3.112-1.656,5.28a3.44,3.44,0,0,0,3.362,3.017,2.509,2.509,0,0,0,2.118-.88c1.528-1.813,1-5.778.858-6.667A4.783,4.783,0,0,0,853.939,608.215Z" transform="translate(-849.319 -607.105)"/></g><g transform="translate(11.341 4.294)"><path class="c" d="M867.957,611.193c4.986,1.713,6.17,4.191,6.216,6.861s-1.888,6.4-4.973,5.848-7.6-1.98-8.059-5.111S861.925,609.121,867.957,611.193Z" transform="translate(-860.503 -610.247)"/><path class="d" d="M868.68,623.392a3.988,3.988,0,0,1-.7-.063c-2.949-.528-7.975-1.955-8.508-5.575-.3-2.049.055-5.764,2.269-7.6.936-.777,2.611-1.513,5.273-.6,4.5,1.544,6.528,3.818,6.59,7.374a7.443,7.443,0,0,1-2.33,5.466A3.949,3.949,0,0,1,868.68,623.392Zm-4-13.161a3.394,3.394,0,0,0-2.237.771c-1.85,1.536-2.136,4.858-1.881,6.591.448,3.045,5.471,4.265,7.609,4.648a2.783,2.783,0,0,0,2.382-.689,6.385,6.385,0,0,0,1.941-4.606c-.037-2.159-.761-4.6-5.844-6.348h0A6.108,6.108,0,0,0,864.681,610.23Z" transform="translate(-859.376 -609.129)"/></g></g><g transform="translate(367.648 241.792)"><g transform="translate(0 11.365)"><path class="c" d="M592.48,637.185s-17.406,27.537-20.353,30.76-12.249,4.881-15.841.645-1.013-12.893,3.684-16.117S588.428,632.3,588.428,632.3Z" transform="translate(-554.047 -631.751)"/><path class="d" d="M561.923,670.555c-.093,0-.185,0-.277,0-3.009-.056-5.463-1.027-6.909-2.733a9.219,9.219,0,0,1-1.7-7.282,14.341,14.341,0,0,1,5.493-9.647c4.639-3.184,28.212-19.994,28.45-20.163a.552.552,0,0,1,.746.1l4.052,4.881a.553.553,0,0,1,.042.648c-.712,1.126-17.466,27.615-20.413,30.838C569.605,669.161,565.652,670.555,561.923,670.555ZM587.2,631.925c-3.2,2.283-23.744,16.923-28.048,19.877a13.384,13.384,0,0,0-5.023,8.883,8.146,8.146,0,0,0,1.447,6.421c1.238,1.46,3.4,2.292,6.087,2.342,3.469.072,7.3-1.226,8.925-3,2.705-2.958,18.073-27.176,20.079-30.343Z" transform="translate(-552.92 -630.624)"/></g><g transform="translate(32.215)"><g transform="translate(11.835)"><path class="c" d="M688.518,601.841l10.822-4.007a1.337,1.337,0,0,1,1.714.779h0a1.337,1.337,0,0,1-.581,1.633l-9.7,5.6Z" transform="translate(-687.965 -597.199)"/><path class="d" d="M689.647,605.274a.552.552,0,0,1-.482-.281l-2.257-4.006a.553.553,0,0,1,.29-.789l10.822-4.006a1.889,1.889,0,0,1,1.6,3.408l-9.7,5.6A.552.552,0,0,1,689.647,605.274Zm-1.457-4.265,1.664,2.955,9.214-5.322a.784.784,0,0,0-.664-1.414Z" transform="translate(-686.838 -596.074)"/></g><g transform="translate(9.838 11.665)"><path class="c" d="M684.856,634.672c-2.422,1.816-3.269,4.1-1.382,4.835s6.861-3.039,6.539-4.6S688.171,632.185,684.856,634.672Z" transform="translate(-681.891 -632.67)"/><path class="d" d="M682.914,639.023a2.1,2.1,0,0,1-.766-.133,2.005,2.005,0,0,1-1.363-1.6c-.17-1.248.831-2.854,2.614-4.191h0c1.825-1.369,3.339-1.841,4.5-1.4a2.516,2.516,0,0,1,1.529,1.961c.232,1.13-1.131,2.479-1.965,3.181C686.411,637.729,684.439,639.023,682.914,639.023Zm1.148-5.041c-1.638,1.228-2.276,2.471-2.182,3.157.016.12.066.485.67.721.751.293,2.636-.543,4.2-1.864,1.26-1.063,1.647-1.861,1.595-2.114a1.5,1.5,0,0,0-.838-1.15c-.763-.289-1.987.155-3.447,1.251Z" transform="translate(-680.765 -631.538)"/></g><g transform="translate(8.646 3.629)"><path class="c" d="M679.067,610.226a5.019,5.019,0,0,1,5.434-.967c2.993,1.427,3.177,9.255-1.934,9.348S679.067,610.226,679.067,610.226Z" transform="translate(-678.272 -608.246)"/><path class="d" d="M681.354,618.02a3.6,3.6,0,0,1-2.891-1.273c-2.054-2.436-1.11-7.548-1.069-7.764a.554.554,0,0,1,.156-.291,5.531,5.531,0,0,1,6.059-1.071c2.055.98,2.774,4.144,2.26,6.512a4.513,4.513,0,0,1-4.422,3.888Zm-2.9-8.651c-.142.892-.666,4.858.859,6.666a2.532,2.532,0,0,0,2.118.879,3.44,3.44,0,0,0,3.362-3.017c.47-2.168-.3-4.635-1.656-5.28A4.4,4.4,0,0,0,678.45,609.37Z" transform="translate(-677.143 -607.106)"/></g><g transform="translate(0 4.294)"><path class="c" d="M658.755,611.193c-4.986,1.713-6.171,4.191-6.217,6.861s1.888,6.4,4.973,5.848,7.6-1.98,8.059-5.111S664.787,609.121,658.755,611.193Z" transform="translate(-651.985 -610.247)"/><path class="d" d="M655.778,623.392a3.947,3.947,0,0,1-2.59-1,7.443,7.443,0,0,1-2.33-5.466c.061-3.555,2.094-5.83,6.59-7.374h0c2.661-.914,4.336-.179,5.273.6,2.214,1.839,2.57,5.554,2.269,7.6-.533,3.62-5.559,5.047-8.508,5.575A3.986,3.986,0,0,1,655.778,623.392Zm4-13.161a6.109,6.109,0,0,0-1.97.367h0c-5.083,1.746-5.806,4.189-5.844,6.348a6.386,6.386,0,0,0,1.941,4.606,2.785,2.785,0,0,0,2.382.689c2.139-.383,7.161-1.6,7.609-4.648.255-1.733-.031-5.054-1.881-6.591A3.394,3.394,0,0,0,659.777,610.231Zm-2.15-.156h0Z" transform="translate(-650.857 -609.129)"/></g></g></g><g transform="translate(397.979 68.135)"><path class="f" d="M736.5,113.819a45.638,45.638,0,0,1-20.415,38.063l0,0c-.28.233-9.254,7.772-10.891,15.368H676.444c-1.638-7.6-10.611-15.136-10.892-15.368l0,0A45.685,45.685,0,1,1,736.5,113.819Z" transform="translate(-645.132 -68.135)"/><g transform="translate(30.28 34.662)"><path class="c" d="M754.82,238.691a.565.565,0,0,1-.48-.265c-.034-.053-.7-1.123-1.749-2.971-1.05,1.848-1.715,2.918-1.749,2.971a.566.566,0,0,1-.959-.6c.036-.058.832-1.338,2.06-3.522-4.719-8.481-14.755-28.469-14.755-45.039,0-3.023,1.025-9.687,4.9-13.277a9.317,9.317,0,0,1,7.338-2.439,5.5,5.5,0,0,0,6.322,0,9.315,9.315,0,0,1,7.339,2.439c3.879,3.59,4.9,10.255,4.9,13.277,0,16.57-10.036,36.558-14.755,45.039,1.229,2.184,2.024,3.464,2.06,3.522a.566.566,0,0,1-.479.867Zm-6.29-64.047a8.076,8.076,0,0,0-5.669,2.173c-3.592,3.324-4.541,9.594-4.541,12.446,0,15.938,9.477,35.167,14.271,43.875,4.794-8.707,14.271-27.937,14.271-43.875,0-2.852-.949-9.122-4.54-12.446a8.221,8.221,0,0,0-6.482-2.141,5.982,5.982,0,0,0-2.2.608c2.875,2.39,4.38,6.848,4.217,11.075-.171,4.409-2.236,7.258-5.261,7.258s-5.09-2.849-5.261-7.258c-.164-4.226,1.342-8.685,4.217-11.075a5.98,5.98,0,0,0-2.2-.608Q748.93,174.643,748.53,174.643Zm4.061,1.286c-2.78,2.092-4.283,6.42-4.129,10.384.115,2.982,1.261,6.17,4.129,6.17s4.014-3.187,4.129-6.17C756.874,182.35,755.371,178.022,752.591,175.93Z" transform="translate(-737.188 -173.51)"/></g><g transform="translate(22.868 93.801)"><g transform="translate(14.718 27.574)"><path class="c" d="M7.545,0h0a7.545,7.545,0,0,1,7.545,7.545v2.738a2.463,2.463,0,0,1-2.463,2.463H2.463A2.463,2.463,0,0,1,0,10.282V7.545A7.545,7.545,0,0,1,7.545,0Z" transform="translate(15.642 13.298) rotate(180)"/><path class="d" d="M768.3,450.98h-1.616a7.3,7.3,0,0,1-7.289-7.289v-3.81a2.755,2.755,0,0,1,2.752-2.752h10.69a2.755,2.755,0,0,1,2.752,2.752v3.81A7.3,7.3,0,0,1,768.3,450.98Zm-6.153-12.746a1.649,1.649,0,0,0-1.647,1.647v3.81a6.191,6.191,0,0,0,6.184,6.184H768.3a6.191,6.191,0,0,0,6.184-6.184v-3.81a1.649,1.649,0,0,0-1.647-1.647Z" transform="translate(-759.399 -437.129)"/></g><g transform="translate(3.904 2.769)"><rect class="c" width="36.716" height="31.178" rx="6.687" transform="translate(0.553 0.552)"/><path class="d" d="M761.594,394H729.276a2.755,2.755,0,0,1-2.752-2.752V364.472a2.755,2.755,0,0,1,2.752-2.752h32.318a2.755,2.755,0,0,1,2.752,2.752v26.779A2.755,2.755,0,0,1,761.594,394Zm-32.318-31.177a1.649,1.649,0,0,0-1.647,1.647v26.779a1.649,1.649,0,0,0,1.647,1.647h32.318a1.649,1.649,0,0,0,1.647-1.647V364.472a1.649,1.649,0,0,0-1.647-1.647Z" transform="translate(-726.524 -361.72)"/></g><g transform="translate(0.237 0)"><path class="c" d="M737.631,354.981a2.552,2.552,0,0,1,.948,4.922l-18.024,7.213a2.54,2.54,0,0,1-3.1-.992,2.286,2.286,0,0,1-.223-.427,2.566,2.566,0,0,1,.223-2.327,2.524,2.524,0,0,1,1.2-.992l18.027-7.214a2.552,2.552,0,0,1,.948-.183Z" transform="translate(-716.503 -354.428)"/><path class="d" d="M718.474,366.727a3.082,3.082,0,0,1-2.609-1.435,2.764,2.764,0,0,1-.268-.514,3.118,3.118,0,0,1,.27-2.832,3.064,3.064,0,0,1,1.457-1.208l18.026-7.214a3.086,3.086,0,0,1,1.154-.222,3.1,3.1,0,0,1,1.154,5.988L719.633,366.5A3.107,3.107,0,0,1,718.474,366.727Zm18.03-12.321a1.991,1.991,0,0,0-.743.143l-18.027,7.214a1.969,1.969,0,0,0-.935.776,2.012,2.012,0,0,0-.176,1.824,1.712,1.712,0,0,0,.167.322,1.99,1.99,0,0,0,2.432.79l18.025-7.213a2,2,0,0,0-.743-3.857Z" transform="translate(-715.376 -353.301)"/></g><g transform="translate(0 3.819)"><rect class="c" width="47.058" height="5.104" rx="2.552" transform="matrix(0.928, -0.372, 0.372, 0.928, 0.022, 17.506)"/><path class="d" d="M717.56,387.176a2.324,2.324,0,0,1-2.157-1.458l-.583-1.456a2.323,2.323,0,0,1,1.292-3.017l40.407-16.169a2.323,2.323,0,0,1,3.017,1.292l.582,1.456a2.323,2.323,0,0,1-1.292,3.016h0L718.419,387.01A2.314,2.314,0,0,1,717.56,387.176Zm39.82-21.161a1.211,1.211,0,0,0-.45.087l-40.407,16.169a1.217,1.217,0,0,0-.677,1.58l.582,1.456a1.217,1.217,0,0,0,1.58.677l40.407-16.169a1.217,1.217,0,0,0,.677-1.58l-.582-1.456A1.218,1.218,0,0,0,757.38,366.015Zm1.241,4.313h0Z" transform="translate(-714.654 -364.91)"/></g><g transform="translate(1.748 16.478)"><path class="c" d="M762.589,410l-37.437,14.824a2.553,2.553,0,0,1-3.318-1.421h0a2.552,2.552,0,0,1,1.421-3.317l37.437-14.823a2.552,2.552,0,0,1,3.317,1.421h0A2.552,2.552,0,0,1,762.589,410Z" transform="translate(-721.097 -404.526)"/><path class="d" d="M723.074,424.432a3.105,3.105,0,0,1-1.153-5.989l37.439-14.824a3.1,3.1,0,0,1,2.3,5.765h0l-37.437,14.823A3.094,3.094,0,0,1,723.074,424.432Zm37.437-19.93a2,2,0,0,0-.743.144L722.329,419.47a2,2,0,0,0,1.487,3.712l37.439-14.824a2,2,0,0,0-.744-3.856Zm.947,4.37h0Z" transform="translate(-719.968 -403.396)"/></g><g transform="translate(32.43 28.905)"><path class="c" d="M826.779,445.4a2.569,2.569,0,0,1-1.6,2.374l-6.755,2.7a2.554,2.554,0,0,1-.948.182h0a2.552,2.552,0,0,1-.948-4.922l6.753-2.7a2.54,2.54,0,0,1,3.1.992,2.279,2.279,0,0,1,.223.427A2.548,2.548,0,0,1,826.779,445.4Z" transform="translate(-814.369 -442.302)"/><path class="d" d="M816.351,450.09A3.105,3.105,0,0,1,815.2,444.1l6.753-2.7a3.09,3.09,0,0,1,3.768,1.21,2.772,2.772,0,0,1,.268.514,3.119,3.119,0,0,1-1.723,4.038l-6.759,2.705A3.086,3.086,0,0,1,816.351,450.09Zm6.756-7.81a1.992,1.992,0,0,0-.745.145l-6.754,2.7a2,2,0,0,0,.743,3.857,1.988,1.988,0,0,0,.743-.143l6.755-2.7a2.009,2.009,0,0,0,1.112-2.6,1.738,1.738,0,0,0-.167-.322A1.993,1.993,0,0,0,823.107,442.281Z" transform="translate(-813.244 -441.175)"/></g></g></g></g></g></svg>