<svg xmlns="http://www.w3.org/2000/svg" xmlns:xlink="http://www.w3.org/1999/xlink" width="543" height="543" viewBox="0 0 543 543"><defs><style>.a,.d{fill:#fff;}.a{stroke:#707070;}.b{clip-path:url(#a);}.c{fill:#2c3b44;}.e{fill:#262424;}.f{fill:#c31e23;}.g{fill:#3b3a3c;}.h{isolation:isolate;}</style><clipPath id="a"><rect class="a" width="543" height="543"/></clipPath></defs><g class="b"><g transform="translate(0 48.546)"><g transform="translate(0)"><g transform="translate(187.551 132.117)"><g transform="translate(0 46.535)"><g transform="translate(0)"><path class="c" d="M2399.837,1269.272c8.292,9.824,36.837,21.2,36.837,21.2,1.988-.577,3.987-1.217,5.958-1.9a208.825,208.825,0,0,0,24.463-10.449s5.868-4.493,4.521-11.713c0,0-3.007-9.223-10.224-8.942s-40.309-4.141-40.309-4.141-8.485-9.845-15.723-8.3S2391.546,1259.442,2399.837,1269.272Z" transform="translate(-2395.149 -1244.041)"/><g transform="translate(48.376 28.019)"><ellipse class="d" cx="4.425" cy="6.085" rx="4.425" ry="6.085" transform="translate(3.588 13.024) rotate(-113.92)"/><path class="e" d="M2436.069,1324.58a8.579,8.579,0,0,0,3.462-.757,8.168,8.168,0,0,0,3.785-3.268,4.452,4.452,0,0,0-3.075-6.934,8.177,8.177,0,0,0-4.963.612h0c-3.481,1.543-5.358,4.951-4.186,7.594A5.2,5.2,0,0,0,2436.069,1324.58Zm2.689-9.471a5.44,5.44,0,0,1,1.139.117,2.826,2.826,0,0,1,2,4.507,6.521,6.521,0,0,1-3.03,2.59c-2.653,1.176-5.467.656-6.274-1.16s.7-4.252,3.351-5.429h0A7,7,0,0,1,2438.758,1315.109Z" transform="translate(-2430.049 -1312.517)"/></g><g transform="translate(23.11 16.371)"><path class="e" d="M2460.524,1290.713a.821.821,0,0,0,0-1.641c-.277,0-27.906-.112-43.4-6.254a.821.821,0,1,0-.605,1.526c15.784,6.257,42.855,6.368,44,6.369Z" transform="translate(-2416.004 -1282.76)"/></g><path class="d" d="M2470.965,1269.272c8.292,9.824,36.838,21.2,36.838,21.2,1.988-.577,3.987-1.217,5.958-1.9-13.065-4.367-31.719-17.273-31.719-17.273,13.419-5.227,10.169-17.973,10.169-17.973s-8.485-9.845-15.724-8.3S2462.675,1259.442,2470.965,1269.272Z" transform="translate(-2466.277 -1244.041)"/><path class="e" d="M2506.628,1290.111a.833.833,0,0,0,.229-.032c1.939-.562,3.957-1.205,6-1.909a.821.821,0,0,0-.007-1.554c-10.885-3.638-25.9-13.406-30.273-16.331,12.3-5.75,9.292-18.21,9.258-18.339a.817.817,0,0,0-.174-.333c-.36-.417-8.887-10.2-16.516-8.569-3.879.826-7.455,4.481-9.111,9.313a16.452,16.452,0,0,0,3.133,16.265h0c8.329,9.867,35.987,20.963,37.161,21.431A.82.82,0,0,0,2506.628,1290.111Zm3.462-2.746c-1.158.377-2.3.731-3.418,1.058-2.879-1.17-28.606-11.8-36.254-20.86a14.847,14.847,0,0,1-2.835-14.675c1.45-4.231,4.625-7.542,7.9-8.239,6.225-1.328,13.723,6.691,14.8,7.887.344,1.593,2.14,12.2-9.714,16.82a.82.82,0,0,0-.169,1.439C2480.577,1270.918,2497.265,1282.415,2510.09,1287.364Zm-40.3-19.272h0Z" transform="translate(-2465.102 -1242.86)"/></g><g transform="translate(65.559 8.645)"><path class="d" d="M2393.692,1279.273l-13.287,4.852s-7.5-2.32-5.361-11l13.219-7.189Z" transform="translate(-2373.837 -1265.11)"/><path class="e" d="M2379.226,1283.766a.825.825,0,0,0,.281-.05l13.288-4.852a.821.821,0,0,0,.479-1.081l-5.429-13.343a.821.821,0,0,0-1.152-.411l-13.219,7.189a.818.818,0,0,0-.4.524c-2.3,9.329,5.833,11.96,5.915,11.985A.815.815,0,0,0,2379.226,1283.766Zm12.206-6.151-12.21,4.458c-1.2-.465-6.127-2.819-4.642-9.588l12.089-6.575Z" transform="translate(-2372.659 -1263.931)"/></g></g><g transform="translate(74.452)"><path class="c" d="M1878.984,1178.14s1.092,16.683,13.951,25.165l59.631-28.722s65.649,28.176,88.081,37.474,80.421-22.157,36.928-45.955c0,0-80.027-24.008-114.038-33.162-8.173-2.2-13.688-3.545-14.8-3.492-1.448.07-6.606,3.2-13.511,7.853C1914.772,1151.072,1878.984,1178.14,1878.984,1178.14Z" transform="translate(-1878.984 -1129.447)"/><path class="d" d="M2195.3,1137.3a21.064,21.064,0,0,0,12.281,3.635c7.5,0,13.864-3.361,16.031-8-8.174-2.2-13.689-3.545-14.8-3.492C2207.368,1129.519,2202.21,1132.653,2195.3,1137.3Z" transform="translate(-2139.063 -1129.447)"/><g transform="translate(12.308 25.167)"><path class="e" d="M1994.678,1224.69a.815.815,0,0,0,.4-.1l57.95-32.091,94.655,31.18a.821.821,0,0,0,.513-1.559l-95-31.292a.815.815,0,0,0-.654.061l-58.264,32.265a.821.821,0,0,0,.4,1.539Z" transform="translate(-1993.857 -1190.784)"/></g><g transform="translate(69.63 15.696)"><path class="e" d="M2224.909,1194.967c.026,0,.053,0,.08,0a.821.821,0,0,0,.737-.9l-2.5-25.624a.821.821,0,1,0-1.634.159l2.5,25.624A.82.82,0,0,0,2224.909,1194.967Z" transform="translate(-2221.594 -1167.701)"/></g><g transform="translate(5.059 47.597)"><path class="e" d="M2370.337,1265.83a.821.821,0,0,0,.453-1.505c-8.473-5.605-10.427-18.05-10.446-18.174a.821.821,0,0,0-1.624.242c.081.54,2.074,13.288,11.164,19.3A.817.817,0,0,0,2370.337,1265.83Z" transform="translate(-2358.712 -1245.45)"/></g></g></g><g transform="translate(304.513 164.635)"><g transform="translate(0 219.824)"><g transform="translate(0 9.717)"><path class="c" d="M2151.524,1826.392c12.855-.14,39.8-14.911,39.8-14.911.821-1.9,1.6-3.849,2.33-5.8a208.782,208.782,0,0,0,7.517-25.517s.271-7.385-6.155-10.943c0,0-9.027-3.553-13.4,2.191s-28.858,28.447-28.858,28.447-12.994.275-16.412,6.84S2138.665,1826.527,2151.524,1826.392Z" transform="translate(-2134.539 -1768.133)"/><g transform="translate(50.754 17.766)"><ellipse class="d" cx="4.425" cy="6.085" rx="4.425" ry="6.085" transform="translate(8.523 14.103) rotate(-164.377)"/><path class="e" d="M2151.181,1825.638c2.461,0,4.927-2.194,5.82-5.387a8.168,8.168,0,0,0-.111-5,4.451,4.451,0,0,0-7.3-2.043,8.6,8.6,0,0,0-2.577,9.217,4.7,4.7,0,0,0,3.082,3.063A4.024,4.024,0,0,0,2151.181,1825.638Zm1.52-11.96a2.469,2.469,0,0,1,.667.091,3.109,3.109,0,0,1,1.985,2.055,6.518,6.518,0,0,1,.068,3.985c-.781,2.8-2.976,4.633-4.889,4.1a3.11,3.11,0,0,1-1.985-2.055,6.975,6.975,0,0,1,2.058-7.358A3.422,3.422,0,0,1,2152.7,1813.678Z" transform="translate(-2146.05 -1811.787)"/></g><g transform="translate(25.19 9.157)"><path class="e" d="M2153.533,1821.771a.816.816,0,0,0,.4-.1c14.873-8.187,32.194-28.993,32.924-29.874a.821.821,0,0,0-1.264-1.047c-.177.214-17.853,21.448-32.451,29.483a.821.821,0,0,0,.4,1.54Z" transform="translate(-2152.712 -1790.451)"/></g><g transform="translate(18.351 4.234)"><path class="e" d="M2172.866,1808.267a.82.82,0,0,0,.435-.124c14.158-8.849,31.594-28.128,31.768-28.322a.821.821,0,1,0-1.219-1.1c-.173.192-17.457,19.3-31.419,28.027a.821.821,0,0,0,.436,1.516Z" transform="translate(-2172.045 -1778.451)"/></g><g transform="translate(0 30.904)"><path class="d" d="M2169.848,1871.985c12.855-.139,39.8-14.911,39.8-14.911.82-1.9,1.6-3.849,2.331-5.8-11.686,7.3-33.514,13.462-33.514,13.462,4.513-13.676-7.386-19.284-7.386-19.284s-12.994.275-16.412,6.84S2156.989,1872.121,2169.848,1871.985Z" transform="translate(-2152.864 -1844.63)"/><path class="e" d="M2168.489,1871.628h.2c12.912-.14,39.079-14.4,40.186-15.012a.819.819,0,0,0,.359-.394c.8-1.857,1.591-3.822,2.346-5.84a.82.82,0,0,0-1.2-.983c-9.737,6.078-26.829,11.439-31.868,12.947,3.4-13.15-8.126-18.758-8.247-18.816a.845.845,0,0,0-.368-.078c-.55.013-13.521.365-17.123,7.282-1.832,3.516-1.291,8.6,1.381,12.955A16.443,16.443,0,0,0,2168.489,1871.628Zm.181-1.642a14.81,14.81,0,0,1-13.121-7.157c-2.34-3.813-2.871-8.369-1.324-11.338,2.938-5.643,13.9-6.323,15.505-6.392,1.448.75,10.772,6.12,6.786,18.2a.821.821,0,0,0,1,1.047c.208-.058,19.7-5.606,31.68-12.347-.446,1.132-.9,2.239-1.361,3.31-2.735,1.475-27.311,14.547-39.167,14.676Z" transform="translate(-2151.695 -1843.451)"/></g></g><g transform="translate(49.535)"><path class="d" d="M2151.162,1750.759l-4.719,13.335s-6.565,4.308-11.9-2.872l2.873-14.771Z" transform="translate(-2133.724 -1745.63)"/><path class="e" d="M2140.636,1765a10.241,10.241,0,0,0,5.078-1.4.818.818,0,0,0,.323-.412l4.719-13.335a.821.821,0,0,0-.528-1.057l-13.745-4.308a.821.821,0,0,0-1.051.627l-2.872,14.771a.82.82,0,0,0,.147.646C2135.315,1764.043,2138.229,1765,2140.636,1765Zm3.953-2.64c-1.119.626-6.074,2.929-10.348-2.525l2.627-13.509,12.057,3.779Z" transform="translate(-2132.545 -1744.452)"/></g></g><g transform="translate(47.758)"><path class="c" d="M1834.368,1426.748c10.668,15.863,28.447,8.477,28.447,8.477,10.122-22.7,33.37-92.73,33.37-92.73l75.5-84.524s15.592-32.275-7.931-45.68-43.218,15.046-43.218,15.046l-51.182,81.057-9.273,14.681-5.018,20.228Z" transform="translate(-1834.368 -1208.701)"/><g transform="translate(68.208 4.872)"><path class="e" d="M1937.62,1262.3a.82.82,0,0,0,.695-.382l17.136-27.139a55.466,55.466,0,0,1,13.128-12.7.82.82,0,0,0-.912-1.364,56.016,56.016,0,0,0-13.585,13.158l-17.155,27.167a.82.82,0,0,0,.693,1.259Z" transform="translate(-1936.8 -1220.576)"/></g><g transform="translate(75.135 0.034)"><path class="e" d="M1966.567,1241.679a.821.821,0,0,0,.8-.989l-1.538-7.347a6.806,6.806,0,0,1,.866-4.978l11.262-18.331a.821.821,0,1,0-1.4-.859l-11.262,18.331a8.44,8.44,0,0,0-1.074,6.173l1.538,7.347A.822.822,0,0,0,1966.567,1241.679Z" transform="translate(-1964.044 -1208.784)"/></g><path class="d" d="M2077.058,1486.58c.2.09.414.177.628.255,7.443,2.737,16.4-2.975,19.99-12.756,3.488-9.495.652-19.342-6.327-22.407l-9.273,14.681Z" transform="translate(-2056.367 -1351.978)"/><g transform="translate(23.386 38.33)"><path class="e" d="M1865.532,1479.509a.821.821,0,0,0,.773-.546c9.753-27.415,27.472-81.246,28.541-84.5l76.218-91a.82.82,0,1,0-1.258-1.054l-76.319,91.123a.812.812,0,0,0-.15.271c-.185.562-18.576,56.494-28.578,84.608a.821.821,0,0,0,.773,1.1Z" transform="translate(-1864.712 -1302.118)"/></g><g transform="translate(45.132 126.204)"><path class="e" d="M2047.756,1524.422a.821.821,0,0,0,.341-1.567l-14.224-6.5a.821.821,0,0,0-.682,1.493l14.225,6.5A.812.812,0,0,0,2047.756,1524.422Z" transform="translate(-2032.711 -1516.284)"/></g><g transform="translate(2.734 213.806)"><path class="e" d="M2129.371,1737.95a30.41,30.41,0,0,0,7.187-.808.821.821,0,0,0-.418-1.587c-.142.036-14.18,3.589-23.7-5.543a.821.821,0,0,0-1.136,1.184C2117.052,1736.715,2124.159,1737.95,2129.371,1737.95Z" transform="translate(-2111.045 -1729.784)"/></g></g></g><g transform="translate(409.599 56.826)"><path class="f" d="M1948.715,945.951s-60.6,30.932-64.29,46.934,20.182,20.767,42.338,1.278S1948.715,945.951,1948.715,945.951Z" transform="translate(-1884.045 -945.951)"/><g transform="translate(2.215 40.784)"><g transform="translate(0)"><path class="d" d="M2007.938,1047.707c2.592,1.1,2.667,5.813,1.367,11.489s-13.813,5.608-15.181,3.556-.752-9.779.752-11.9S2004.724,1046.339,2007.938,1047.707Z" transform="translate(-1992.532 -1046.502)"/><path class="e" d="M1998.093,1063.691a20.513,20.513,0,0,0,3.634-.323c4.055-.744,6.613-2.571,7.2-5.143,1.108-4.839,1.687-10.923-1.847-12.427h0c-3.5-1.49-12.331,1-14.052,3.426-1.655,2.332-2.39,10.393-.766,12.829C1993.008,1063.168,1995.444,1063.691,1998.093,1063.691Zm8.347-16.383c1.885.8,2.218,4.747.889,10.55-.607,2.651-4.327,3.607-5.9,3.9-3.806.7-7.386.012-7.8-.611-1.117-1.675-.62-9.056.738-10.969,1.232-1.735,9.091-4.134,12.072-2.865Z" transform="translate(-1991.355 -1045.349)"/></g><g transform="translate(14.99 0.614)"><path class="d" d="M1984.7,1048.891c3.443.574,1.778,8.548.82,12.31s-6.565,5.129-6.36,0S1980.6,1048.207,1984.7,1048.891Z" transform="translate(-1978.334 -1048.027)"/><path class="e" d="M1980.378,1064.193a5.194,5.194,0,0,0,4.754-3.971c1.545-6.07,1.694-10.121.441-12.041a2.807,2.807,0,0,0-1.922-1.28h0a3.487,3.487,0,0,0-2.882.774c-2.91,2.368-3.5,9.4-3.612,12.312-.139,3.481,2.055,4.073,2.73,4.171A3.359,3.359,0,0,0,1980.378,1064.193Zm3-15.673a1.16,1.16,0,0,1,.817.558c.949,1.455.71,5.369-.657,10.739a3.5,3.5,0,0,1-3.418,2.717c-1.233-.18-1.361-1.631-1.327-2.481.173-4.326,1.054-9.515,3.007-11.1a1.86,1.86,0,0,1,1.577-.429Z" transform="translate(-1977.151 -1046.846)"/></g></g></g><g transform="translate(408.893 45.359)"><path class="f" d="M1807.612,1109.486s-22.7-39.39-78.233-75.224l32.825-24.071s7.659-37,32.552-70.642c0,0,21.336-5.4,33.645-4.308s29.816,27.354,29.816,27.354-11.489,72.495-18.6,96.566S1807.612,1109.486,1807.612,1109.486Z" transform="translate(-1729.379 -928.081)"/><g transform="translate(76.564 24.428)"><path class="e" d="M1829.136,1002.145a2.45,2.45,0,0,0,.967-.16c.5-.222.93-.413,3.932-11.146,1.434-5.128,2.773-10.272,2.786-10.323a.821.821,0,0,0-1.588-.413c-2.313,8.9-5.113,18.813-5.939,20.4a7.844,7.844,0,0,1-3.484-.948,2.285,2.285,0,0,1-1.193-1.191c-.257-1.237,2.4-11.022,5.117-19.765a.821.821,0,0,0-1.568-.487c-1.339,4.311-5.669,18.54-5.141,20.65a4.03,4.03,0,0,0,2.368,2.426A9.594,9.594,0,0,0,1829.136,1002.145Z" transform="translate(-1822.98 -977.539)"/></g><g transform="translate(8.677 104.234)"><path class="e" d="M1916.732,1237.172a.82.82,0,0,0,.647-1.324c-.352-.453-35.615-45.451-71.47-63.72a.821.821,0,1,0-.745,1.463c35.533,18.1,70.57,62.815,70.92,63.264A.818.818,0,0,0,1916.732,1237.172Z" transform="translate(-1844.715 -1172.038)"/></g><g transform="translate(38.161 14.717)"><path class="e" d="M1889.979,1001.513a.821.821,0,0,0,.772-.542,202.391,202.391,0,0,1,23.378-45.812.821.821,0,1,0-1.348-.936,204.058,204.058,0,0,0-23.573,46.191.82.82,0,0,0,.493,1.05A.809.809,0,0,0,1889.979,1001.513Z" transform="translate(-1889.158 -953.87)"/></g><g transform="translate(78.303)"><path class="d" d="M1774.981,933.625c.3,4.62,4.3,8.2,4.3,8.2.837-2.536,3.488-6.741,6.224-10.209,0,0,1.132,6.167,1.867,11.362,3.024.636,15.218.562,18.616-6.549,0,0-.562-15.317-15.178-16.4C1784.516,919.563,1776.987,925.373,1774.981,933.625Z" transform="translate(-1774.161 -919.183)"/><path class="e" d="M1789.5,942.875c5.069,0,13.213-1.359,16.04-7.274a.816.816,0,0,0,.079-.384c-.005-.16-.764-16.064-15.937-17.185-7.042-.521-14.682,5.988-16.683,14.218a.818.818,0,0,0-.022.248c.322,4.9,4.394,8.6,4.567,8.755a.821.821,0,0,0,1.327-.354,36.418,36.418,0,0,1,4.966-8.487c.39,2.22,1.052,6.088,1.533,9.5a.822.822,0,0,0,.644.689A18.442,18.442,0,0,0,1789.5,942.875Zm14.467-7.8c-3.092,6.04-13.582,6.453-17.056,6.005-.728-5.02-1.776-10.739-1.787-10.8a.821.821,0,0,0-1.451-.36,49.527,49.527,0,0,0-5.876,9.226,12.25,12.25,0,0,1-3.172-6.637c2.055-8.2,9.364-13.261,14.937-12.845,5.752.425,9.922,3.167,12.4,8.149A20.779,20.779,0,0,1,1803.972,935.079Z" transform="translate(-1772.98 -918.003)"/></g></g><g transform="translate(434.615 77.854)"><g transform="translate(0 31.747)"><path class="d" d="M1929.852,1092.73l-6.36-3.146s-8.206-10.736-9.779-12.651-15.728,4.377-16.549,5.471a2.385,2.385,0,0,0,1.026,3.42,11.915,11.915,0,0,0-1.846,10.326c1.709,6.018,12.241.752,12.241.752s2.8,7.933,5.881,8.753,11.215-1.026,11.215-1.026Z" transform="translate(-1895.054 -1075.752)"/><path class="e" d="M1915.388,1105.5a52.093,52.093,0,0,0,9.3-1.252.821.821,0,0,0,.593-.529l4.172-11.9a.821.821,0,0,0-.411-1.007l-6.188-3.061c-1.045-1.366-8.2-10.719-9.681-12.522a2.327,2.327,0,0,0-1.96-.658c-4.141.092-14.959,4.931-15.88,6.158a2.939,2.939,0,0,0-.407,2.6,3.321,3.321,0,0,0,.93,1.537,12.729,12.729,0,0,0-1.477,10.328,4.4,4.4,0,0,0,2.522,2.978c3.149,1.388,8.1-.48,10.05-1.334.863,2.206,3.263,7.667,6.128,8.431A9.367,9.367,0,0,0,1915.388,1105.5Zm8.495-2.755c-2.507.537-8.16,1.528-10.38.936-1.937-.516-4.291-5.324-5.319-8.234a.821.821,0,0,0-1.141-.46c-1.735.865-6.82,2.855-9.481,1.682a2.8,2.8,0,0,1-1.6-1.924,11,11,0,0,1,1.691-9.581.821.821,0,0,0-.337-1.285,1.493,1.493,0,0,1-.809-1,1.34,1.34,0,0,1,.142-1.161c1.264-1.277,13.8-6.4,15.285-5.417,1.52,1.856,9.653,12.5,9.736,12.6a.813.813,0,0,0,.288.237l5.709,2.824Z" transform="translate(-1893.878 -1074.573)"/><g transform="translate(2.315 4.463)"><path class="e" d="M1944.366,1091.879a.82.82,0,0,0,.32-.065l11.284-4.787a.821.821,0,1,0-.641-1.511l-11.283,4.787a.821.821,0,0,0,.321,1.576Z" transform="translate(-1943.545 -1085.45)"/></g></g><g transform="translate(25.158)"><path class="f" d="M1716.536,1061.13s28.808,30.548,42.41,39.579q1.009.671,1.9,1.177c7.853,4.44,15.817,5.465,22.891-4.973,4.251-6.278,8.182-16.712,11.575-33.051,9.027-43.493-1.641-63.459-1.641-63.459-7.661-3.968-26.4,1.777-28.176,19.83s-7.521,38.434-7.521,38.434l-34.605-13.95Z" transform="translate(-1715.716 -998.385)"/><g transform="translate(0)"><path class="e" d="M1777.791,1098.933a.82.82,0,0,0,.485-1.482c-13.1-9.6-36.7-34.292-39.917-37.683l6.318-15.171,33.853,13.647a.82.82,0,0,0,1.1-.539c.058-.2,5.785-20.657,7.548-38.576a21.8,21.8,0,0,1,8.06-15.27c4.436-3.568,10.492-5.5,15.427-4.912a.821.821,0,0,0,.193-1.63c-5.433-.642-11.814,1.374-16.649,5.264a23.4,23.4,0,0,0-8.665,16.388c-1.541,15.664-6.143,33.305-7.252,37.409l-33.751-13.606a.822.822,0,0,0-1.064.446l-6.836,16.413a.821.821,0,0,0,.161.878c.262.278,26.378,27.917,40.507,38.266A.816.816,0,0,0,1777.791,1098.933Z" transform="translate(-1736.576 -997.2)"/></g><g transform="translate(42.808 62.334)"><path class="e" d="M1796.73,1172.506a.821.821,0,0,0,.8-1.015,66.119,66.119,0,0,0-10.677-22.051.821.821,0,0,0-1.3,1,65.727,65.727,0,0,1,10.385,21.442A.821.821,0,0,0,1796.73,1172.506Z" transform="translate(-1785.378 -1149.119)"/></g><path class="d" d="M1753.585,1230.119c0,.156,0,.308.012.464q1.009.671,1.9,1.178c7.854,4.439,15.818,5.465,22.891-4.973-1.67-4.259-6.45-7.336-12.088-7.336C1759.28,1219.451,1753.585,1224.227,1753.585,1230.119Z" transform="translate(-1710.367 -1128.259)"/><g transform="translate(10.12 51.119)"><path class="e" d="M1880.866,1138.06a.82.82,0,0,0,.683-.365,30.131,30.131,0,0,0,4.514-15.09.82.82,0,0,0-.819-.82h0a.821.821,0,0,0-.821.82c0,.078-.058,7.909-4.238,14.18a.821.821,0,0,0,.682,1.276Z" transform="translate(-1880.046 -1121.785)"/></g><g transform="translate(4.238 57.683)"><ellipse class="d" cx="2.257" cy="2.257" rx="2.257" ry="2.257" transform="translate(0.821 0.821)"/><path class="e" d="M1897.124,1143.939a3.077,3.077,0,1,0-3.077-3.078A3.081,3.081,0,0,0,1897.124,1143.939Zm0-4.513a1.436,1.436,0,1,1-1.436,1.436A1.438,1.438,0,0,1,1897.124,1139.425Z" transform="translate(-1894.046 -1137.784)"/></g></g></g><g transform="translate(495.609 27.639)"><path class="d" d="M1806.031,876.815l-.6,8.989-1.02,15.377c-5.323,3.413-10.373,3.594-15.085-.247l1-7.122,1.509-10.788Z" transform="translate(-1788.508 -875.995)"/><path class="e" d="M1795.492,903.419a15.23,15.23,0,0,0,8.186-2.726.821.821,0,0,0,.376-.637l1.617-24.365a.82.82,0,0,0-1.147-.806l-14.2,6.209a.821.821,0,0,0-.484.638l-2.505,17.91a.82.82,0,0,0,.294.75A12.272,12.272,0,0,0,1795.492,903.419Zm6.952-3.889c-4.942,3.041-9.339,3-13.416-.127l2.376-16.99,12.539-5.484Z" transform="translate(-1787.328 -874.816)"/></g><g transform="translate(480.693)"><g transform="translate(0)"><g transform="translate(4.896 9.932)"><path class="d" d="M1784.48,850.268c.56,7.425,2.486,16.337,11.407,15.183,10.605-1.374,17.623-8.669,17.973-18.719s-4.141-15.836-16.208-14.987a18.507,18.507,0,0,0-3.046.464c-6.974,1.692-10.6,7.345-10.341,14.091C1784.313,847.518,1784.37,848.867,1784.48,850.268Z" transform="translate(-1784.253 -831.661)"/></g><g transform="translate(4.076 9.658)"><path class="e" d="M1810.5,865.978a12.593,12.593,0,0,0,1.615-.108,23.061,23.061,0,0,0,11.3-4.524.821.821,0,1,0-1.012-1.292,21.418,21.418,0,0,1-10.495,4.189,7.456,7.456,0,0,1-5.964-1.418c-3.378-2.751-4.2-8.744-4.519-13.012-.108-1.392-.164-2.709-.212-3.939-.259-6.663,3.464-11.745,9.714-13.262a.821.821,0,1,0-.387-1.595c-7.055,1.712-11.258,7.429-10.967,14.92.046,1.191.1,2.582.215,4,.345,4.569,1.251,11.01,5.119,14.16A8.607,8.607,0,0,0,1810.5,865.978Z" transform="translate(-1799.551 -830.994)"/></g><path class="e" d="M1807.062,834.425a30.893,30.893,0,0,1-3.522,4.044l-5.336.2-1.041-3.8s-3.377-.236-4.019-2.535a1.268,1.268,0,0,1-.04-.161,29.354,29.354,0,0,1-.133-9.271s-8.217,3.383-12.654,3.738a10.058,10.058,0,0,1-5.146-1.428c-3.419-1.8-6.3-7.517-5.6-11.316,0-.025.009-.049.014-.073,1.092-5.567,3.908-1.62,3.908-1.62s.947-4.481,3.775-4.733,4.52,3.952,4.52,3.952a44.424,44.424,0,0,1,16.533-.273c10.859,1.939,7.957,9.38,7.957,9.38S1814.225,823.3,1807.062,834.425Z" transform="translate(-1769.462 -807.456)"/><g transform="translate(29.066 21.402)"><path class="d" d="M1765.549,870.058a7.749,7.749,0,0,1,6.908-8.414,7.036,7.036,0,0,1,2.653.256c5.166,1.535,3.5,13.613-9.209,12.368Z" transform="translate(-1764.701 -860.793)"/><path class="e" d="M1766.475,874c6.476,0,10.109-3.621,10.866-7.491.6-3.082-.733-5.846-3.176-6.572a7.884,7.884,0,0,0-2.96-.287,8.564,8.564,0,0,0-7.653,9.3.821.821,0,0,0,1.636-.136,6.919,6.919,0,0,1,6.163-7.529,6.249,6.249,0,0,1,2.346.226c1.615.48,2.47,2.45,2.033,4.684-.634,3.237-3.876,6.772-10.929,6.081a.821.821,0,0,0-.16,1.633Q1765.594,874,1766.475,874Z" transform="translate(-1763.523 -859.615)"/></g></g></g><g transform="translate(347.799 11.726)"><g transform="translate(0 63.299)"><rect class="d" width="58.611" height="10.343" rx="5.172" transform="matrix(-0.824, -0.566, 0.566, -0.824, 48.302, 41.722)"/><path class="e" d="M2108.953,1032.552a6.08,6.08,0,0,0,1.1-.1,5.992,5.992,0,0,0,2.3-10.83l-39.779-27.339a5.992,5.992,0,0,0-6.788,9.877h0l39.779,27.339A5.95,5.95,0,0,0,2108.953,1032.552ZM2069.2,994.866a4.32,4.32,0,0,1,2.456.767l39.778,27.339a4.351,4.351,0,0,1-4.929,7.171l-39.779-27.339-.464.677.464-.677a4.351,4.351,0,0,1,1.671-7.864A4.389,4.389,0,0,1,2069.2,994.866Z" transform="translate(-2061.996 -992.027)"/></g><g transform="translate(36.555 88.423)"><rect class="d" width="84.734" height="10.343" rx="5.172" transform="matrix(-0.824, -0.566, 0.566, -0.824, 69.831, 56.518)"/><path class="e" d="M1988.928,1108.584a6.016,6.016,0,0,0,1.1-.1,5.992,5.992,0,0,0,2.3-10.83l-61.307-42.135a5.992,5.992,0,1,0-6.789,9.877l61.307,42.135A5.948,5.948,0,0,0,1988.928,1108.584Zm-61.285-52.482a4.318,4.318,0,0,1,2.455.767L1991.4,1099a4.351,4.351,0,1,1-4.928,7.171l-61.307-42.135a4.351,4.351,0,0,1,1.672-7.864A4.43,4.43,0,0,1,1927.642,1056.1Zm-2.938,8.614h0Z" transform="translate(-1920.442 -1053.263)"/></g><g transform="translate(5.998)"><g transform="translate(3.892 2.675)"><path class="d" d="M2048.959,845.128l33.378,22.94a6.356,6.356,0,0,1,2.533,6.9l-15.152,55.759a3.2,3.2,0,0,1-4.908,1.8l-33.378-22.941a6.355,6.355,0,0,1-2.533-6.9l15.152-55.759A3.205,3.205,0,0,1,2048.959,845.128Z" transform="translate(-2027.856 -843.738)"/><path class="e" d="M2065.435,932.737a4.064,4.064,0,0,0,1.4-.251,3.981,3.981,0,0,0,2.5-2.724L2084.483,874a7.185,7.185,0,0,0-2.86-7.795l-33.378-22.94-.465.677.465-.677a4.026,4.026,0,0,0-6.165,2.262l-15.152,55.759a7.184,7.184,0,0,0,2.86,7.8l33.378,22.94A3.99,3.99,0,0,0,2065.435,932.737ZM2045.972,844.2a2.364,2.364,0,0,1,1.343.423l33.378,22.94a5.538,5.538,0,0,1,2.206,6.012l-15.151,55.759a2.384,2.384,0,0,1-3.651,1.34l-33.379-22.94a5.539,5.539,0,0,1-2.205-6.012l15.151-55.759a2.356,2.356,0,0,1,1.48-1.613A2.4,2.4,0,0,1,2045.972,844.2Z" transform="translate(-2026.677 -842.555)"/></g><g transform="translate(0)"><path class="d" d="M2058.444,838.608l33.378,22.94a6.356,6.356,0,0,1,2.533,6.9L2079.2,924.211a3.2,3.2,0,0,1-4.908,1.8l-33.379-22.941a6.355,6.355,0,0,1-2.533-6.9l15.151-55.759A3.205,3.205,0,0,1,2058.444,838.608Z" transform="translate(-2037.342 -837.218)"/><path class="e" d="M2074.921,926.217a4.061,4.061,0,0,0,1.4-.251,3.979,3.979,0,0,0,2.5-2.724l15.152-55.759a7.183,7.183,0,0,0-2.86-7.8l-33.378-22.94a4.025,4.025,0,0,0-6.165,2.262l-15.151,55.759a7.184,7.184,0,0,0,2.86,7.795l33.378,22.94A3.991,3.991,0,0,0,2074.921,926.217Zm-19.463-88.539a2.362,2.362,0,0,1,1.343.422h0l33.378,22.94a5.54,5.54,0,0,1,2.206,6.012l-15.151,55.759a2.384,2.384,0,0,1-3.651,1.34l-33.379-22.94A5.541,5.541,0,0,1,2038,895.2l15.152-55.759a2.357,2.357,0,0,1,1.479-1.613A2.4,2.4,0,0,1,2055.458,837.678Zm1.808-.254h0Z" transform="translate(-2036.164 -836.035)"/></g></g></g><g transform="translate(7.993 15.403)"><g transform="translate(0 235.096)"><g transform="translate(6.338)"><path class="e" d="M3001.816,1423.81a.821.821,0,0,0,.821-.821v-4.2a.821.821,0,1,0-1.641,0v4.2A.82.82,0,0,0,3001.816,1423.81Z" transform="translate(-3000.996 -1417.967)"/></g><g transform="translate(0 6.338)"><path class="e" d="M3007.021,1435.054h4.2a.821.821,0,0,0,0-1.641h-4.2a.821.821,0,0,0,0,1.641Z" transform="translate(-3006.201 -1433.413)"/></g><g transform="translate(6.338 8.473)"><path class="e" d="M3001.816,1444.462a.821.821,0,0,0,.821-.821v-4.2a.821.821,0,1,0-1.641,0v4.2A.821.821,0,0,0,3001.816,1444.462Z" transform="translate(-3000.996 -1438.618)"/></g><g transform="translate(8.474 6.338)"><path class="e" d="M2986.371,1435.054h4.2a.821.821,0,0,0,0-1.641h-4.2a.821.821,0,1,0,0,1.641Z" transform="translate(-2985.55 -1433.413)"/></g></g><g transform="translate(280.326 45.85)"><g transform="translate(8.692)"><path class="e" d="M2312.872,964.145a.821.821,0,0,0,.821-.82v-5.764a.821.821,0,1,0-1.641,0v5.764A.821.821,0,0,0,2312.872,964.145Z" transform="translate(-2312.052 -956.74)"/></g><g transform="translate(0 8.693)"><path class="e" d="M2320.011,979.567h5.763a.821.821,0,0,0,0-1.641h-5.763a.821.821,0,1,0,0,1.641Z" transform="translate(-2319.191 -977.926)"/></g><g transform="translate(8.692 11.622)"><path class="e" d="M2312.872,992.469a.821.821,0,0,0,.821-.821v-5.764a.821.821,0,1,0-1.641,0v5.764A.821.821,0,0,0,2312.872,992.469Z" transform="translate(-2312.052 -985.064)"/></g><g transform="translate(11.622 8.693)"><path class="e" d="M2291.686,979.567h5.764a.821.821,0,0,0,0-1.641h-5.764a.821.821,0,0,0,0,1.641Z" transform="translate(-2290.865 -977.926)"/></g></g><g transform="translate(49.138 20.986)"><g transform="translate(7.164)"><path class="e" d="M2880.045,902.534a.82.82,0,0,0,.821-.821v-4.75a.821.821,0,1,0-1.641,0v4.75A.821.821,0,0,0,2880.045,902.534Z" transform="translate(-2879.224 -896.143)"/></g><g transform="translate(0 7.164)"><path class="e" d="M2885.928,915.244h4.75a.821.821,0,1,0,0-1.641h-4.75a.821.821,0,0,0,0,1.641Z" transform="translate(-2885.108 -913.603)"/></g><g transform="translate(7.164 9.578)"><path class="e" d="M2880.045,925.877a.82.82,0,0,0,.821-.821v-4.75a.821.821,0,0,0-1.641,0v4.75A.821.821,0,0,0,2880.045,925.877Z" transform="translate(-2879.224 -919.486)"/></g><g transform="translate(9.578 7.164)"><path class="e" d="M2862.585,915.244h4.75a.821.821,0,1,0,0-1.641h-4.75a.821.821,0,0,0,0,1.641Z" transform="translate(-2861.765 -913.603)"/></g></g><ellipse class="c" cx="3.533" cy="3.533" rx="3.533" ry="3.533" transform="translate(440.391)"/><ellipse class="f" cx="7.466" cy="7.466" rx="7.466" ry="7.466" transform="translate(57.123 113.716)"/><ellipse class="f" cx="5.411" cy="5.411" rx="5.411" ry="5.411" transform="translate(461.685 386.59)"/><ellipse class="c" cx="2.873" cy="2.873" rx="2.873" ry="2.873" transform="translate(448.732 298.619)"/></g><g transform="translate(0 0.566)"><g transform="translate(0 166.367)"><g transform="translate(252.033 169.926)"><path class="g" d="M2378.1,1668.922a.821.821,0,0,0,.413-1.53l-22.808-13.254,16.807-9.7a.821.821,0,0,0,0-1.42l-24.889-14.465a.821.821,0,0,0-.825,1.42l23.664,13.753-16.807,9.7a.821.821,0,0,0,0,1.42l24.033,13.967A.815.815,0,0,0,2378.1,1668.922Z" transform="translate(-2346.394 -1628.44)"/></g><g transform="translate(302.269 142.512)"><g transform="translate(0)"><path class="g" d="M2252,1618.167a.821.821,0,0,0,.417-1.528l-29.178-17.163,29.412-16.98a.821.821,0,0,0,0-1.42l-33.272-19.338a.821.821,0,0,0-.825,1.419l32.048,18.626-29.4,16.976a.82.82,0,0,0-.006,1.418l30.391,17.877A.818.818,0,0,0,2252,1618.167Z" transform="translate(-2218.15 -1561.627)"/></g><g transform="translate(28.016 54.731)"><path class="g" d="M2204.02,1703.981c4.479,0,7.986-1.969,7.986-4.483s-3.508-4.483-7.986-4.483-7.986,1.969-7.986,4.483S2199.542,1703.981,2204.02,1703.981Zm0-7.324c3.74,0,6.345,1.5,6.345,2.842s-2.606,2.841-6.345,2.841-6.345-1.5-6.345-2.841S2200.281,1696.657,2204.02,1696.657Z" transform="translate(-2196.034 -1695.016)"/></g></g><g transform="translate(325.08 119.197)"><g transform="translate(0 3.663)"><path class="g" d="M2188.582,1515.371h22.93a.821.821,0,1,0,0-1.641h-22.93a.821.821,0,0,0,0,1.641Z" transform="translate(-2187.762 -1513.73)"/></g><g transform="translate(22.93)"><path class="g" d="M2160.821,1513.769c4.478,0,7.986-1.969,7.986-4.483s-3.508-4.484-7.986-4.484-7.986,1.97-7.986,4.484S2156.343,1513.769,2160.821,1513.769Zm0-7.325c3.739,0,6.344,1.5,6.344,2.842s-2.605,2.842-6.344,2.842-6.345-1.5-6.345-2.842S2157.082,1506.444,2160.821,1506.444Z" transform="translate(-2152.835 -1504.803)"/></g></g><g transform="translate(79.42 169.927)"><path class="g" d="M2767.905,1668.923a.819.819,0,0,0,.411-.111l24.033-13.966a.821.821,0,0,0,0-1.42l-16.807-9.7,23.664-13.753a.821.821,0,0,0-.824-1.419l-24.889,14.465a.82.82,0,0,0,0,1.42l16.807,9.7-22.808,13.254a.821.821,0,0,0,.413,1.531Z" transform="translate(-2767.083 -1628.441)"/></g><g transform="translate(8.411 142.512)"><g transform="translate(9.314)"><path class="g" d="M2890.338,1623.363a.82.82,0,0,0,.411-.11l39.705-23.073a.821.821,0,0,0,0-1.421l-29.4-16.976,32.047-18.626a.821.821,0,0,0-.825-1.419L2899,1581.076a.82.82,0,0,0,0,1.42l29.4,16.976-38.481,22.361a.821.821,0,0,0,.413,1.53Z" transform="translate(-2889.517 -1561.627)"/></g><g transform="translate(0 59.927)"><path class="g" d="M2988.483,1716.645c4.478,0,7.986-1.969,7.986-4.483s-3.508-4.483-7.986-4.483-7.986,1.969-7.986,4.483S2984,1716.645,2988.483,1716.645Zm0-7.325c3.739,0,6.345,1.5,6.345,2.842s-2.606,2.842-6.345,2.842-6.345-1.5-6.345-2.842S2984.744,1709.32,2988.483,1709.32Z" transform="translate(-2980.497 -1707.678)"/></g></g><g transform="translate(79.42)"><path class="g" d="M2798.792,1254.782a.821.821,0,0,0,.413-1.53l-23.664-13.753,16.807-9.7a.821.821,0,0,0,0-1.42l-24.033-13.967a.82.82,0,1,0-.824,1.419l22.808,13.255-16.807,9.7a.82.82,0,0,0,0,1.42l24.889,14.465A.816.816,0,0,0,2798.792,1254.782Z" transform="translate(-2767.083 -1214.299)"/></g><g transform="translate(20.901 15.326)"><g transform="translate(9.314 7.156)"><path class="g" d="M2903.77,1327.974a.821.821,0,0,0,.413-1.531l-27.136-15.77,29.4-16.977a.821.821,0,0,0,0-1.42l-39.706-23.072a.82.82,0,1,0-.824,1.419l38.48,22.361L2875,1309.96a.821.821,0,0,0,0,1.42l28.36,16.482A.813.813,0,0,0,2903.77,1327.974Z" transform="translate(-2865.515 -1269.092)"/></g><g transform="translate(0)"><path class="g" d="M2958.043,1260.618c4.478,0,7.986-1.969,7.986-4.483s-3.508-4.483-7.986-4.483-7.986,1.969-7.986,4.483S2953.565,1260.618,2958.043,1260.618Zm0-7.325c3.739,0,6.345,1.5,6.345,2.841s-2.606,2.842-6.345,2.842-6.345-1.5-6.345-2.842S2954.3,1253.293,2958.043,1253.293Z" transform="translate(-2950.056 -1251.652)"/></g></g><g transform="translate(293.329 29.519)"><g transform="translate(0 5.948)"><path class="g" d="M2254.453,1341.2a.816.816,0,0,0,.411-.111l27.653-16.072a.821.821,0,0,0,0-1.421l-24.237-13.994,12.485-7.334a.821.821,0,0,0-.832-1.416l-13.7,8.048a.821.821,0,0,0,.006,1.418l24.23,13.99-26.427,15.36a.82.82,0,0,0,.413,1.53Z" transform="translate(-2253.632 -1300.737)"/></g><g transform="translate(11.725)"><path class="g" d="M2270.2,1293.971c3.862,0,6.776-1.661,6.776-3.864s-2.913-3.865-6.776-3.865-6.776,1.661-6.776,3.865S2266.335,1293.971,2270.2,1293.971Zm0-6.088c2.938,0,5.135,1.174,5.135,2.224s-2.2,2.223-5.135,2.223-5.135-1.173-5.135-2.223S2267.259,1287.883,2270.2,1287.883Z" transform="translate(-2263.422 -1286.242)"/></g></g><g transform="translate(0 119.197)"><g transform="translate(14.331 3.663)"><path class="g" d="M2945.931,1515.371h22.93a.821.821,0,0,0,0-1.641h-22.93a.821.821,0,1,0,0,1.641Z" transform="translate(-2945.111 -1513.73)"/></g><path class="g" d="M3008.982,1513.769c4.479,0,7.987-1.969,7.987-4.483s-3.508-4.484-7.987-4.484-7.986,1.97-7.986,4.484S3004.5,1513.769,3008.982,1513.769Zm0-7.325c3.74,0,6.345,1.5,6.345,2.842s-2.606,2.842-6.345,2.842-6.345-1.5-6.345-2.842S3005.243,1506.444,3008.982,1506.444Z" transform="translate(-3000.996 -1504.803)"/></g><g transform="translate(181.606 213.106)"><path class="g" d="M2594.139,1764.3a.821.821,0,0,0,.821-.821V1734.5a.821.821,0,0,0-1.642,0v28.981A.821.821,0,0,0,2594.139,1764.3Z" transform="translate(-2593.318 -1733.677)"/></g><g transform="translate(174.441 245.872)"><path class="g" d="M2583.84,1822.5c4.479,0,7.986-1.969,7.986-4.483s-3.508-4.483-7.986-4.483-7.986,1.969-7.986,4.483S2579.362,1822.5,2583.84,1822.5Zm0-7.325c3.74,0,6.345,1.5,6.345,2.842s-2.605,2.842-6.345,2.842-6.345-1.5-6.345-2.842S2580.1,1815.173,2583.84,1815.173Z" transform="translate(-2575.854 -1813.532)"/></g></g><g transform="translate(46.732 192.699)"><g transform="translate(0)"><g class="h"><g transform="translate(0.13)"><path class="c" d="M2266.922,1358.522l134.309,78.052,135.18-78.046L2402.1,1280.476Z" transform="translate(-2266.101 -1279.655)"/><path class="c" d="M2400.051,1436.214a.824.824,0,0,0,.41-.109l135.179-78.046a.821.821,0,0,0,0-1.42l-134.308-78.051a.82.82,0,0,0-.823,0l-135.18,78.046a.821.821,0,0,0,0,1.42l134.309,78.051A.815.815,0,0,0,2400.051,1436.214Zm133.542-78.869-133.541,77.1-132.672-77.1,133.541-77.1Z" transform="translate(-2264.922 -1278.476)"/></g><g transform="translate(14.185 8.382)"><path class="d" d="M2397.11,1518.572l21.965-12.683a.951.951,0,0,1,.956,0l27.9,16.214-1.907,1.1-26.47-15.382-20.059,11.579,13.113,7.62,13.362,7.762-1.906,1.1-12.411-7.213-14.546-8.446a.963.963,0,0,1-.473-.827A.951.951,0,0,1,2397.11,1518.572Z" transform="translate(-2244.898 -1420.884)"/><path class="d" d="M2561.025,1561.526l22.127,12.855-22.687,13.1,1.906,1.108,22.687-13.1,21.511,12.5h0l1.906-1.1-22.945-13.333-24.029-13.964a.96.96,0,0,0-.96,0l-24.11,13.921,1.9,1.1Z" transform="translate(-2462.813 -1452.556)"/><path class="d" d="M2325.333,1426.166l1.9,1.108,39.612-22.868,34.008,19.768,16.486,9.578-39.607,22.868,1.906,1.108,40.085-23.145a.952.952,0,0,0,.478-.827.963.963,0,0,0-.472-.826l-16.5-9.588,67.8-39.139,84.684,49.219,1.906-1.1-86.113-50.045s-.019-.009-.024-.014l-.1-.042c-.024-.01-.052-.019-.076-.029s-.062-.014-.1-.024l-.085-.014h-.182a.8.8,0,0,0-.1.019.563.563,0,0,0-.086.02.52.52,0,0,0-.086.029c-.028.014-.057.028-.091.042l-.029.014-69.225,39.966-34-19.763a.949.949,0,0,0-.956,0Z" transform="translate(-2325.333 -1347.993)"/><path class="d" d="M2559.8,1324.839l13.013,7.562,2.842-1.643L2599.48,1317l-13.013-7.563,1.906-1.1,13.013,7.562,29.446-17,1.906,1.109-30.874,17.823-28.572,16.5a.873.873,0,0,1-.234.1.862.862,0,0,1-.244.034c-.029,0-.053-.01-.082-.01a.855.855,0,0,1-.162-.024.486.486,0,0,1-.081-.029.977.977,0,0,1-.148-.067h-.005l-14.441-8.393Z" transform="translate(-2495.874 -1298.904)"/><path class="d" d="M2355.489,1376.872l12.339-7.122,1.906,1.108-11.862,6.846,31.329,18.205,11.861-6.845,1.9,1.1-13.285,7.672a.944.944,0,0,1-.478.129.977.977,0,0,1-.483-.129l-33.234-19.314a.963.963,0,0,1-.473-.827A.945.945,0,0,1,2355.489,1376.872Z" transform="translate(-2182.854 -1340.681)"/></g><g transform="translate(0 78.051)"><g transform="translate(134.439)"><path class="d" d="M2266.6,1548.748l.13,18.475,135.18-78.046-.131-18.475Z" transform="translate(-2265.784 -1469.881)"/><path class="e" d="M2265.554,1566.864a.815.815,0,0,0,.41-.11l135.18-78.046a.82.82,0,0,0,.411-.717l-.13-18.475a.821.821,0,0,0-1.231-.705l-135.179,78.046a.82.82,0,0,0-.41.716l.13,18.476a.821.821,0,0,0,.82.815Zm134.356-79.339-133.545,77.1-.117-16.588,133.545-77.1Z" transform="translate(-2264.604 -1468.701)"/></g><g transform="translate(0 0.001)"><path class="d" d="M2730.443,1548.748l-.131,18.475-134.569-78.046.131-18.475Z" transform="translate(-2594.923 -1469.881)"/><path class="e" d="M2729.132,1566.865a.821.821,0,0,0,.821-.816l.131-18.475a.821.821,0,0,0-.409-.716l-134.57-78.046a.82.82,0,0,0-1.232.7l-.13,18.475a.82.82,0,0,0,.409.716l134.569,78.046A.823.823,0,0,0,2729.132,1566.865Zm-.693-18.826-.118,16.586-132.934-77.1.118-16.586Z" transform="translate(-2593.743 -1468.702)"/></g></g></g></g></g><g transform="translate(107.323)"><g transform="translate(0 150.088)"><g transform="translate(0)"><g transform="translate(10.003 61.995)"><g class="h"><path class="d" d="M2438.766,1364.937l64.05,37.222,64.465-37.219-64.05-37.222Z" transform="translate(-2437.945 -1326.898)"/><path class="e" d="M2501.635,1401.8a.819.819,0,0,0,.411-.11l64.465-37.219a.821.821,0,0,0,0-1.421l-64.05-37.221a.818.818,0,0,0-.823,0l-64.465,37.219a.821.821,0,0,0,0,1.42l64.05,37.222A.817.817,0,0,0,2501.635,1401.8Zm62.828-38.042-62.827,36.273-62.413-36.271,62.826-36.273Z" transform="translate(-2436.766 -1325.718)"/></g></g><g class="h"><g transform="translate(0 42.987)"><g transform="translate(74.864 0.821)"><path class="f" d="M2414.276,1324.378l.071,60.6,74.452-42.984-.072-60.6Z" transform="translate(-2414.276 -1281.394)"/><g transform="translate(7.703 22.441)"><g transform="translate(32.189)"><path class="d" d="M2460.3,1338.087l-25.257,14.579v23.876l25.288-14.6Z" transform="translate(-2434.226 -1337.266)"/><path class="e" d="M2433.868,1376.183a.817.817,0,0,0,.41-.11l25.289-14.6a.821.821,0,0,0,.41-.712l-.031-23.857a.821.821,0,0,0-1.231-.709l-25.257,14.579a.82.82,0,0,0-.41.711v23.876a.821.821,0,0,0,.821.821Zm24.467-15.893-23.646,13.651v-21.981l23.618-13.633Z" transform="translate(-2433.047 -1336.087)"/></g><g transform="translate(0 18.568)"><path class="d" d="M2513.5,1397.938l.025,23.863,25.263-14.585V1383.34Z" transform="translate(-2512.677 -1382.519)"/><path class="e" d="M2512.343,1421.442a.821.821,0,0,0,.41-.11l25.263-14.586a.819.819,0,0,0,.41-.71V1382.16a.821.821,0,0,0-1.231-.711l-25.288,14.6a.82.82,0,0,0-.41.712l.025,23.863a.821.821,0,0,0,.821.82Zm24.442-15.88-23.623,13.639-.023-21.969,23.646-13.651Z" transform="translate(-2511.497 -1381.339)"/></g></g></g><path class="d" d="M2669.738,1324.378l-.072,60.6-74.115-42.984.072-60.6Z" transform="translate(-2594.731 -1280.573)"/><path class="e" d="M2668.488,1384.617a.821.821,0,0,0,.82-.82l.072-60.6a.821.821,0,0,0-.409-.711l-74.115-42.984a.821.821,0,0,0-1.233.708l-.072,60.6a.82.82,0,0,0,.409.711l74.115,42.985A.824.824,0,0,0,2668.488,1384.617Zm-.75-60.946-.069,58.7-72.475-42.033.07-58.7Z" transform="translate(-2593.552 -1279.393)"/><g transform="translate(9.007 24.083)"><path class="c" d="M2694.806,1338.087l25.258,14.579v23.876l-25.288-14.6Z" transform="translate(-2694.775 -1338.087)"/><path class="c" d="M2641.613,1397.938l-.025,23.863-25.263-14.585V1383.34Z" transform="translate(-2584.135 -1364.772)"/></g></g><g transform="translate(0.072)"><path class="d" d="M2414.451,1219.61l73.971,42.988,74.451-42.984-73.971-42.988Z" transform="translate(-2413.631 -1175.805)"/><path class="e" d="M2487.243,1262.238a.819.819,0,0,0,.41-.11l74.451-42.985a.82.82,0,0,0,0-1.42l-73.971-42.987a.817.817,0,0,0-.823,0l-74.451,42.985a.82.82,0,0,0,0,1.42l73.971,42.988A.818.818,0,0,0,2487.243,1262.238Zm72.814-43.807-72.813,42.039-72.335-42.037,72.813-42.038Z" transform="translate(-2412.451 -1174.625)"/><g transform="translate(35.809 20.742)"><path class="d" d="M2501.723,1249.42,2540,1271.665l38.527-22.244-38.279-22.245Z" transform="translate(-2500.903 -1226.356)"/><path class="e" d="M2538.822,1271.307a.821.821,0,0,0,.41-.11l38.527-22.244a.821.821,0,0,0,0-1.42l-38.278-22.245a.821.821,0,0,0-.823,0l-38.526,22.244a.82.82,0,0,0,0,1.42l38.278,22.245A.821.821,0,0,0,2538.822,1271.307Zm36.889-23.067-36.888,21.3-36.643-21.294,36.888-21.3Z" transform="translate(-2499.723 -1225.177)"/></g></g></g></g></g><g transform="translate(0 75.044)"><g transform="translate(0)"><g transform="translate(9.65 61.995)"><g class="h" transform="translate(0)"><g transform="translate(0 37.221)"><g transform="translate(64.403)"><path class="d" d="M2438.614,1272.758l.062,18.609,64.465-37.219-.063-18.61Z" transform="translate(-2437.793 -1234.718)"/><path class="e" d="M2437.5,1291.008a.819.819,0,0,0,.411-.11l64.465-37.219a.821.821,0,0,0,.41-.714l-.063-18.609a.82.82,0,0,0-1.231-.708l-64.465,37.219a.82.82,0,0,0-.41.714l.062,18.609a.821.821,0,0,0,.821.818Zm63.643-38.512-62.827,36.274-.056-16.719,62.827-36.273Z" transform="translate(-2436.614 -1233.538)"/></g><g transform="translate(0 0)"><path class="d" d="M2660.1,1272.758l-.062,18.609-64.465-37.219.062-18.61Z" transform="translate(-2594.755 -1234.718)"/><path class="e" d="M2658.86,1291.008a.821.821,0,0,0,.821-.818l.062-18.61a.821.821,0,0,0-.41-.714l-64.466-37.219a.821.821,0,0,0-1.231.708l-.062,18.609a.821.821,0,0,0,.41.714l64.465,37.219A.823.823,0,0,0,2658.86,1291.008Zm-.76-18.957-.056,16.718-62.827-36.273.055-16.718Z" transform="translate(-2593.575 -1233.538)"/></g></g><g transform="translate(0.353)"><path class="d" d="M2438.766,1182.042l64.05,37.222,64.465-37.219-64.05-37.222Z" transform="translate(-2437.945 -1144.002)"/><path class="e" d="M2501.635,1218.9a.825.825,0,0,0,.411-.11l64.465-37.219a.821.821,0,0,0,0-1.42l-64.05-37.221a.821.821,0,0,0-.823,0l-64.465,37.219a.821.821,0,0,0,0,1.42l64.05,37.222A.82.82,0,0,0,2501.635,1218.9Zm62.828-38.042-62.827,36.273-62.413-36.271,62.826-36.273Z" transform="translate(-2436.766 -1142.823)"/></g></g></g><g class="h"><g transform="translate(0 42.987)"><g transform="translate(74.864 0.821)"><path class="f" d="M2414.276,1141.483l.071,60.6L2488.8,1159.1l-.072-60.6Z" transform="translate(-2414.276 -1098.498)"/><g transform="translate(7.703 22.441)"><g transform="translate(32.189)"><path class="d" d="M2460.3,1155.191l-25.257,14.58v23.875l25.288-14.6Z" transform="translate(-2434.226 -1154.37)"/><path class="e" d="M2433.868,1193.287a.818.818,0,0,0,.41-.11l25.289-14.6a.821.821,0,0,0,.41-.712l-.031-23.857a.821.821,0,0,0-1.231-.71l-25.257,14.579a.82.82,0,0,0-.41.711v23.876a.821.821,0,0,0,.821.821Zm24.467-15.892-23.646,13.65v-21.981l23.618-13.633Z" transform="translate(-2433.047 -1153.191)"/></g><g transform="translate(0 18.568)"><path class="d" d="M2513.5,1215.042l.025,23.863,25.263-14.585v-23.876Z" transform="translate(-2512.677 -1199.624)"/><path class="e" d="M2512.343,1238.547a.823.823,0,0,0,.41-.11l25.263-14.585a.82.82,0,0,0,.41-.711v-23.876a.821.821,0,0,0-1.231-.711l-25.288,14.6a.821.821,0,0,0-.41.712l.025,23.863a.821.821,0,0,0,.821.82Zm24.442-15.88-23.623,13.639-.023-21.969,23.646-13.651Z" transform="translate(-2511.497 -1198.444)"/></g></g></g><path class="d" d="M2669.738,1141.483l-.072,60.6-74.115-42.985.072-60.6Z" transform="translate(-2594.731 -1097.677)"/><path class="e" d="M2668.488,1201.721a.821.821,0,0,0,.82-.819l.072-60.6a.82.82,0,0,0-.409-.71l-74.115-42.985a.821.821,0,0,0-1.233.709l-.072,60.6a.819.819,0,0,0,.409.711l74.115,42.985A.823.823,0,0,0,2668.488,1201.721Zm-.75-60.946-.069,58.7-72.475-42.033.07-58.7Z" transform="translate(-2593.552 -1096.497)"/><g transform="translate(9.007 24.083)"><path class="c" d="M2694.806,1155.191l25.258,14.58v23.875l-25.288-14.6Z" transform="translate(-2694.775 -1155.191)"/><path class="c" d="M2641.613,1215.042l-.025,23.863-25.263-14.585v-23.876Z" transform="translate(-2584.135 -1181.876)"/></g></g><g transform="translate(0.072)"><path class="d" d="M2414.451,1036.714l73.971,42.987,74.451-42.984L2488.9,993.73Z" transform="translate(-2413.631 -992.909)"/><path class="e" d="M2487.243,1079.343a.819.819,0,0,0,.41-.11l74.451-42.985a.82.82,0,0,0,0-1.42l-73.971-42.987a.819.819,0,0,0-.823,0l-74.451,42.985a.821.821,0,0,0,0,1.42l73.971,42.987A.818.818,0,0,0,2487.243,1079.343Zm72.814-43.808-72.813,42.039-72.335-42.037,72.813-42.038Z" transform="translate(-2412.451 -991.73)"/><g transform="translate(35.809 20.742)"><path class="d" d="M2501.723,1066.525,2540,1088.77l38.527-22.244-38.279-22.245Z" transform="translate(-2500.903 -1043.46)"/><path class="e" d="M2538.822,1088.411a.824.824,0,0,0,.41-.11l38.527-22.244a.821.821,0,0,0,0-1.42l-38.278-22.245a.822.822,0,0,0-.823,0l-38.526,22.244a.82.82,0,0,0,0,1.42l38.278,22.245A.825.825,0,0,0,2538.822,1088.411Zm36.889-23.067-36.888,21.3-36.643-21.294,36.888-21.3Z" transform="translate(-2499.723 -1042.281)"/></g></g></g></g></g><g transform="translate(0)"><g transform="translate(0)"><g transform="translate(9.65 61.995)"><g class="h" transform="translate(0)"><g transform="translate(0 37.222)"><g transform="translate(64.403)"><path class="d" d="M2438.614,1089.862l.062,18.609,64.465-37.219-.063-18.609Z" transform="translate(-2437.793 -1051.822)"/><path class="e" d="M2437.5,1108.112a.824.824,0,0,0,.411-.11l64.465-37.219a.821.821,0,0,0,.41-.714l-.063-18.609a.821.821,0,0,0-1.231-.708l-64.465,37.219a.821.821,0,0,0-.41.714l.062,18.609a.82.82,0,0,0,.821.818Zm63.643-38.513-62.827,36.273-.056-16.718,62.827-36.274Z" transform="translate(-2436.614 -1050.642)"/></g><path class="d" d="M2660.1,1089.862l-.062,18.609-64.465-37.219.062-18.609Z" transform="translate(-2594.755 -1051.822)"/><path class="e" d="M2658.86,1108.112a.82.82,0,0,0,.821-.818l.062-18.609a.821.821,0,0,0-.41-.714l-64.466-37.219a.821.821,0,0,0-1.231.708l-.062,18.609a.821.821,0,0,0,.41.714L2658.45,1108A.827.827,0,0,0,2658.86,1108.112Zm-.76-18.957-.056,16.718-62.827-36.273.055-16.718Z" transform="translate(-2593.575 -1050.642)"/></g><g transform="translate(0.353)"><path class="d" d="M2438.766,999.146l64.05,37.221,64.465-37.219-64.05-37.221Z" transform="translate(-2437.945 -961.107)"/><path class="e" d="M2501.635,1036.009a.82.82,0,0,0,.411-.11l64.465-37.219a.821.821,0,0,0,0-1.42l-64.05-37.221a.817.817,0,0,0-.823,0l-64.465,37.219a.82.82,0,0,0,0,1.42l64.05,37.222A.816.816,0,0,0,2501.635,1036.009Zm62.828-38.042-62.827,36.273-62.413-36.271L2502.05,961.7Z" transform="translate(-2436.766 -959.927)"/></g></g></g><g class="h"><g transform="translate(0 42.988)"><g transform="translate(74.864 0.821)"><path class="f" d="M2414.276,958.587l.071,60.6L2488.8,976.2l-.072-60.6Z" transform="translate(-2414.276 -915.602)"/><g transform="translate(7.703 22.441)"><g transform="translate(32.189)"><path class="d" d="M2460.3,972.3l-25.257,14.579v23.876l25.288-14.6Z" transform="translate(-2434.226 -971.475)"/><path class="e" d="M2433.868,1010.392a.817.817,0,0,0,.41-.11l25.289-14.6a.821.821,0,0,0,.41-.712l-.031-23.857a.821.821,0,0,0-1.231-.71l-25.257,14.58a.82.82,0,0,0-.41.711v23.876a.821.821,0,0,0,.821.821Zm24.467-15.892-23.646,13.65v-21.98l23.618-13.634Z" transform="translate(-2433.047 -970.295)"/></g><g transform="translate(0 18.568)"><path class="d" d="M2513.5,1032.147l.025,23.863,25.263-14.585v-23.876Z" transform="translate(-2512.677 -1016.728)"/><path class="e" d="M2512.343,1055.652a.823.823,0,0,0,.41-.11l25.263-14.586a.82.82,0,0,0,.41-.711V1016.37a.821.821,0,0,0-1.231-.711l-25.288,14.6a.819.819,0,0,0-.41.711l.025,23.863a.821.821,0,0,0,.821.82Zm24.442-15.88-23.623,13.639-.023-21.969,23.646-13.65Z" transform="translate(-2511.497 -1015.549)"/></g></g></g><path class="d" d="M2669.738,958.587l-.072,60.6L2595.551,976.2l.072-60.6Z" transform="translate(-2594.731 -914.782)"/><path class="e" d="M2668.488,1018.826a.821.821,0,0,0,.82-.82l.072-60.6a.82.82,0,0,0-.409-.711l-74.115-42.985a.821.821,0,0,0-1.233.709l-.072,60.6a.819.819,0,0,0,.409.711l74.115,42.985A.819.819,0,0,0,2668.488,1018.826Zm-.75-60.946-.069,58.7-72.475-42.033.07-58.7Z" transform="translate(-2593.552 -913.602)"/><g transform="translate(9.007 24.082)"><path class="c" d="M2694.806,972.3l25.258,14.579v23.876l-25.288-14.6Z" transform="translate(-2694.775 -972.296)"/><path class="c" d="M2641.613,1032.147l-.025,23.863-25.263-14.585v-23.876Z" transform="translate(-2584.135 -998.981)"/></g></g><g transform="translate(0.072)"><path class="d" d="M2414.451,853.819l73.971,42.987,74.451-42.985L2488.9,810.834Z" transform="translate(-2413.631 -810.014)"/><path class="e" d="M2487.243,896.447a.818.818,0,0,0,.41-.11l74.451-42.984a.82.82,0,0,0,0-1.42l-73.971-42.988a.82.82,0,0,0-.823,0l-74.451,42.985a.82.82,0,0,0,0,1.42l73.971,42.988A.822.822,0,0,0,2487.243,896.447Zm72.814-43.808-72.813,42.038-72.335-42.037,72.813-42.038Z" transform="translate(-2412.451 -808.834)"/><g transform="translate(36.63 21.563)"><path class="c" d="M2501.723,883.629,2540,905.874l38.527-22.244-38.279-22.245Z" transform="translate(-2501.723 -861.385)"/></g></g></g></g></g></g></g></g></g></g></svg>