<svg xmlns="http://www.w3.org/2000/svg" xmlns:xlink="http://www.w3.org/1999/xlink" width="584" height="438" viewBox="0 0 584 438"><defs><style>.a,.d{fill:#fff;}.a{stroke:#707070;}.b{clip-path:url(#a);}.c{fill:#2c3b44;}.e{fill:#262424;}.f{fill:#c31e23;}.g{fill:#3b3a3c;}.h{isolation:isolate;}</style><clipPath id="a"><rect class="a" width="584" height="438" transform="translate(-6489 1893)"/></clipPath></defs><g class="b" transform="translate(6489 -1893)"><g transform="translate(-6428 1919)"><g transform="translate(0)"><g transform="translate(159.511 112.364)"><g transform="translate(0 39.577)"><g transform="translate(0)"><path class="c" d="M2399.26,1265.622c7.052,8.355,31.33,18.029,31.33,18.029,1.691-.491,3.391-1.035,5.067-1.613a177.6,177.6,0,0,0,20.806-8.887s4.99-3.822,3.844-9.962c0,0-2.558-7.844-8.7-7.605s-34.283-3.522-34.283-3.522-7.216-8.373-13.373-7.06S2392.208,1257.262,2399.26,1265.622Z" transform="translate(-2395.273 -1244.163)"/><g transform="translate(41.144 23.83)"><ellipse class="d" cx="3.763" cy="5.175" rx="3.763" ry="5.175" transform="translate(3.052 11.077) rotate(-113.92)"/><path class="e" d="M2435.273,1322.919a7.293,7.293,0,0,0,2.945-.644,6.943,6.943,0,0,0,3.219-2.779,3.786,3.786,0,0,0-2.615-5.9,6.954,6.954,0,0,0-4.221.521h0c-2.96,1.313-4.557,4.211-3.56,6.459A4.418,4.418,0,0,0,2435.273,1322.919Zm2.287-8.055a4.636,4.636,0,0,1,.969.1,2.4,2.4,0,0,1,1.7,3.833,5.548,5.548,0,0,1-2.577,2.2c-2.257,1-4.65.558-5.336-.987s.593-3.616,2.85-4.617h0A5.952,5.952,0,0,1,2437.56,1314.864Z" transform="translate(-2430.152 -1312.659)"/></g><g transform="translate(19.655 13.924)"><path class="e" d="M2453.867,1289.524a.7.7,0,0,0,0-1.4c-.236,0-23.734-.1-36.908-5.319a.7.7,0,1,0-.515,1.3c13.424,5.322,36.448,5.416,37.421,5.417Z" transform="translate(-2416.004 -1282.76)"/></g><path class="d" d="M2470.388,1265.622c7.052,8.355,31.33,18.029,31.33,18.029,1.691-.491,3.391-1.035,5.067-1.613-11.112-3.714-26.976-14.691-26.976-14.691,11.413-4.445,8.649-15.286,8.649-15.286s-7.217-8.373-13.373-7.06S2463.336,1257.262,2470.388,1265.622Z" transform="translate(-2466.401 -1244.163)"/><path class="e" d="M2500.419,1283.047a.712.712,0,0,0,.194-.028c1.649-.479,3.365-1.025,5.1-1.624a.7.7,0,0,0-.006-1.322c-9.257-3.094-22.029-11.4-25.748-13.89,10.465-4.891,7.9-15.487,7.874-15.6a.69.69,0,0,0-.147-.283c-.306-.355-7.559-8.671-14.046-7.288-3.3.7-6.34,3.811-7.749,7.921a13.991,13.991,0,0,0,2.665,13.833h0c7.083,8.392,30.607,17.829,31.605,18.227A.7.7,0,0,0,2500.419,1283.047Zm2.945-2.336c-.985.321-1.957.622-2.907.9-2.448-.995-24.329-10.035-30.833-17.741a12.627,12.627,0,0,1-2.411-12.481c1.233-3.6,3.934-6.415,6.719-7.007,5.294-1.13,11.671,5.69,12.587,6.708.293,1.355,1.82,10.379-8.262,14.305a.7.7,0,0,0-.144,1.224C2478.263,1266.723,2492.456,1276.5,2503.364,1280.711Zm-34.274-16.391h0Z" transform="translate(-2465.102 -1242.86)"/></g><g transform="translate(55.758 7.353)"><path class="d" d="M2390.846,1277.279l-11.3,4.126s-6.381-1.973-4.56-9.359l11.243-6.115Z" transform="translate(-2373.961 -1265.233)"/><path class="e" d="M2378.244,1280.8a.7.7,0,0,0,.239-.042l11.3-4.126a.7.7,0,0,0,.407-.919l-4.617-11.348a.7.7,0,0,0-.98-.35l-11.243,6.115a.7.7,0,0,0-.344.446c-1.956,7.934,4.96,10.171,5.031,10.193A.69.69,0,0,0,2378.244,1280.8Zm10.381-5.232-10.384,3.792c-1.017-.4-5.211-2.4-3.948-8.154l10.282-5.592Z" transform="translate(-2372.659 -1263.931)"/></g></g><g transform="translate(63.321)"><path class="c" d="M1878.984,1170.86s.928,14.189,11.865,21.4l50.715-24.428s55.834,23.963,74.913,31.871,68.4-18.844,31.406-39.084c0,0-68.062-20.418-96.988-28.2-6.951-1.874-11.642-3.015-12.588-2.97-1.231.059-5.618,2.725-11.491,6.679C1909.422,1147.839,1878.984,1170.86,1878.984,1170.86Z" transform="translate(-1878.984 -1129.447)"/><path class="d" d="M2195.3,1136.128a17.915,17.915,0,0,0,10.445,3.092c6.382,0,11.792-2.858,13.634-6.8-6.952-1.874-11.642-3.015-12.588-2.97C2205.564,1129.508,2201.178,1132.174,2195.3,1136.128Z" transform="translate(-2147.472 -1129.447)"/><g transform="translate(10.468 21.404)"><path class="e" d="M1994.555,1219.621a.692.692,0,0,0,.337-.088l49.286-27.293,80.5,26.519a.7.7,0,1,0,.437-1.326l-80.793-26.614a.693.693,0,0,0-.556.052l-49.553,27.441a.7.7,0,0,0,.339,1.308Z" transform="translate(-1993.857 -1190.784)"/></g><g transform="translate(59.22 13.349)"><path class="e" d="M2224.414,1190.89c.022,0,.045,0,.068,0a.7.7,0,0,0,.627-.762l-2.122-21.793a.7.7,0,1,0-1.39.135l2.122,21.793A.7.7,0,0,0,2224.414,1190.89Z" transform="translate(-2221.594 -1167.701)"/></g><g transform="translate(4.303 40.481)"><path class="e" d="M2368.6,1262.783a.7.7,0,0,0,.386-1.28c-7.206-4.767-8.868-15.351-8.884-15.457a.7.7,0,0,0-1.381.206c.069.459,1.763,11.3,9.495,16.416A.7.7,0,0,0,2368.6,1262.783Z" transform="translate(-2358.712 -1245.45)"/></g></g></g><g transform="translate(258.987 140.021)"><g transform="translate(0 186.959)"><g transform="translate(0 8.264)"><path class="c" d="M2149.109,1817.682c10.933-.119,33.85-12.681,33.85-12.681.7-1.616,1.361-3.273,1.982-4.934a177.633,177.633,0,0,0,6.393-21.7s.23-6.281-5.235-9.307c0,0-7.677-3.022-11.4,1.864s-24.543,24.194-24.543,24.194-11.052.233-13.958,5.817S2138.172,1817.8,2149.109,1817.682Z" transform="translate(-2134.663 -1768.132)"/><g transform="translate(43.166 15.11)"><ellipse class="d" cx="3.763" cy="5.175" rx="3.763" ry="5.175" transform="translate(7.248 11.995) rotate(-164.377)"/><path class="e" d="M2150.491,1823.6c2.093,0,4.191-1.866,4.95-4.581a6.947,6.947,0,0,0-.094-4.252,3.786,3.786,0,0,0-6.212-1.737,7.319,7.319,0,0,0-2.192,7.839,4,4,0,0,0,2.621,2.605A3.424,3.424,0,0,0,2150.491,1823.6Zm1.292-10.172a2.1,2.1,0,0,1,.567.077,2.644,2.644,0,0,1,1.688,1.748,5.542,5.542,0,0,1,.058,3.389c-.664,2.377-2.53,3.941-4.157,3.487a2.645,2.645,0,0,1-1.688-1.748,5.934,5.934,0,0,1,1.75-6.258A2.911,2.911,0,0,1,2151.783,1813.433Z" transform="translate(-2146.126 -1811.824)"/></g><g transform="translate(21.424 7.788)"><path class="e" d="M2153.41,1817.088a.694.694,0,0,0,.337-.086c12.649-6.963,27.38-24.658,28-25.408a.7.7,0,0,0-1.075-.89c-.15.182-15.184,18.241-27.6,25.075a.7.7,0,0,0,.337,1.309Z" transform="translate(-2152.712 -1790.45)"/></g><g transform="translate(15.607 3.601)"><path class="e" d="M2172.744,1803.809a.7.7,0,0,0,.37-.105c12.041-7.526,26.87-23.922,27.019-24.087a.7.7,0,1,0-1.037-.934c-.147.163-14.847,16.417-26.722,23.837a.7.7,0,0,0,.371,1.29Z" transform="translate(-2172.045 -1778.451)"/></g><g transform="translate(0 26.284)"><path class="d" d="M2167.433,1868.018c10.933-.119,33.85-12.681,33.85-12.681.7-1.615,1.361-3.273,1.982-4.934-9.939,6.2-28.5,11.449-28.5,11.449,3.838-11.631-6.281-16.4-6.281-16.4s-11.052.234-13.958,5.817S2156.5,1868.134,2167.433,1868.018Z" transform="translate(-2152.988 -1844.753)"/><path class="e" d="M2165.978,1867.416h.169c10.982-.119,33.236-12.251,34.178-12.767a.7.7,0,0,0,.305-.335c.682-1.58,1.354-3.25,2-4.967a.7.7,0,0,0-1.023-.836c-8.281,5.17-22.818,9.729-27.1,11.012,2.892-11.184-6.912-15.954-7.014-16a.713.713,0,0,0-.313-.066c-.468.01-11.5.31-14.563,6.193-1.558,2.99-1.1,7.315,1.175,11.018A13.984,13.984,0,0,0,2165.978,1867.416Zm.154-1.4a12.6,12.6,0,0,1-11.159-6.087c-1.99-3.242-2.442-7.118-1.126-9.643,2.5-4.8,11.819-5.377,13.187-5.436,1.232.637,9.163,5.2,5.772,15.479a.7.7,0,0,0,.852.891c.177-.05,16.753-4.768,26.944-10.5-.379.963-.766,1.9-1.157,2.815-2.326,1.254-23.228,12.373-33.312,12.482Z" transform="translate(-2151.695 -1843.451)"/></g></g><g transform="translate(42.129)"><path class="d" d="M2148.677,1750.115l-4.013,11.341s-5.583,3.664-10.12-2.443l2.443-12.563Z" transform="translate(-2133.847 -1745.753)"/><path class="e" d="M2139.427,1761.931a8.713,8.713,0,0,0,4.319-1.192.7.7,0,0,0,.275-.351l4.013-11.341a.7.7,0,0,0-.449-.9l-11.69-3.664a.7.7,0,0,0-.894.533l-2.443,12.563a.7.7,0,0,0,.125.549C2134.9,1761.114,2137.379,1761.931,2139.427,1761.931Zm3.362-2.246c-.951.532-5.166,2.491-8.8-2.147l2.234-11.489,10.255,3.214Z" transform="translate(-2132.545 -1744.452)"/></g></g><g transform="translate(40.618)"><path class="c" d="M1834.368,1394.149c9.073,13.491,24.194,7.21,24.194,7.21,8.609-19.308,28.381-78.866,28.381-78.866l64.21-71.887s13.261-27.45-6.746-38.85-36.757,12.8-36.757,12.8l-43.53,68.938-7.886,12.486-4.268,17.2Z" transform="translate(-1834.368 -1208.701)"/><g transform="translate(58.01 4.144)"><path class="e" d="M1937.5,1256.061a.7.7,0,0,0,.591-.325l14.574-23.081a47.172,47.172,0,0,1,11.166-10.8.7.7,0,1,0-.775-1.16,47.64,47.64,0,0,0-11.554,11.191l-14.591,23.106a.7.7,0,0,0,.589,1.071Z" transform="translate(-1936.8 -1220.576)"/></g><g transform="translate(63.902 0.029)"><path class="e" d="M1966.19,1236.761a.7.7,0,0,0,.684-.841l-1.308-6.249a5.79,5.79,0,0,1,.736-4.233l9.579-15.591a.7.7,0,1,0-1.19-.731l-9.578,15.591a7.176,7.176,0,0,0-.913,5.25l1.308,6.249A.7.7,0,0,0,1966.19,1236.761Z" transform="translate(-1964.044 -1208.784)"/></g><path class="d" d="M2077.058,1481.361c.174.077.352.15.534.217,6.33,2.328,13.945-2.53,17-10.849,2.966-8.075.554-16.45-5.381-19.057l-7.886,12.486Z" transform="translate(-2059.46 -1366.883)"/><g transform="translate(19.89 32.599)"><path class="e" d="M1865.41,1452.988a.7.7,0,0,0,.657-.464c8.3-23.316,23.365-69.1,24.274-71.863l64.823-77.4a.7.7,0,1,0-1.07-.9l-64.909,77.5a.693.693,0,0,0-.128.23c-.157.478-15.8,48.048-24.305,71.959a.7.7,0,0,0,.424.891A.707.707,0,0,0,1865.41,1452.988Z" transform="translate(-1864.712 -1302.118)"/></g><g transform="translate(38.385 107.336)"><path class="e" d="M2045.507,1523.205a.7.7,0,0,0,.29-1.333l-12.1-5.525a.7.7,0,0,0-.58,1.27l12.1,5.525A.689.689,0,0,0,2045.507,1523.205Z" transform="translate(-2032.711 -1516.284)"/></g><g transform="translate(2.325 181.84)"><path class="e" d="M2126.631,1736.729a25.855,25.855,0,0,0,6.112-.687.7.7,0,0,0-.356-1.35c-.12.031-12.06,3.053-20.161-4.714a.7.7,0,0,0-.966,1.007A21.813,21.813,0,0,0,2126.631,1736.729Z" transform="translate(-2111.045 -1729.784)"/></g></g></g><g transform="translate(348.361 48.33)"><path class="f" d="M1939.046,945.951s-51.537,26.307-54.678,39.917,17.164,17.663,36.009,1.087S1939.046,945.951,1939.046,945.951Z" transform="translate(-1884.045 -945.951)"/><g transform="translate(1.884 34.686)"><g transform="translate(0)"><path class="d" d="M2005.759,1047.647c2.2.938,2.268,4.944,1.163,9.771s-11.748,4.769-12.912,3.024-.639-8.317.64-10.12S2003.026,1046.484,2005.759,1047.647Z" transform="translate(-1992.657 -1046.622)"/><path class="e" d="M1997.086,1060.949a17.447,17.447,0,0,0,3.091-.275c3.449-.633,5.624-2.186,6.125-4.374.942-4.116,1.435-9.29-1.571-10.569h0c-2.979-1.267-10.488.852-11.951,2.914-1.407,1.983-2.033,8.839-.652,10.911C1992.761,1060.5,1994.833,1060.949,1997.086,1060.949Zm7.1-13.934c1.6.682,1.886,4.037.756,8.973-.516,2.254-3.68,3.068-5.016,3.313-3.237.594-6.281.01-6.635-.52-.949-1.424-.527-7.7.628-9.329,1.048-1.476,7.732-3.516,10.267-2.437Z" transform="translate(-1991.355 -1045.349)"/></g><g transform="translate(12.749 0.523)"><path class="d" d="M1983.871,1048.885c2.928.488,1.512,7.27.7,10.469s-5.583,4.362-5.409,0S1980.381,1048.3,1983.871,1048.885Z" transform="translate(-1978.457 -1048.15)"/><path class="e" d="M1979.9,1061.6a4.418,4.418,0,0,0,4.043-3.377c1.314-5.162,1.44-8.608.375-10.241a2.388,2.388,0,0,0-1.635-1.089h0a2.966,2.966,0,0,0-2.451.658c-2.475,2.014-2.973,7.993-3.072,10.471-.118,2.961,1.748,3.464,2.322,3.547A2.837,2.837,0,0,0,1979.9,1061.6Zm2.554-13.33a.986.986,0,0,1,.695.475c.808,1.237.6,4.566-.559,9.134a2.974,2.974,0,0,1-2.907,2.31c-1.049-.153-1.157-1.387-1.128-2.111.147-3.679.9-8.092,2.558-9.444a1.583,1.583,0,0,1,1.341-.365Z" transform="translate(-1977.15 -1046.846)"/></g></g></g><g transform="translate(347.761 38.577)"><path class="f" d="M1795.915,1083.413s-19.309-33.5-66.536-63.977l27.917-20.473s6.514-31.465,27.685-60.081c0,0,18.146-4.595,28.615-3.664s25.358,23.265,25.358,23.265-9.771,61.656-15.82,82.129S1795.915,1083.413,1795.915,1083.413Z" transform="translate(-1729.379 -929.13)"/><g transform="translate(65.117 20.776)"><path class="e" d="M1828.216,998.466a2.089,2.089,0,0,0,.823-.136c.424-.189.79-.352,3.343-9.479,1.22-4.362,2.359-8.736,2.37-8.78a.7.7,0,0,0-1.351-.352c-1.967,7.567-4.349,16-5.051,17.354a6.673,6.673,0,0,1-2.963-.806,1.945,1.945,0,0,1-1.015-1.013c-.218-1.052,2.041-9.374,4.352-16.81a.7.7,0,0,0-1.333-.414c-1.139,3.666-4.822,15.768-4.372,17.563a3.426,3.426,0,0,0,2.014,2.063A8.157,8.157,0,0,0,1828.216,998.466Z" transform="translate(-1822.98 -977.539)"/></g><g transform="translate(7.38 88.65)"><path class="e" d="M1905.965,1227.434a.7.7,0,0,0,.55-1.126c-.3-.385-30.29-38.656-60.785-54.193a.7.7,0,1,0-.634,1.244c30.221,15.4,60.02,53.424,60.317,53.806A.7.7,0,0,0,1905.965,1227.434Z" transform="translate(-1844.715 -1172.038)"/></g><g transform="translate(32.456 12.517)"><path class="e" d="M1889.856,994.39a.7.7,0,0,0,.656-.461,172.117,172.117,0,0,1,19.882-38.963.7.7,0,1,0-1.146-.8,173.532,173.532,0,0,0-20.049,39.285.7.7,0,0,0,.419.893A.69.69,0,0,0,1889.856,994.39Z" transform="translate(-1889.158 -953.87)"/></g><g transform="translate(66.596)"><path class="d" d="M1774.981,931.588c.258,3.929,3.654,6.972,3.654,6.972.712-2.156,2.966-5.734,5.294-8.682,0,0,.963,5.245,1.588,9.663,2.572.541,12.943.478,15.833-5.57,0,0-.478-13.027-12.908-13.945C1783.091,919.629,1776.687,924.571,1774.981,931.588Z" transform="translate(-1774.283 -919.306)"/><path class="e" d="M1787.034,939.156c4.312,0,11.238-1.156,13.642-6.186a.693.693,0,0,0,.068-.327c0-.136-.65-13.662-13.554-14.615-5.989-.443-12.487,5.092-14.189,12.093a.7.7,0,0,0-.018.211c.274,4.165,3.737,7.314,3.884,7.446a.7.7,0,0,0,1.129-.3,30.974,30.974,0,0,1,4.223-7.218c.332,1.888.895,5.178,1.3,8.078a.7.7,0,0,0,.548.586A15.676,15.676,0,0,0,1787.034,939.156Zm12.3-6.63c-2.63,5.137-11.552,5.488-14.506,5.107-.619-4.27-1.51-9.133-1.52-9.184a.7.7,0,0,0-1.234-.306,42.139,42.139,0,0,0-5,7.847,10.418,10.418,0,0,1-2.7-5.645c1.748-6.975,7.964-11.278,12.7-10.925a12.013,12.013,0,0,1,10.542,6.931A17.668,17.668,0,0,1,1799.338,932.526Z" transform="translate(-1772.98 -918.003)"/></g></g><g transform="translate(369.638 66.214)"><g transform="translate(0 27.001)"><path class="d" d="M1924.773,1090.315l-5.409-2.676s-6.979-9.131-8.317-10.76-13.377,3.722-14.075,4.653a2.029,2.029,0,0,0,.873,2.908,10.133,10.133,0,0,0-1.57,8.782c1.454,5.118,10.411.64,10.411.64s2.385,6.747,5,7.444,9.539-.872,9.539-.872Z" transform="translate(-1895.177 -1075.875)"/><path class="e" d="M1912.172,1100.877a44.278,44.278,0,0,0,7.909-1.065.7.7,0,0,0,.5-.449l3.548-10.12a.7.7,0,0,0-.349-.857l-5.263-2.6c-.888-1.162-6.974-9.116-8.233-10.65a1.979,1.979,0,0,0-1.667-.56c-3.522.078-12.723,4.194-13.506,5.237a2.5,2.5,0,0,0-.346,2.209,2.824,2.824,0,0,0,.792,1.307,10.827,10.827,0,0,0-1.256,8.784,3.744,3.744,0,0,0,2.145,2.533c2.678,1.18,6.885-.408,8.548-1.135.734,1.877,2.775,6.521,5.212,7.171A7.969,7.969,0,0,0,1912.172,1100.877Zm7.225-2.343c-2.132.457-6.94,1.3-8.829.8-1.648-.439-3.649-4.528-4.524-7a.7.7,0,0,0-.97-.391c-1.475.736-5.8,2.428-8.063,1.43a2.376,2.376,0,0,1-1.364-1.636,9.355,9.355,0,0,1,1.438-8.149.7.7,0,0,0-.286-1.093,1.27,1.27,0,0,1-.688-.851,1.139,1.139,0,0,1,.121-.988c1.075-1.086,11.74-5.445,13-4.607,1.293,1.579,8.21,10.628,8.28,10.719a.691.691,0,0,0,.245.2l4.856,2.4Z" transform="translate(-1893.878 -1074.573)"/><g transform="translate(1.969 3.796)"><path class="e" d="M1944.243,1090.918a.7.7,0,0,0,.273-.056l9.6-4.071a.7.7,0,1,0-.545-1.285l-9.6,4.071a.7.7,0,0,0,.273,1.341Z" transform="translate(-1943.545 -1085.45)"/></g></g><g transform="translate(21.396)"><path class="f" d="M1716.536,1051.873s24.5,25.981,36.069,33.661q.858.57,1.619,1c6.679,3.776,13.453,4.648,19.469-4.23,3.615-5.339,6.958-14.213,9.844-28.109,7.677-36.991-1.4-53.971-1.4-53.971-6.516-3.375-22.453,1.511-23.964,16.866s-6.4,32.688-6.4,32.688l-29.432-11.865Z" transform="translate(-1715.838 -998.508)"/><g transform="translate(0)"><path class="e" d="M1771.629,1083.723a.7.7,0,0,0,.413-1.261c-11.141-8.161-31.21-29.165-33.949-32.049l5.374-12.9,28.792,11.607a.7.7,0,0,0,.933-.458c.049-.174,4.92-17.569,6.42-32.808a18.538,18.538,0,0,1,6.855-12.987c3.772-3.035,8.924-4.676,13.121-4.177a.7.7,0,0,0,.164-1.387,20.178,20.178,0,0,0-21.53,18.414c-1.311,13.322-5.225,28.326-6.168,31.816l-28.7-11.572a.7.7,0,0,0-.905.379l-5.814,13.959a.7.7,0,0,0,.137.747c.223.237,22.434,23.743,34.451,32.545A.694.694,0,0,0,1771.629,1083.723Z" transform="translate(-1736.576 -997.2)"/></g><g transform="translate(36.408 53.015)"><path class="e" d="M1795.032,1169.009a.706.706,0,0,0,.167-.02.7.7,0,0,0,.512-.844,56.224,56.224,0,0,0-9.081-18.754.7.7,0,1,0-1.107.849,55.9,55.9,0,0,1,8.833,18.236A.7.7,0,0,0,1795.032,1169.009Z" transform="translate(-1785.378 -1149.119)"/></g><path class="d" d="M1753.585,1228.524c0,.133,0,.262.011.395q.858.571,1.619,1c6.679,3.776,13.453,4.648,19.469-4.229-1.42-3.622-5.486-6.24-10.281-6.24C1758.428,1219.451,1753.585,1223.513,1753.585,1228.524Z" transform="translate(-1716.828 -1141.893)"/><g transform="translate(8.607 43.476)"><path class="e" d="M1880.744,1135.627a.7.7,0,0,0,.581-.311,25.626,25.626,0,0,0,3.839-12.834.7.7,0,0,0-.7-.7h0a.7.7,0,0,0-.7.7,24.655,24.655,0,0,1-3.6,12.06.7.7,0,0,0,.58,1.085Z" transform="translate(-1880.046 -1121.785)"/></g><g transform="translate(3.605 49.059)"><ellipse class="d" cx="1.919" cy="1.919" rx="1.919" ry="1.919" transform="translate(0.698 0.698)"/><path class="e" d="M1896.663,1143.019a2.617,2.617,0,1,0-2.617-2.618A2.62,2.62,0,0,0,1896.663,1143.019Zm0-3.839a1.221,1.221,0,1,1-1.221,1.221A1.223,1.223,0,0,1,1896.663,1139.18Z" transform="translate(-1894.046 -1137.784)"/></g></g></g><g transform="translate(421.513 23.507)"><path class="d" d="M1803.534,876.815l-.508,7.645-.867,13.078c-4.527,2.9-8.823,3.057-12.83-.21l.847-6.057,1.283-9.175Z" transform="translate(-1788.63 -876.117)"/><path class="e" d="M1794.271,899.143a12.955,12.955,0,0,0,6.962-2.318.7.7,0,0,0,.32-.542l1.375-20.723a.7.7,0,0,0-.976-.686l-12.074,5.281a.7.7,0,0,0-.412.543l-2.131,15.233a.7.7,0,0,0,.25.637A10.437,10.437,0,0,0,1794.271,899.143Zm5.912-3.307c-4.2,2.587-7.943,2.552-11.41-.108l2.021-14.45,10.665-4.664Z" transform="translate(-1787.328 -874.816)"/></g><g transform="translate(408.826)"><g transform="translate(0)"><g transform="translate(4.164 8.447)"><path class="d" d="M1784.446,847.486c.476,6.315,2.114,13.894,9.7,12.913,9.02-1.168,14.988-7.373,15.286-15.921s-3.522-13.468-13.785-12.747a15.739,15.739,0,0,0-2.59.4c-5.931,1.439-9.017,6.247-8.794,11.984C1784.3,845.147,1784.352,846.294,1784.446,847.486Z" transform="translate(-1784.253 -831.661)"/></g><g transform="translate(3.466 8.214)"><path class="e" d="M1808.86,860.748a10.728,10.728,0,0,0,1.373-.092,19.614,19.614,0,0,0,9.607-3.848.7.7,0,1,0-.861-1.1,18.216,18.216,0,0,1-8.926,3.563,6.341,6.341,0,0,1-5.072-1.206c-2.873-2.339-3.57-7.437-3.844-11.067-.092-1.184-.14-2.3-.18-3.35-.22-5.667,2.946-9.989,8.261-11.279a.7.7,0,1,0-.329-1.356c-6,1.456-9.574,6.318-9.327,12.69.039,1.013.089,2.2.183,3.4.293,3.886,1.063,9.364,4.354,12.043A7.321,7.321,0,0,0,1808.86,860.748Z" transform="translate(-1799.551 -830.994)"/></g><path class="e" d="M1801.44,830.393a26.274,26.274,0,0,1-3,3.439l-4.539.167-.885-3.232s-2.872-.2-3.418-2.156a1.05,1.05,0,0,1-.034-.137,24.967,24.967,0,0,1-.114-7.885s-6.989,2.877-10.762,3.179a8.553,8.553,0,0,1-4.376-1.215c-2.908-1.53-5.361-6.393-4.766-9.624,0-.021.008-.042.011-.062.929-4.735,3.323-1.378,3.323-1.378s.806-3.811,3.21-4.025,3.844,3.361,3.844,3.361a37.781,37.781,0,0,1,14.061-.232c9.235,1.65,6.768,7.977,6.768,7.977S1807.533,820.934,1801.44,830.393Z" transform="translate(-1769.462 -807.455)"/><g transform="translate(24.72 18.202)"><path class="d" d="M1765.545,868.8a6.59,6.59,0,0,1,5.875-7.156,5.984,5.984,0,0,1,2.256.218c4.394,1.306,2.973,11.578-7.832,10.519Z" transform="translate(-1764.824 -860.916)"/><path class="e" d="M1766.033,871.848c5.508,0,8.6-3.08,9.242-6.371.513-2.621-.623-4.972-2.7-5.589a6.7,6.7,0,0,0-2.517-.244,7.283,7.283,0,0,0-6.508,7.909.7.7,0,0,0,1.391-.116,5.885,5.885,0,0,1,5.242-6.4,5.318,5.318,0,0,1,1.995.192c1.374.408,2.1,2.083,1.729,3.984-.539,2.753-3.3,5.759-9.295,5.172a.7.7,0,0,0-.136,1.389Q1765.284,871.849,1766.033,871.848Z" transform="translate(-1763.523 -859.615)"/></g></g></g><g transform="translate(295.801 9.973)"><g transform="translate(0 53.836)"><rect class="d" width="49.848" height="8.797" rx="4.398" transform="matrix(-0.824, -0.566, 0.566, -0.824, 41.081, 35.484)"/><path class="e" d="M2102.111,1026.672a5.168,5.168,0,0,0,.939-.087,5.1,5.1,0,0,0,1.958-9.211l-33.832-23.252a5.1,5.1,0,1,0-5.773,8.4h0l33.832,23.252A5.059,5.059,0,0,0,2102.111,1026.672ZM2068.3,994.621a3.675,3.675,0,0,1,2.089.652l33.831,23.252a3.7,3.7,0,0,1-4.192,6.1l-33.832-23.252-.395.575.395-.575a3.7,3.7,0,0,1,1.422-6.688A3.727,3.727,0,0,1,2068.3,994.621Z" transform="translate(-2062.175 -992.206)"/></g><g transform="translate(31.09 75.203)"><rect class="d" width="72.065" height="8.797" rx="4.398" transform="matrix(-0.824, -0.566, 0.566, -0.824, 59.391, 48.068)"/><path class="e" d="M1978.868,1100.493a5.1,5.1,0,0,0,2.9-9.3l-52.141-35.836a5.1,5.1,0,1,0-5.773,8.4l52.142,35.836A5.058,5.058,0,0,0,1978.868,1100.493Zm-52.123-44.635a3.674,3.674,0,0,1,2.088.652l52.141,35.836a3.7,3.7,0,1,1-4.192,6.1l-52.141-35.836a3.7,3.7,0,0,1,2.1-6.751Zm-2.5,7.326h0Z" transform="translate(-1920.622 -1053.443)"/></g><g transform="translate(5.101)"><g transform="translate(3.31 2.275)"><path class="d" d="M2045.927,845.043l28.388,19.51a5.406,5.406,0,0,1,2.154,5.871l-12.887,47.423a2.726,2.726,0,0,1-4.174,1.532l-28.388-19.511a5.405,5.405,0,0,1-2.154-5.871l12.886-47.422A2.726,2.726,0,0,1,2045.927,845.043Z" transform="translate(-2027.979 -843.862)"/><path class="e" d="M2059.64,919.254a3.456,3.456,0,0,0,1.19-.214,3.386,3.386,0,0,0,2.125-2.317l12.886-47.423a6.11,6.11,0,0,0-2.433-6.629l-28.388-19.511-.4.576.4-.576a3.424,3.424,0,0,0-5.243,1.924l-12.886,47.422a6.11,6.11,0,0,0,2.433,6.63l28.388,19.511A3.393,3.393,0,0,0,2059.64,919.254Zm-16.553-75.3a2.01,2.01,0,0,1,1.142.359l28.388,19.511a4.71,4.71,0,0,1,1.876,5.113l-12.886,47.422a2.028,2.028,0,0,1-3.105,1.139l-28.388-19.511a4.711,4.711,0,0,1-1.875-5.113l12.886-47.422a2.005,2.005,0,0,1,1.259-1.372A2.042,2.042,0,0,1,2043.087,843.952Z" transform="translate(-2026.677 -842.555)"/></g><g transform="translate(0)"><path class="d" d="M2055.412,838.523l28.388,19.511a5.406,5.406,0,0,1,2.154,5.871l-12.887,47.422a2.725,2.725,0,0,1-4.174,1.532l-28.388-19.511a5.4,5.4,0,0,1-2.154-5.871l12.886-47.423A2.726,2.726,0,0,1,2055.412,838.523Z" transform="translate(-2037.464 -837.342)"/><path class="e" d="M2069.126,912.734a3.447,3.447,0,0,0,1.189-.214,3.385,3.385,0,0,0,2.125-2.316l12.886-47.422a6.11,6.11,0,0,0-2.433-6.63l-28.388-19.51a3.424,3.424,0,0,0-5.243,1.924l-12.886,47.422a6.11,6.11,0,0,0,2.433,6.63l28.388,19.51A3.393,3.393,0,0,0,2069.126,912.734Zm-16.553-75.3a2.009,2.009,0,0,1,1.143.359h0L2082.1,857.3a4.711,4.711,0,0,1,1.876,5.113l-12.886,47.422a2.027,2.027,0,0,1-3.105,1.139l-28.388-19.51a4.713,4.713,0,0,1-1.876-5.113l12.887-47.422a2.005,2.005,0,0,1,1.258-1.372A2.035,2.035,0,0,1,2052.573,837.432Zm1.538-.216h0Z" transform="translate(-2036.164 -836.035)"/></g></g></g><g transform="translate(6.798 13.1)"><g transform="translate(0 199.948)"><g transform="translate(5.39)"><path class="e" d="M3001.694,1422.937a.7.7,0,0,0,.7-.7v-3.574a.7.7,0,1,0-1.4,0v3.574A.7.7,0,0,0,3001.694,1422.937Z" transform="translate(-3000.996 -1417.967)"/></g><g transform="translate(0 5.39)"><path class="e" d="M3006.9,1434.809h3.574a.7.7,0,0,0,0-1.4H3006.9a.7.7,0,0,0,0,1.4Z" transform="translate(-3006.201 -1433.413)"/></g><g transform="translate(5.39 7.207)"><path class="e" d="M3001.694,1443.588a.7.7,0,0,0,.7-.7v-3.574a.7.7,0,1,0-1.4,0v3.574A.7.7,0,0,0,3001.694,1443.588Z" transform="translate(-3000.996 -1438.618)"/></g><g transform="translate(7.207 5.39)"><path class="e" d="M2986.248,1434.809h3.574a.7.7,0,0,0,0-1.4h-3.574a.7.7,0,1,0,0,1.4Z" transform="translate(-2985.55 -1433.413)"/></g></g><g transform="translate(238.416 38.995)"><g transform="translate(7.393)"><path class="e" d="M2312.75,963.038a.7.7,0,0,0,.7-.7v-4.9a.7.7,0,1,0-1.4,0v4.9A.7.7,0,0,0,2312.75,963.038Z" transform="translate(-2312.052 -956.74)"/></g><g transform="translate(0 7.393)"><path class="e" d="M2319.889,979.322h4.9a.7.7,0,1,0,0-1.4h-4.9a.7.7,0,1,0,0,1.4Z" transform="translate(-2319.191 -977.926)"/></g><g transform="translate(7.393 9.884)"><path class="e" d="M2312.75,991.362a.7.7,0,0,0,.7-.7v-4.9a.7.7,0,1,0-1.4,0v4.9A.7.7,0,0,0,2312.75,991.362Z" transform="translate(-2312.052 -985.064)"/></g><g transform="translate(9.884 7.393)"><path class="e" d="M2291.563,979.322h4.9a.7.7,0,1,0,0-1.4h-4.9a.7.7,0,0,0,0,1.4Z" transform="translate(-2290.865 -977.926)"/></g></g><g transform="translate(41.792 17.848)"><g transform="translate(6.093)"><path class="e" d="M2879.922,901.579a.7.7,0,0,0,.7-.7v-4.04a.7.7,0,1,0-1.4,0v4.04A.7.7,0,0,0,2879.922,901.579Z" transform="translate(-2879.224 -896.143)"/></g><g transform="translate(0 6.093)"><path class="e" d="M2885.805,915h4.04a.7.7,0,1,0,0-1.4h-4.04a.7.7,0,0,0,0,1.4Z" transform="translate(-2885.108 -913.603)"/></g><g transform="translate(6.093 8.146)"><path class="e" d="M2879.922,924.922a.7.7,0,0,0,.7-.7v-4.04a.7.7,0,0,0-1.4,0v4.04A.7.7,0,0,0,2879.922,924.922Z" transform="translate(-2879.224 -919.486)"/></g><g transform="translate(8.146 6.093)"><path class="e" d="M2862.463,915h4.039a.7.7,0,1,0,0-1.4h-4.039a.7.7,0,0,0,0,1.4Z" transform="translate(-2861.765 -913.603)"/></g></g><ellipse class="c" cx="3.005" cy="3.005" rx="3.005" ry="3.005" transform="translate(374.55)"/><ellipse class="f" cx="6.35" cy="6.35" rx="6.35" ry="6.35" transform="translate(48.583 96.715)"/><circle class="f" cx="4.602" cy="4.602" r="4.602" transform="translate(392.66 328.792)"/><ellipse class="c" cx="2.444" cy="2.444" rx="2.444" ry="2.444" transform="translate(381.644 253.974)"/></g><g transform="translate(0 0.481)"><g transform="translate(0 141.494)"><g transform="translate(214.352 144.521)"><path class="g" d="M2373.361,1662.87a.7.7,0,0,0,.351-1.3l-19.4-11.272,14.294-8.251a.7.7,0,0,0,0-1.208l-21.168-12.3a.7.7,0,0,0-.7,1.207l20.126,11.7-14.294,8.251a.7.7,0,0,0,0,1.208l20.44,11.878A.692.692,0,0,0,2373.361,1662.87Z" transform="translate(-2346.394 -1628.44)"/></g><g transform="translate(257.078 121.206)"><g transform="translate(0)"><path class="g" d="M2246.941,1609.714a.7.7,0,0,0,.355-1.3l-24.816-14.6,25.015-14.442a.7.7,0,0,0,0-1.208l-28.3-16.447a.7.7,0,0,0-.7,1.207l27.257,15.841-25.008,14.438a.7.7,0,0,0-.005,1.206l25.848,15.2A.7.7,0,0,0,2246.941,1609.714Z" transform="translate(-2218.149 -1561.627)"/></g><g transform="translate(23.827 46.548)"><path class="g" d="M2202.826,1702.641c3.809,0,6.792-1.674,6.792-3.812s-2.983-3.813-6.792-3.813-6.792,1.675-6.792,3.813S2199.018,1702.641,2202.826,1702.641Zm0-6.229c3.18,0,5.4,1.274,5.4,2.417s-2.216,2.417-5.4,2.417-5.4-1.274-5.4-2.417S2199.646,1696.412,2202.826,1696.412Z" transform="translate(-2196.034 -1695.016)"/></g></g><g transform="translate(276.478 101.376)"><g transform="translate(0 3.115)"><path class="g" d="M2188.459,1515.126h19.5a.7.7,0,1,0,0-1.4h-19.5a.7.7,0,0,0,0,1.4Z" transform="translate(-2187.762 -1513.73)"/></g><g transform="translate(19.502)"><path class="g" d="M2159.627,1512.429c3.809,0,6.792-1.675,6.792-3.813s-2.983-3.813-6.792-3.813-6.792,1.675-6.792,3.813S2155.818,1512.429,2159.627,1512.429Zm0-6.23c3.18,0,5.4,1.274,5.4,2.417s-2.216,2.417-5.4,2.417-5.4-1.274-5.4-2.417S2156.447,1506.2,2159.627,1506.2Z" transform="translate(-2152.835 -1504.803)"/></g></g><g transform="translate(67.546 144.522)"><path class="g" d="M2767.782,1662.871a.7.7,0,0,0,.35-.094l20.44-11.878a.7.7,0,0,0,0-1.208l-14.294-8.25,20.126-11.7a.7.7,0,0,0-.7-1.207l-21.168,12.3a.7.7,0,0,0,0,1.208l14.294,8.251-19.4,11.272a.7.7,0,0,0,.351,1.3Z" transform="translate(-2767.083 -1628.441)"/></g><g transform="translate(7.153 121.206)"><g transform="translate(7.921)"><path class="g" d="M2890.216,1614.133a.7.7,0,0,0,.35-.094l33.77-19.623a.7.7,0,0,0,0-1.208l-25.008-14.438,27.256-15.841a.7.7,0,0,0-.7-1.207l-28.3,16.447a.7.7,0,0,0,0,1.208l25.008,14.438-32.727,19.018a.7.7,0,0,0,.351,1.3Z" transform="translate(-2889.517 -1561.627)"/></g><g transform="translate(0 50.967)"><path class="g" d="M2987.289,1715.3c3.809,0,6.792-1.675,6.792-3.813s-2.984-3.813-6.792-3.813-6.792,1.675-6.792,3.813S2983.48,1715.3,2987.289,1715.3Zm0-6.23c3.18,0,5.4,1.274,5.4,2.417s-2.217,2.417-5.4,2.417-5.4-1.274-5.4-2.417S2984.109,1709.074,2987.289,1709.074Z" transform="translate(-2980.497 -1707.679)"/></g></g><g transform="translate(67.546)"><path class="g" d="M2794.051,1248.729a.7.7,0,0,0,.351-1.3l-20.126-11.7,14.294-8.25a.7.7,0,0,0,0-1.208l-20.44-11.879a.7.7,0,1,0-.7,1.207l19.4,11.273-14.294,8.251a.7.7,0,0,0,0,1.208l21.168,12.3A.7.7,0,0,0,2794.051,1248.729Z" transform="translate(-2767.083 -1214.299)"/></g><g transform="translate(17.776 13.035)"><g transform="translate(7.921 6.086)"><path class="g" d="M2898.05,1319.17a.7.7,0,0,0,.352-1.3l-23.079-13.412,25.009-14.438a.7.7,0,0,0,0-1.208l-33.77-19.623a.7.7,0,1,0-.7,1.207l32.727,19.018-25.008,14.438a.7.7,0,0,0,0,1.208l24.121,14.018A.69.69,0,0,0,2898.05,1319.17Z" transform="translate(-2865.515 -1269.092)"/></g><g transform="translate(0)"><path class="g" d="M2956.848,1259.277c3.809,0,6.792-1.675,6.792-3.813s-2.984-3.813-6.792-3.813-6.792,1.675-6.792,3.813S2953.04,1259.277,2956.848,1259.277Zm0-6.23c3.181,0,5.4,1.274,5.4,2.417s-2.216,2.417-5.4,2.417-5.4-1.274-5.4-2.417S2953.669,1253.048,2956.848,1253.048Z" transform="translate(-2950.056 -1251.652)"/></g></g><g transform="translate(249.475 25.106)"><g transform="translate(0 5.058)"><path class="g" d="M2254.331,1335.147a.7.7,0,0,0,.35-.094l23.519-13.669a.7.7,0,0,0,0-1.208l-20.613-11.9,10.618-6.238a.7.7,0,0,0-.707-1.2l-11.652,6.845a.7.7,0,0,0,0,1.206l20.608,11.9-22.477,13.063a.7.7,0,0,0,.351,1.3Z" transform="translate(-2253.632 -1300.737)"/></g><g transform="translate(9.972)"><path class="g" d="M2269.185,1292.815c3.285,0,5.763-1.413,5.763-3.287s-2.478-3.287-5.763-3.287-5.763,1.413-5.763,3.287S2265.9,1292.815,2269.185,1292.815Zm0-5.178c2.5,0,4.367,1,4.367,1.891s-1.868,1.891-4.367,1.891-4.367-1-4.367-1.891S2266.686,1287.638,2269.185,1287.638Z" transform="translate(-2263.422 -1286.242)"/></g></g><g transform="translate(0 101.376)"><g transform="translate(12.189 3.115)"><path class="g" d="M2945.809,1515.126h19.5a.7.7,0,0,0,0-1.4h-19.5a.7.7,0,1,0,0,1.4Z" transform="translate(-2945.11 -1513.73)"/></g><path class="g" d="M3007.788,1512.429c3.809,0,6.793-1.675,6.793-3.813s-2.983-3.813-6.793-3.813-6.792,1.675-6.792,3.813S3003.979,1512.429,3007.788,1512.429Zm0-6.23c3.18,0,5.4,1.274,5.4,2.417s-2.216,2.417-5.4,2.417-5.4-1.274-5.4-2.417S3004.608,1506.2,3007.788,1506.2Z" transform="translate(-3000.995 -1504.803)"/></g><g transform="translate(154.455 181.245)"><path class="g" d="M2594.016,1759.721a.7.7,0,0,0,.7-.7v-24.648a.7.7,0,0,0-1.4,0v24.648A.7.7,0,0,0,2594.016,1759.721Z" transform="translate(-2593.318 -1733.677)"/></g><g transform="translate(148.361 209.112)"><path class="g" d="M2582.646,1821.157c3.809,0,6.792-1.675,6.792-3.813s-2.983-3.813-6.792-3.813-6.792,1.675-6.792,3.813S2578.837,1821.157,2582.646,1821.157Zm0-6.23c3.18,0,5.4,1.273,5.4,2.417s-2.216,2.417-5.4,2.417-5.4-1.273-5.4-2.417S2579.465,1814.928,2582.646,1814.928Z" transform="translate(-2575.854 -1813.532)"/></g></g><g transform="translate(39.745 163.889)"><g transform="translate(0)"><g class="h"><g transform="translate(0.111)"><path class="c" d="M2266.922,1346.854l114.228,66.382,114.969-66.378-114.228-66.382Z" transform="translate(-2266.224 -1279.778)"/><path class="c" d="M2379.848,1412.631a.7.7,0,0,0,.349-.093l114.969-66.378a.7.7,0,0,0,0-1.208L2380.94,1278.57a.7.7,0,0,0-.7,0l-114.97,66.377a.7.7,0,0,0,0,1.208l114.229,66.382A.692.692,0,0,0,2379.848,1412.631Zm113.577-67.077-113.576,65.573-112.837-65.573,113.576-65.573Z" transform="translate(-2264.922 -1278.476)"/></g><g transform="translate(12.064 7.129)"><path class="d" d="M2397.039,1516.656l18.681-10.787a.809.809,0,0,1,.813,0l23.728,13.79-1.622.934-22.512-13.082-17.06,9.848,11.153,6.481,11.365,6.6-1.622.938-10.555-6.135-12.372-7.183a.819.819,0,0,1-.4-.7A.808.808,0,0,1,2397.039,1516.656Z" transform="translate(-2267.583 -1433.574)"/><path class="d" d="M2557.349,1561.219l18.819,10.934-19.295,11.14,1.622.943,19.295-11.141,18.294,10.633h0l1.622-.934-19.514-11.34-20.437-11.876a.818.818,0,0,0-.817,0l-20.505,11.839,1.618.939Z" transform="translate(-2473.82 -1468.54)"/><path class="d" d="M2325.332,1419.585l1.617.943,33.689-19.449,28.924,16.812,14.021,8.146-33.686,19.449,1.621.943,34.092-19.685a.809.809,0,0,0,.406-.7.818.818,0,0,0-.4-.7l-14.029-8.154,57.661-33.287,72.023,41.86,1.621-.938-73.238-42.563s-.016-.008-.021-.012l-.085-.036-.065-.024c-.029-.008-.053-.012-.082-.021l-.073-.012h-.154a.651.651,0,0,0-.085.016.48.48,0,0,0-.073.016.444.444,0,0,0-.073.024c-.024.012-.048.024-.077.036l-.024.012-58.875,33.99-28.92-16.808a.807.807,0,0,0-.812,0Z" transform="translate(-2325.332 -1353.099)"/><path class="d" d="M2559.516,1320.962l11.068,6.432L2573,1326l20.262-11.7-11.067-6.432,1.621-.934,11.067,6.432,25.044-14.46,1.621.943-26.258,15.158-24.3,14.029a.847.847,0,0,1-.406.11c-.024,0-.045-.009-.069-.009a.719.719,0,0,1-.138-.02.4.4,0,0,1-.069-.024.823.823,0,0,1-.126-.057h0L2557.9,1321.9Z" transform="translate(-2505.146 -1298.904)"/><path class="d" d="M2355.417,1375.807l10.494-6.058,1.621.943-10.088,5.822L2384.089,1392l10.088-5.822,1.617.939-11.3,6.525a.8.8,0,0,1-.406.11.83.83,0,0,1-.411-.11l-28.265-16.426a.819.819,0,0,1-.4-.7A.8.8,0,0,1,2355.417,1375.807Z" transform="translate(-2208.592 -1345.027)"/></g><g transform="translate(0 66.382)"><g transform="translate(114.339)"><path class="d" d="M2266.6,1537.079l.111,15.713,114.97-66.378-.111-15.713Z" transform="translate(-2265.906 -1470.003)"/><path class="e" d="M2265.412,1552.188a.7.7,0,0,0,.349-.094l114.97-66.377a.7.7,0,0,0,.349-.609l-.111-15.713a.7.7,0,0,0-1.047-.6l-114.969,66.378a.7.7,0,0,0-.349.609l.11,15.713a.7.7,0,0,0,.7.693Zm114.269-67.477L2266.1,1550.286l-.1-14.108,113.58-65.575Z" transform="translate(-2264.604 -1468.701)"/></g><g transform="translate(0 0)"><path class="d" d="M2710.3,1537.079l-.111,15.713-114.45-66.378.111-15.713Z" transform="translate(-2595.045 -1470.004)"/><path class="e" d="M2708.89,1552.189a.7.7,0,0,0,.7-.694l.112-15.713a.7.7,0,0,0-.348-.609L2594.9,1468.8a.7.7,0,0,0-1.047.6l-.111,15.713a.7.7,0,0,0,.348.609l114.449,66.377A.7.7,0,0,0,2708.89,1552.189Zm-.589-16.011-.1,14.106-113.06-65.571.1-14.106Z" transform="translate(-2593.743 -1468.702)"/></g></g></g></g></g><g transform="translate(91.277)"><g transform="translate(0 127.649)"><g transform="translate(0)"><g transform="translate(8.508 52.726)"><g class="h"><path class="d" d="M2438.765,1359.373l54.474,31.657,54.827-31.654-54.474-31.657Z" transform="translate(-2438.068 -1327.02)"/><path class="e" d="M2491.937,1390.425a.7.7,0,0,0,.349-.094l54.827-31.655a.7.7,0,0,0,0-1.208l-54.474-31.656a.7.7,0,0,0-.7,0l-54.827,31.654a.7.7,0,0,0,0,1.208l54.474,31.657A.694.694,0,0,0,2491.937,1390.425Zm53.435-32.355-53.434,30.85-53.082-30.848,53.433-30.85Z" transform="translate(-2436.766 -1325.718)"/></g></g><g class="h"><g transform="translate(0 36.561)"><g transform="translate(63.671 0.698)"><path class="f" d="M2414.276,1317.952l.061,51.538,63.321-36.558-.061-51.538Z" transform="translate(-2414.276 -1281.394)"/><g transform="translate(6.551 19.086)"><g transform="translate(27.376)"><path class="d" d="M2456.528,1338.087l-21.481,12.4v20.306l21.507-12.415Z" transform="translate(-2434.349 -1337.389)"/><path class="e" d="M2433.745,1370.188a.691.691,0,0,0,.349-.094l21.508-12.415a.7.7,0,0,0,.349-.606l-.027-20.29a.7.7,0,0,0-1.047-.6l-21.481,12.4a.7.7,0,0,0-.349.6v20.306a.7.7,0,0,0,.7.7Zm20.809-13.516-20.111,11.61v-18.694l20.087-11.595Z" transform="translate(-2433.047 -1336.087)"/></g><g transform="translate(0 15.792)"><path class="d" d="M2513.5,1395.755l.021,20.3,21.486-12.4V1383.34Z" transform="translate(-2512.8 -1382.642)"/><path class="e" d="M2512.216,1415.447a.7.7,0,0,0,.349-.093l21.486-12.405a.7.7,0,0,0,.349-.6v-20.306a.7.7,0,0,0-1.047-.6l-21.507,12.416a.7.7,0,0,0-.349.605l.021,20.3a.7.7,0,0,0,.7.7ZM2533,1401.941l-20.091,11.6-.02-18.685,20.111-11.61Z" transform="translate(-2511.496 -1381.34)"/></g></g></g><path class="d" d="M2658.647,1317.952l-.062,51.538-63.034-36.558.061-51.538Z" transform="translate(-2594.854 -1280.696)"/><path class="e" d="M2657.284,1368.885a.7.7,0,0,0,.7-.7l.061-51.538a.7.7,0,0,0-.348-.6l-63.034-36.558a.7.7,0,0,0-1.048.6l-.061,51.538a.7.7,0,0,0,.348.6l63.034,36.558A.7.7,0,0,0,2657.284,1368.885Zm-.637-51.834-.06,49.925-61.639-35.749.059-49.925Z" transform="translate(-2593.552 -1279.393)"/><g transform="translate(7.661 20.482)"><path class="c" d="M2694.8,1338.087l21.481,12.4v20.306l-21.507-12.415Z" transform="translate(-2694.775 -1338.087)"/><path class="c" d="M2637.832,1395.755l-.021,20.3-21.486-12.4V1383.34Z" transform="translate(-2588.948 -1367.548)"/></g></g><g transform="translate(0.061)"><path class="d" d="M2414.451,1213.183l62.912,36.561,63.32-36.558-62.912-36.561Z" transform="translate(-2413.754 -1175.927)"/><path class="e" d="M2476.061,1249.14a.7.7,0,0,0,.349-.093l63.32-36.558a.7.7,0,0,0,0-1.208l-62.913-36.56a.7.7,0,0,0-.7,0l-63.32,36.558a.7.7,0,0,0,0,1.207l62.912,36.561A.7.7,0,0,0,2476.061,1249.14Zm61.928-37.258-61.927,35.754-61.521-35.752,61.927-35.753Z" transform="translate(-2412.451 -1174.625)"/><g transform="translate(30.455 17.641)"><path class="d" d="M2501.723,1246.095l32.555,18.919,32.767-18.918-32.556-18.919Z" transform="translate(-2501.025 -1226.479)"/><path class="e" d="M2532.976,1264.41a.7.7,0,0,0,.349-.094l32.767-18.918a.7.7,0,0,0,0-1.208l-32.556-18.919a.7.7,0,0,0-.7,0l-32.767,18.918a.7.7,0,0,0,0,1.207l32.556,18.919A.7.7,0,0,0,2532.976,1264.41Zm31.374-19.618-31.373,18.113-31.164-18.111,31.373-18.113Z" transform="translate(-2499.723 -1225.177)"/></g></g></g></g></g><g transform="translate(0 63.825)"><g transform="translate(0)"><g transform="translate(8.207 52.726)"><g class="h" transform="translate(0)"><g transform="translate(0 31.657)"><g transform="translate(54.774)"><path class="d" d="M2438.614,1267.193l.053,15.827,54.828-31.654-.053-15.827Z" transform="translate(-2437.916 -1234.84)"/><path class="e" d="M2437.365,1282.416a.7.7,0,0,0,.349-.093l54.827-31.655a.7.7,0,0,0,.349-.607l-.053-15.827a.7.7,0,0,0-1.047-.6l-54.827,31.655a.7.7,0,0,0-.349.607l.053,15.827a.7.7,0,0,0,.7.7Zm54.128-32.755-53.434,30.85-.048-14.219,53.434-30.85Z" transform="translate(-2436.614 -1233.538)"/></g><g transform="translate(0 0)"><path class="d" d="M2650.455,1267.193l-.053,15.827-54.827-31.654.053-15.827Z" transform="translate(-2594.877 -1234.84)"/><path class="e" d="M2649.1,1282.416a.7.7,0,0,0,.7-.7l.053-15.827a.7.7,0,0,0-.349-.607l-54.828-31.655a.7.7,0,0,0-1.047.6l-.053,15.827a.7.7,0,0,0,.349.607l54.827,31.655A.7.7,0,0,0,2649.1,1282.416Zm-.646-16.123-.048,14.219-53.434-30.85.047-14.219Z" transform="translate(-2593.575 -1233.538)"/></g></g><g transform="translate(0.3)"><path class="d" d="M2438.765,1176.477l54.474,31.657,54.827-31.655-54.474-31.656Z" transform="translate(-2438.068 -1144.125)"/><path class="e" d="M2491.937,1207.53a.7.7,0,0,0,.349-.093l54.827-31.655a.7.7,0,0,0,0-1.208l-54.474-31.656a.7.7,0,0,0-.7,0l-54.827,31.655a.7.7,0,0,0,0,1.208l54.474,31.657A.7.7,0,0,0,2491.937,1207.53Zm53.435-32.355-53.434,30.85-53.082-30.848,53.433-30.849Z" transform="translate(-2436.766 -1142.823)"/></g></g></g><g class="h"><g transform="translate(0 36.56)"><g transform="translate(63.671 0.698)"><path class="f" d="M2414.276,1135.056l.061,51.538,63.321-36.558-.061-51.538Z" transform="translate(-2414.276 -1098.498)"/><g transform="translate(6.551 19.086)"><g transform="translate(27.376)"><path class="d" d="M2456.528,1155.191l-21.481,12.4V1187.9l21.507-12.415Z" transform="translate(-2434.349 -1154.493)"/><path class="e" d="M2433.745,1187.293a.692.692,0,0,0,.349-.094l21.508-12.416a.7.7,0,0,0,.349-.605l-.027-20.29a.7.7,0,0,0-1.047-.6l-21.481,12.4a.7.7,0,0,0-.349.6v20.306a.7.7,0,0,0,.7.7Zm20.809-13.516-20.111,11.61v-18.695l20.087-11.595Z" transform="translate(-2433.047 -1153.191)"/></g><g transform="translate(0 15.792)"><path class="d" d="M2513.5,1212.86l.021,20.3,21.486-12.4v-20.306Z" transform="translate(-2512.8 -1199.746)"/><path class="e" d="M2512.216,1232.551a.7.7,0,0,0,.349-.094l21.486-12.4a.7.7,0,0,0,.349-.6v-20.306a.7.7,0,0,0-1.047-.6l-21.507,12.415a.7.7,0,0,0-.349.605l.021,20.3a.7.7,0,0,0,.7.7ZM2533,1219.045l-20.091,11.6-.02-18.685,20.111-11.61Z" transform="translate(-2511.496 -1198.444)"/></g></g></g><path class="d" d="M2658.647,1135.056l-.062,51.538-63.034-36.558.061-51.538Z" transform="translate(-2594.854 -1097.8)"/><path class="e" d="M2657.284,1185.989a.7.7,0,0,0,.7-.7l.061-51.538a.7.7,0,0,0-.348-.6l-63.034-36.558a.7.7,0,0,0-1.048.6l-.061,51.538a.7.7,0,0,0,.348.6l63.034,36.558A.7.7,0,0,0,2657.284,1185.989Zm-.637-51.834-.06,49.925-61.639-35.749.059-49.925Z" transform="translate(-2593.552 -1096.497)"/><g transform="translate(7.661 20.482)"><path class="c" d="M2694.8,1155.191l21.481,12.4V1187.9l-21.507-12.415Z" transform="translate(-2694.775 -1155.191)"/><path class="c" d="M2637.832,1212.86l-.021,20.3-21.486-12.4v-20.306Z" transform="translate(-2588.948 -1184.652)"/></g></g><g transform="translate(0.061)"><path class="d" d="M2414.451,1030.288l62.912,36.561,63.32-36.558-62.912-36.561Z" transform="translate(-2413.754 -993.032)"/><path class="e" d="M2476.061,1066.244a.7.7,0,0,0,.349-.094l63.32-36.558a.7.7,0,0,0,0-1.208l-62.913-36.56a.7.7,0,0,0-.7,0l-63.32,36.558a.7.7,0,0,0,0,1.208l62.912,36.561A.7.7,0,0,0,2476.061,1066.244Zm61.928-37.258-61.927,35.754-61.521-35.752,61.927-35.753Z" transform="translate(-2412.451 -991.73)"/><g transform="translate(30.455 17.641)"><path class="d" d="M2501.723,1063.2l32.555,18.919,32.767-18.918-32.556-18.919Z" transform="translate(-2501.025 -1043.583)"/><path class="e" d="M2532.976,1081.514a.7.7,0,0,0,.349-.094l32.767-18.918a.7.7,0,0,0,0-1.208l-32.556-18.919a.7.7,0,0,0-.7,0l-32.767,18.918a.7.7,0,0,0,0,1.207l32.556,18.92A.7.7,0,0,0,2532.976,1081.514Zm31.374-19.618-31.373,18.114-31.164-18.111,31.373-18.113Z" transform="translate(-2499.723 -1042.281)"/></g></g></g></g></g><g transform="translate(0)"><g transform="translate(0)"><g transform="translate(8.207 52.726)"><g class="h" transform="translate(0)"><g transform="translate(0 31.657)"><g transform="translate(54.774)"><path class="d" d="M2438.614,1084.3l.053,15.827,54.828-31.654-.053-15.827Z" transform="translate(-2437.916 -1051.945)"/><path class="e" d="M2437.365,1099.52a.7.7,0,0,0,.349-.094l54.827-31.655a.7.7,0,0,0,.349-.607l-.053-15.827a.7.7,0,0,0-1.047-.6l-54.827,31.654a.7.7,0,0,0-.349.607l.053,15.827a.7.7,0,0,0,.7.7Zm54.128-32.755-53.434,30.85-.048-14.218,53.434-30.851Z" transform="translate(-2436.614 -1050.642)"/></g><path class="d" d="M2650.455,1084.3l-.053,15.827-54.827-31.654.053-15.827Z" transform="translate(-2594.877 -1051.945)"/><path class="e" d="M2649.1,1099.52a.7.7,0,0,0,.7-.7l.053-15.827a.7.7,0,0,0-.349-.607l-54.828-31.654a.7.7,0,0,0-1.047.6l-.053,15.827a.7.7,0,0,0,.349.607l54.827,31.655A.7.7,0,0,0,2649.1,1099.52Zm-.646-16.123-.048,14.218-53.434-30.85.047-14.219Z" transform="translate(-2593.575 -1050.642)"/></g><g transform="translate(0.3)"><path class="d" d="M2438.765,993.582l54.474,31.657,54.827-31.654-54.474-31.657Z" transform="translate(-2438.068 -961.229)"/><path class="e" d="M2491.937,1024.634a.7.7,0,0,0,.349-.093l54.827-31.654a.7.7,0,0,0,0-1.208l-54.474-31.656a.7.7,0,0,0-.7,0l-54.827,31.655a.7.7,0,0,0,0,1.207l54.474,31.657A.7.7,0,0,0,2491.937,1024.634Zm53.435-32.354-53.434,30.85-53.082-30.848,53.433-30.85Z" transform="translate(-2436.766 -959.927)"/></g></g></g><g class="h"><g transform="translate(0 36.561)"><g transform="translate(63.671 0.698)"><path class="f" d="M2414.276,952.161l.061,51.538,63.321-36.558L2477.6,915.6Z" transform="translate(-2414.276 -915.603)"/><g transform="translate(6.551 19.086)"><g transform="translate(27.376)"><path class="d" d="M2456.528,972.3l-21.481,12.4V1005l21.507-12.415Z" transform="translate(-2434.349 -971.597)"/><path class="e" d="M2433.745,1004.4a.694.694,0,0,0,.349-.094l21.508-12.415a.7.7,0,0,0,.349-.605l-.027-20.29a.7.7,0,0,0-1.047-.6l-21.481,12.4a.7.7,0,0,0-.349.6V1003.7a.7.7,0,0,0,.7.7Zm20.809-13.516-20.111,11.609V983.8l20.087-11.6Z" transform="translate(-2433.047 -970.295)"/></g><g transform="translate(0 15.792)"><path class="d" d="M2513.5,1029.964l.021,20.3,21.486-12.4v-20.306Z" transform="translate(-2512.8 -1016.851)"/><path class="e" d="M2512.216,1049.656a.7.7,0,0,0,.349-.094l21.486-12.405a.7.7,0,0,0,.349-.6v-20.306a.7.7,0,0,0-1.047-.6l-21.507,12.416a.7.7,0,0,0-.349.6l.021,20.3a.7.7,0,0,0,.7.7ZM2533,1036.15l-20.091,11.6-.02-18.685L2533,1017.456Z" transform="translate(-2511.496 -1015.549)"/></g></g></g><path class="d" d="M2658.647,952.161l-.062,51.538-63.034-36.558.061-51.538Z" transform="translate(-2594.854 -914.904)"/><path class="e" d="M2657.284,1003.094a.7.7,0,0,0,.7-.7l.061-51.538a.7.7,0,0,0-.348-.6L2594.661,913.7a.7.7,0,0,0-1.048.6l-.061,51.538a.7.7,0,0,0,.348.6L2656.934,1003A.7.7,0,0,0,2657.284,1003.094Zm-.637-51.834-.06,49.925-61.639-35.749.059-49.925Z" transform="translate(-2593.552 -913.602)"/><g transform="translate(7.661 20.482)"><path class="c" d="M2694.8,972.3l21.481,12.4V1005l-21.507-12.415Z" transform="translate(-2694.775 -972.295)"/><path class="c" d="M2637.832,1029.964l-.021,20.3-21.486-12.4v-20.306Z" transform="translate(-2588.948 -1001.757)"/></g></g><g transform="translate(0.061)"><path class="d" d="M2414.451,847.392l62.912,36.561,63.32-36.558-62.912-36.561Z" transform="translate(-2413.754 -810.136)"/><path class="e" d="M2476.061,883.349a.7.7,0,0,0,.349-.094l63.32-36.558a.7.7,0,0,0,0-1.208l-62.913-36.561a.7.7,0,0,0-.7,0l-63.32,36.559a.7.7,0,0,0,0,1.207l62.912,36.561A.7.7,0,0,0,2476.061,883.349Zm61.928-37.258-61.927,35.753-61.521-35.752,61.927-35.753Z" transform="translate(-2412.451 -808.834)"/><g transform="translate(31.153 18.339)"><path class="c" d="M2501.723,880.3l32.555,18.919,32.767-18.918-32.556-18.919Z" transform="translate(-2501.723 -861.385)"/></g></g></g></g></g></g></g></g></g></g></svg>