<svg xmlns="http://www.w3.org/2000/svg" width="32" height="32" viewBox="0 0 32 32"><defs><style>.a{fill:#007ab9;}.b{fill:#f1f2f2;}</style></defs><circle class="a" cx="16" cy="16" r="16" transform="translate(0 0)"/><g transform="translate(7.619 6.756)"><path class="b" d="M45.093,34.528v6.665H41.229V34.975c0-1.561-.558-2.628-1.957-2.628a2.114,2.114,0,0,0-1.982,1.413,2.645,2.645,0,0,0-.128.942v6.491H33.3s.052-10.532,0-11.622h3.865v1.647c-.008.013-.019.026-.026.038h.026v-.038a3.837,3.837,0,0,1,3.483-1.92c2.542,0,4.448,1.661,4.448,5.23ZM29.255,23.969a2.014,2.014,0,1,0-.051,4.016h.025a2.014,2.014,0,1,0,.026-4.016ZM27.3,41.193h3.863V29.571H27.3Z" transform="translate(-27.068 -23.969)"/></g></svg>