<svg xmlns="http://www.w3.org/2000/svg" width="156.366" height="33" viewBox="0 0 156.366 33"><defs><style>.a{fill:#e5181e;stroke:rgba(0,0,0,0);stroke-miterlimit:10;}.b{fill:#222;}</style></defs><g transform="translate(1194.5 837.5)"><path class="a" d="M24.553,32H7.448A7.457,7.457,0,0,1,0,24.552V8.008A8.017,8.017,0,0,1,8.009,0H24.553A7.456,7.456,0,0,1,32,7.447v17.1A7.456,7.456,0,0,1,24.553,32Zm-.81-12.387v2.064h1.366a2.766,2.766,0,0,0,2.762-2.763V16.183a2.766,2.766,0,0,0-2.762-2.763H22.378a2.766,2.766,0,0,0-2.763,2.763v3.43H18.583V17.536a4.121,4.121,0,0,0-4.117-4.117H12.389c-.069,0-.14,0-.211.01l-.1.013a2.057,2.057,0,0,0-.756.275l-.024.015-.06.039c-.056.038-.109.078-.159.119l-.019.016-.019.016a2.033,2.033,0,0,0-.21.21l-.015.018-.017.02c-.041.049-.081.1-.119.159-.017.024-.034.051-.054.084a2.083,2.083,0,0,0-.173.36,2.017,2.017,0,0,0-.1.4c-.005.034-.01.069-.013.1-.007.071-.01.142-.01.211v4.129H8.246A2.051,2.051,0,0,1,6.2,17.564V13.42H4.132v4.131a4.131,4.131,0,0,0,4.126,4.126h4.131V15.484h2.063a2.068,2.068,0,0,1,2.065,2.066v2.066a2.063,2.063,0,0,0,2.061,2.061h3.1v-5.5a.692.692,0,0,1,.691-.692h2.746a.692.692,0,0,1,.692.692v2.746a.693.693,0,0,1-.692.692H23.743ZM4.132,10.323v2.065H6.2V10.323Z" transform="translate(-1194 -837)"/><path class="b" d="M826.483,687.254h4.129v15.482h-4.129Z" transform="translate(-1980.226 -1515.995)"/><path class="b" d="M914.24,694.221v8.515h-4.129v-8.515c0-2.58-1.581-3.1-2.839-3.1-1.193,0-2.838.968-2.838,3.613v8h-4.128V687.254h4.128v1.806a4.63,4.63,0,0,1,3.871-1.806C911.563,687.254,914.24,689.383,914.24,694.221Z" transform="translate(-2047.856 -1515.995)"/><path class="b" d="M1104.953,694.221v8.515h-4.129v-8.515c0-2.58-1.581-3.1-2.839-3.1-1.193,0-2.838.968-2.838,3.613v8h-4.129V687.254h4.129v1.806a4.629,4.629,0,0,1,3.871-1.806C1102.276,687.254,1104.953,689.383,1104.953,694.221Z" transform="translate(-2222.571 -1515.995)"/><path class="b" d="M1297.729,695a7.8,7.8,0,0,1-8,7.741,7.666,7.666,0,0,1-8-7.741c0-4.29,3.064-7.741,8-7.741A7.823,7.823,0,0,1,1297.729,695Zm-4.129,0a3.87,3.87,0,1,0-3.871,3.87A3.821,3.821,0,0,0,1293.6,695Z" transform="translate(-2397.284 -1515.995)"/><path class="b" d="M1519.754,694.221v8.515h-4.129v-8.515c0-2.58-1.452-3.1-2.581-3.1-1.064,0-2.58.71-2.58,3.613v8h-4.128v-8.515c0-2.58-1.322-3.1-2.452-3.1-1.064,0-2.709.71-2.709,3.613v8h-4.128V687.254h4.128v1.806a5.01,5.01,0,0,1,4.129-1.806,4.559,4.559,0,0,1,4.032,2.1,5.2,5.2,0,0,1,4.354-2.1C1517.206,687.254,1519.754,689.383,1519.754,694.221Z" transform="translate(-2594.538 -1515.995)"/><path class="b" d="M1792.342,687.254h4.128v15.482h-4.128Z" transform="translate(-2865.061 -1515.995)"/><path class="b" d="M1860.1,702.736l6.451-11.612h-5.935v-3.871h12.9l-6.451,11.612H1873v3.871Z" transform="translate(-2927.134 -1515.995)"/><path class="b" d="M2037.946,697.318l2.193,3.032a8.13,8.13,0,0,1-5.9,2.387A7.619,7.619,0,0,1,2026.2,695c0-4.29,3.032-7.741,8.031-7.741a7.264,7.264,0,0,1,6.935,5.677l-8.967,5.451a4.034,4.034,0,0,0,2.1.484A5.155,5.155,0,0,0,2037.946,697.318ZM2030.334,695a3.565,3.565,0,0,0,.064.58l6-3.516a2.684,2.684,0,0,0-2.1-.935A3.863,3.863,0,0,0,2030.334,695Z" transform="translate(-3079.305 -1515.995)"/></g></svg>