<svg xmlns="http://www.w3.org/2000/svg" width="32" height="32" viewBox="0 0 32 32"><defs><style>.a{fill:#55acee;}.b{fill:#f1f2f2;}</style></defs><circle class="a" cx="16" cy="16" r="16" transform="translate(0 0)"/><g transform="translate(7.056 9.615)"><path class="b" d="M43.937,35.84a7.71,7.71,0,0,1-2.22.608,3.875,3.875,0,0,0,1.7-2.137,7.735,7.735,0,0,1-2.454.937,3.867,3.867,0,0,0-6.585,3.525,10.969,10.969,0,0,1-7.965-4.038,3.868,3.868,0,0,0,1.2,5.159,3.837,3.837,0,0,1-1.75-.484c0,.016,0,.033,0,.049a3.866,3.866,0,0,0,3.1,3.789,3.879,3.879,0,0,1-1.745.067A3.868,3.868,0,0,0,30.824,46,7.8,7.8,0,0,1,25.1,47.6,10.989,10.989,0,0,0,42.02,38.34c0-.167,0-.334-.011-.5a7.836,7.836,0,0,0,1.928-2Z" transform="translate(-25.103 -34.028)"/></g></svg>